<mxfile host="app.diagrams.net" agent="Mozilla/5.0 (Macintosh; Intel Mac OS X 10_15_7) AppleWebKit/605.1.15 (KHTML, like Gecko) Version/17.4.1 Safari/605.1.15" version="26.2.14">
  <diagram name="Page-1" id="e56a1550-8fbb-45ad-956c-1786394a9013">
    <mxGraphModel dx="5793" dy="1363" grid="1" gridSize="10" guides="1" tooltips="1" connect="1" arrows="1" fold="1" page="1" pageScale="1" pageWidth="1100" pageHeight="850" background="none" math="0" shadow="0">
      <root>
        <mxCell id="0" />
        <mxCell id="1" parent="0" />
        <mxCell id="l_nzm8aYYMq2d200SgV5-22" value="" style="rounded=0;whiteSpace=wrap;html=1;strokeColor=#000000;strokeWidth=3;" parent="1" vertex="1">
          <mxGeometry x="-2702.5" y="1434.86" width="1090" height="293.74" as="geometry" />
        </mxCell>
        <mxCell id="l_nzm8aYYMq2d200SgV5-20" value="" style="rounded=0;whiteSpace=wrap;html=1;strokeWidth=3;" parent="1" vertex="1">
          <mxGeometry x="-2810" y="440" width="1160" height="570" as="geometry" />
        </mxCell>
        <mxCell id="l_nzm8aYYMq2d200SgV5-17" value="" style="rounded=0;whiteSpace=wrap;html=1;strokeColor=#000000;strokeWidth=3;" parent="1" vertex="1">
          <mxGeometry x="-2810" y="80" width="1080" height="250" as="geometry" />
        </mxCell>
        <mxCell id="aW1EL9rklJhH-4EWhwkh-1" value="&amp;lt;&amp;lt;Boundary&amp;gt;&amp;gt;&lt;div&gt;UploadPDFPage&lt;/div&gt;" style="swimlane;childLayout=stackLayout;horizontal=1;startSize=50;horizontalStack=0;rounded=1;fontSize=14;fontStyle=0;strokeWidth=2;resizeParent=0;resizeLast=1;shadow=0;align=center;arcSize=4;whiteSpace=wrap;html=1;labelBackgroundColor=none;" parent="1" vertex="1">
          <mxGeometry x="-2790" y="129.49" width="262.5" height="168.2" as="geometry" />
        </mxCell>
        <mxCell id="aW1EL9rklJhH-4EWhwkh-2" value="&lt;font style=&quot;font-size: 13px;&quot;&gt;+selectFile()&lt;br&gt;+displayUploadStatus()&lt;/font&gt;&lt;div&gt;&lt;font size=&quot;2&quot;&gt;+&lt;/font&gt;&lt;span style=&quot;font-size: 13px;&quot;&gt;displayGenerationOptions()&lt;/span&gt;&lt;div&gt;&lt;font style=&quot;font-size: 13px;&quot;&gt;&lt;font&gt;+&lt;/font&gt;&lt;font&gt;selectCancel&lt;/font&gt;&lt;font&gt;()&lt;/font&gt;&lt;/font&gt;&lt;div&gt;&lt;font style=&quot;font-size: 13px;&quot;&gt;+displayReuploadOption()&lt;br&gt;&lt;/font&gt;&lt;div&gt;&lt;font style=&quot;font-size: 13px;&quot;&gt;+selectReupload()&lt;br&gt;&lt;/font&gt;&lt;/div&gt;&lt;div&gt;&lt;font style=&quot;font-size: 13px;&quot;&gt;&lt;font&gt;+&lt;/font&gt;displayErrorMessage()&lt;/font&gt;&lt;/div&gt;&lt;div&gt;&lt;font style=&quot;font-size: 13px;&quot;&gt;&lt;br&gt;&lt;/font&gt;&lt;/div&gt;&lt;div&gt;&lt;font&gt;&lt;code data-end=&quot;361&quot; data-start=&quot;347&quot;&gt;&lt;font style=&quot;font-size: 13px;&quot; face=&quot;Verdana&quot;&gt;&lt;br&gt;&lt;/font&gt;&lt;/code&gt;&lt;/font&gt;&lt;/div&gt;&lt;div&gt;&lt;font style=&quot;font-size: 16px;&quot;&gt;&lt;code data-end=&quot;361&quot; data-start=&quot;347&quot;&gt;&lt;br&gt;&lt;/code&gt;&lt;/font&gt;&lt;/div&gt;&lt;/div&gt;&lt;/div&gt;&lt;/div&gt;" style="align=left;strokeColor=none;fillColor=none;spacingLeft=4;spacingRight=4;fontSize=12;verticalAlign=top;resizable=0;rotatable=0;part=1;html=1;whiteSpace=wrap;labelBackgroundColor=none;strokeWidth=2;" parent="aW1EL9rklJhH-4EWhwkh-1" vertex="1">
          <mxGeometry y="50" width="262.5" height="118.19999999999999" as="geometry" />
        </mxCell>
        <mxCell id="aW1EL9rklJhH-4EWhwkh-3" style="edgeStyle=orthogonalEdgeStyle;rounded=0;orthogonalLoop=1;jettySize=auto;html=1;exitX=0.5;exitY=1;exitDx=0;exitDy=0;labelBackgroundColor=none;fontColor=default;strokeWidth=2;" parent="aW1EL9rklJhH-4EWhwkh-1" edge="1">
          <mxGeometry relative="1" as="geometry">
            <mxPoint x="120" y="393.74000000000007" as="sourcePoint" />
            <mxPoint x="120" y="393.74000000000007" as="targetPoint" />
          </mxGeometry>
        </mxCell>
        <mxCell id="aW1EL9rklJhH-4EWhwkh-4" style="edgeStyle=orthogonalEdgeStyle;rounded=0;orthogonalLoop=1;jettySize=auto;html=1;exitX=0.5;exitY=1;exitDx=0;exitDy=0;labelBackgroundColor=none;fontColor=default;strokeWidth=2;" parent="aW1EL9rklJhH-4EWhwkh-1" edge="1">
          <mxGeometry relative="1" as="geometry">
            <mxPoint x="120" y="393.74000000000007" as="sourcePoint" />
            <mxPoint x="120" y="393.74000000000007" as="targetPoint" />
          </mxGeometry>
        </mxCell>
        <mxCell id="aW1EL9rklJhH-4EWhwkh-5" style="edgeStyle=orthogonalEdgeStyle;rounded=0;orthogonalLoop=1;jettySize=auto;html=1;exitX=0.5;exitY=1;exitDx=0;exitDy=0;labelBackgroundColor=none;fontColor=default;strokeWidth=2;" parent="aW1EL9rklJhH-4EWhwkh-1" edge="1">
          <mxGeometry relative="1" as="geometry">
            <mxPoint x="120" y="393.74000000000007" as="sourcePoint" />
            <mxPoint x="120" y="393.74000000000007" as="targetPoint" />
          </mxGeometry>
        </mxCell>
        <mxCell id="aW1EL9rklJhH-4EWhwkh-6" value="&lt;span style=&quot;caret-color: rgb(0, 0, 0); color: rgb(0, 0, 0); font-family: Helvetica; font-size: 14px; font-style: normal; font-variant-caps: normal; font-weight: 400; letter-spacing: normal; orphans: auto; text-align: center; text-indent: 0px; text-transform: none; white-space: normal; widows: auto; word-spacing: 0px; -webkit-text-stroke-width: 0px; background-color: rgb(251, 251, 251); text-decoration: none; display: inline !important; float: none;&quot;&gt;&amp;lt;&amp;lt;&lt;span style=&quot;text-align: start; font-size: medium;&quot;&gt;Boundary&lt;/span&gt;&amp;gt;&amp;gt;&lt;/span&gt;&lt;div style=&quot;caret-color: rgb(0, 0, 0); color: rgb(0, 0, 0); font-family: Helvetica; font-size: 14px; font-style: normal; font-variant-caps: normal; font-weight: 400; letter-spacing: normal; orphans: auto; text-align: center; text-indent: 0px; text-transform: none; white-space: normal; widows: auto; word-spacing: 0px; -webkit-text-stroke-width: 0px; text-decoration: none;&quot;&gt;&lt;span style=&quot;text-align: start;&quot;&gt;QuizPage&lt;/span&gt;&lt;/div&gt;" style="swimlane;childLayout=stackLayout;horizontal=1;startSize=50;horizontalStack=0;rounded=1;fontSize=14;fontStyle=1;strokeWidth=2;resizeParent=0;resizeLast=1;shadow=0;dashed=0;align=center;arcSize=4;whiteSpace=wrap;html=1;labelBackgroundColor=none;" parent="1" vertex="1">
          <mxGeometry x="-2790" y="486.25" width="340" height="267.5" as="geometry" />
        </mxCell>
        <mxCell id="aW1EL9rklJhH-4EWhwkh-7" value="&lt;font style=&quot;font-size: 14px;&quot;&gt;+startQuiz()&lt;/font&gt;&lt;div&gt;&lt;font size=&quot;3&quot;&gt;+&lt;font face=&quot;Helvetica&quot;&gt;displayQuestion&lt;/font&gt;()&lt;br&gt;&lt;/font&gt;&lt;div&gt;&lt;font size=&quot;3&quot;&gt;+selectAnswer()&lt;/font&gt;&lt;/div&gt;&lt;div&gt;&lt;font size=&quot;3&quot;&gt;+selectShowAnswer()&lt;/font&gt;&lt;/div&gt;&lt;div&gt;&lt;font size=&quot;3&quot;&gt;+displayAnswerFeedback()&lt;br&gt;&lt;/font&gt;&lt;/div&gt;&lt;div&gt;&lt;font size=&quot;3&quot;&gt;+selectNextQuestion()&lt;/font&gt;&lt;/div&gt;&lt;div&gt;&lt;font&gt;&lt;div&gt;&lt;font size=&quot;3&quot;&gt;+submitQuiz&lt;font face=&quot;monospace&quot;&gt;()&lt;/font&gt;&lt;/font&gt;&lt;/div&gt;&lt;/font&gt;&lt;/div&gt;&lt;div&gt;&lt;font size=&quot;3&quot;&gt;+resumeQuiz()&lt;/font&gt;&lt;/div&gt;&lt;div&gt;&lt;font size=&quot;3&quot;&gt;&lt;div&gt;+exitQuiz()&lt;/div&gt;&lt;div&gt;+displayExitConfirmation()&lt;br&gt;&lt;/div&gt;&lt;div&gt;+displayErrorMessage()&amp;nbsp;&lt;br&gt;&lt;/div&gt;&lt;/font&gt;&lt;/div&gt;&lt;div&gt;&lt;br&gt;&lt;/div&gt;&lt;/div&gt;" style="align=left;strokeColor=none;fillColor=none;spacingLeft=4;spacingRight=4;fontSize=12;verticalAlign=top;resizable=0;rotatable=0;part=1;html=1;whiteSpace=wrap;labelBackgroundColor=none;strokeWidth=2;" parent="aW1EL9rklJhH-4EWhwkh-6" vertex="1">
          <mxGeometry y="50" width="340" height="217.5" as="geometry" />
        </mxCell>
        <mxCell id="aW1EL9rklJhH-4EWhwkh-8" style="edgeStyle=orthogonalEdgeStyle;rounded=0;orthogonalLoop=1;jettySize=auto;html=1;exitX=0.5;exitY=1;exitDx=0;exitDy=0;labelBackgroundColor=none;fontColor=default;strokeWidth=2;" parent="aW1EL9rklJhH-4EWhwkh-6" edge="1">
          <mxGeometry relative="1" as="geometry">
            <mxPoint x="1037.5" y="807.5" as="sourcePoint" />
            <mxPoint x="1037.5" y="807.5" as="targetPoint" />
          </mxGeometry>
        </mxCell>
        <mxCell id="aW1EL9rklJhH-4EWhwkh-9" value="&lt;span style=&quot;caret-color: rgb(0, 0, 0); color: rgb(0, 0, 0); font-family: Helvetica; font-size: 14px; font-style: normal; font-variant-caps: normal; letter-spacing: normal; orphans: auto; text-align: center; text-indent: 0px; text-transform: none; white-space: normal; widows: auto; word-spacing: 0px; -webkit-text-stroke-width: 0px; text-decoration: none; font-weight: 400; background-color: rgb(251, 251, 251); float: none; display: inline !important;&quot;&gt;&amp;lt;&amp;lt;&lt;span style=&quot;text-align: start; font-size: medium;&quot;&gt;Controller&lt;/span&gt;&amp;gt;&amp;gt;&lt;/span&gt;&lt;div style=&quot;caret-color: rgb(0, 0, 0); color: rgb(0, 0, 0); font-family: Helvetica; font-size: 14px; font-style: normal; font-variant-caps: normal; letter-spacing: normal; orphans: auto; text-align: center; text-indent: 0px; text-transform: none; white-space: normal; widows: auto; word-spacing: 0px; -webkit-text-stroke-width: 0px; text-decoration: none; font-weight: 400;&quot;&gt;&lt;span style=&quot;text-align: start;&quot;&gt;QuizController&lt;/span&gt;&lt;/div&gt;" style="swimlane;childLayout=stackLayout;horizontal=1;startSize=50;horizontalStack=0;rounded=1;fontSize=14;fontStyle=1;strokeWidth=2;resizeParent=0;resizeLast=1;shadow=0;dashed=0;align=center;arcSize=4;whiteSpace=wrap;html=1;labelBackgroundColor=none;" parent="1" vertex="1">
          <mxGeometry x="-2355" y="477.5" width="345" height="285" as="geometry" />
        </mxCell>
        <mxCell id="aW1EL9rklJhH-4EWhwkh-10" value="&lt;font style=&quot;font-size: 14px;&quot;&gt;+getQuizQuestions()&lt;/font&gt;&lt;div&gt;&lt;div&gt;&lt;font size=&quot;3&quot;&gt;+recordSelectedAnswer()&lt;br&gt;&lt;/font&gt;&lt;/div&gt;&lt;div&gt;&lt;font size=&quot;3&quot;&gt;&lt;font&gt;+&lt;/font&gt;getCorrectAnswer()&lt;/font&gt;&lt;/div&gt;&lt;div&gt;&lt;font size=&quot;3&quot;&gt;+compareAnswers()&lt;br&gt;&lt;/font&gt;&lt;/div&gt;&lt;div&gt;&lt;font size=&quot;3&quot;&gt;&lt;font&gt;+get&lt;/font&gt;NextQuestion()&lt;/font&gt;&lt;/div&gt;&lt;div&gt;&lt;font size=&quot;3&quot;&gt;&lt;font&gt;+&lt;/font&gt;submitQuizAnswers()&lt;/font&gt;&lt;/div&gt;&lt;div&gt;&lt;font size=&quot;3&quot;&gt;+calculateQuizScore()&lt;/font&gt;&lt;/div&gt;&lt;div&gt;&lt;font size=&quot;3&quot;&gt;&lt;font&gt;+&lt;/font&gt;identifyWrongAnsweredTopics()&lt;/font&gt;&lt;/div&gt;&lt;div&gt;&lt;font size=&quot;3&quot;&gt;&lt;font&gt;+&lt;/font&gt;suggestStudySessions()&lt;/font&gt;&lt;/div&gt;&lt;div&gt;&lt;font size=&quot;3&quot;&gt;+resetQuiz()&lt;/font&gt;&lt;/div&gt;&lt;div&gt;&lt;font size=&quot;3&quot;&gt;+resumeQuiz()&lt;/font&gt;&lt;/div&gt;&lt;div&gt;&lt;font size=&quot;3&quot;&gt;&lt;div&gt;&lt;font&gt;+handleError()&lt;/font&gt;&lt;/div&gt;&lt;div&gt;&lt;font&gt;&lt;br&gt;&lt;/font&gt;&lt;/div&gt;&lt;/font&gt;&lt;/div&gt;&lt;div&gt;&lt;font size=&quot;3&quot;&gt;&lt;br&gt;&lt;/font&gt;&lt;/div&gt;&lt;div&gt;&lt;br&gt;&lt;/div&gt;&lt;/div&gt;" style="align=left;strokeColor=none;fillColor=none;spacingLeft=4;spacingRight=4;fontSize=12;verticalAlign=top;resizable=0;rotatable=0;part=1;html=1;whiteSpace=wrap;labelBackgroundColor=none;strokeWidth=2;" parent="aW1EL9rklJhH-4EWhwkh-9" vertex="1">
          <mxGeometry y="50" width="345" height="235" as="geometry" />
        </mxCell>
        <mxCell id="aW1EL9rklJhH-4EWhwkh-11" style="edgeStyle=orthogonalEdgeStyle;rounded=0;orthogonalLoop=1;jettySize=auto;html=1;exitX=0.5;exitY=1;exitDx=0;exitDy=0;labelBackgroundColor=none;fontColor=default;strokeWidth=0;" parent="aW1EL9rklJhH-4EWhwkh-9" edge="1">
          <mxGeometry relative="1" as="geometry">
            <mxPoint x="595" y="665" as="sourcePoint" />
            <mxPoint x="595" y="665" as="targetPoint" />
          </mxGeometry>
        </mxCell>
        <mxCell id="aW1EL9rklJhH-4EWhwkh-12" value="&lt;span style=&quot;font-size: 14px; font-weight: 400;&quot;&gt;&amp;lt;&amp;lt;Entity&amp;gt;&amp;gt;&lt;/span&gt;&lt;div style=&quot;font-size: 14px; font-weight: 400;&quot;&gt;&lt;span style=&quot;text-align: start;&quot;&gt;QuizData&lt;/span&gt;&lt;/div&gt;" style="swimlane;fontStyle=1;align=center;verticalAlign=top;childLayout=stackLayout;horizontal=1;startSize=40;horizontalStack=0;resizeParent=1;resizeParentMax=0;resizeLast=0;collapsible=1;marginBottom=0;whiteSpace=wrap;html=1;strokeWidth=2;" parent="1" vertex="1">
          <mxGeometry x="-1903.75" y="495.0000000000002" width="230" height="250" as="geometry" />
        </mxCell>
        <mxCell id="aW1EL9rklJhH-4EWhwkh-13" value="&lt;div&gt;&lt;font style=&quot;font-size: 14px;&quot;&gt;-Questions&lt;br&gt;&lt;/font&gt;&lt;/div&gt;&lt;div&gt;&lt;font size=&quot;3&quot;&gt;-studentAnswers&lt;/font&gt;&lt;/div&gt;&lt;div&gt;&lt;font size=&quot;3&quot;&gt;-correctAnswers&lt;/font&gt;&lt;/div&gt;&lt;div&gt;&lt;font size=&quot;3&quot;&gt;-score&lt;/font&gt;&lt;/div&gt;&lt;div&gt;&lt;font size=&quot;3&quot;&gt;&lt;br&gt;&lt;/font&gt;&lt;/div&gt;&lt;div&gt;&lt;br&gt;&lt;/div&gt;" style="text;strokeColor=none;fillColor=none;align=left;verticalAlign=top;spacingLeft=4;spacingRight=4;overflow=hidden;rotatable=0;points=[[0,0.5],[1,0.5]];portConstraint=eastwest;whiteSpace=wrap;html=1;strokeWidth=2;" parent="aW1EL9rklJhH-4EWhwkh-12" vertex="1">
          <mxGeometry y="40" width="230" height="80" as="geometry" />
        </mxCell>
        <mxCell id="aW1EL9rklJhH-4EWhwkh-14" value="" style="line;strokeWidth=2;fillColor=none;align=left;verticalAlign=middle;spacingTop=-1;spacingLeft=3;spacingRight=3;rotatable=0;labelPosition=right;points=[];portConstraint=eastwest;strokeColor=inherit;" parent="aW1EL9rklJhH-4EWhwkh-12" vertex="1">
          <mxGeometry y="120" width="230" height="10" as="geometry" />
        </mxCell>
        <mxCell id="aW1EL9rklJhH-4EWhwkh-15" value="&lt;div&gt;&lt;font style=&quot;font-size: 14px;&quot;&gt;+getQuestions()&lt;/font&gt;&lt;/div&gt;&lt;div&gt;&lt;font size=&quot;3&quot;&gt;+getCorrectAnswer()&lt;/font&gt;&lt;/div&gt;&lt;div&gt;&lt;font size=&quot;3&quot;&gt;+saveQuizQuestions()&lt;/font&gt;&lt;/div&gt;&lt;div&gt;&lt;font size=&quot;3&quot;&gt;+saveResult()&amp;nbsp;&lt;/font&gt;&lt;/div&gt;&lt;div&gt;&lt;font size=&quot;3&quot;&gt;+&lt;font&gt;saveProgress()&lt;/font&gt;&lt;/font&gt;&lt;/div&gt;&lt;div&gt;&lt;font size=&quot;3&quot;&gt;&lt;font&gt;+&lt;/font&gt;getProgress()&lt;/font&gt;&lt;/div&gt;" style="text;strokeColor=none;fillColor=none;align=left;verticalAlign=top;spacingLeft=4;spacingRight=4;overflow=hidden;rotatable=0;points=[[0,0.5],[1,0.5]];portConstraint=eastwest;whiteSpace=wrap;html=1;strokeWidth=2;" parent="aW1EL9rklJhH-4EWhwkh-12" vertex="1">
          <mxGeometry y="130" width="230" height="120" as="geometry" />
        </mxCell>
        <mxCell id="aW1EL9rklJhH-4EWhwkh-20" value="&amp;lt;&amp;lt;Controller&amp;gt;&amp;gt;&lt;div&gt;&lt;span style=&quot;text-align: start;&quot;&gt;&lt;font style=&quot;font-size: 13px;&quot;&gt;PDFUploadController&lt;/font&gt;&lt;/span&gt;&lt;/div&gt;" style="swimlane;childLayout=stackLayout;horizontal=1;startSize=50;horizontalStack=0;rounded=1;fontSize=14;fontStyle=0;strokeWidth=2;resizeParent=0;resizeLast=1;shadow=0;dashed=0;align=center;arcSize=4;whiteSpace=wrap;html=1;labelBackgroundColor=none;" parent="1" vertex="1">
          <mxGeometry x="-2390" y="117.18" width="270" height="192.82" as="geometry" />
        </mxCell>
        <mxCell id="aW1EL9rklJhH-4EWhwkh-21" value="&lt;font style=&quot;font-size: 14px;&quot;&gt;&lt;font&gt;&lt;font&gt;+handleUpload()&lt;/font&gt;&lt;/font&gt;&lt;font&gt;&lt;br&gt;&lt;font&gt;+validateFile()&lt;/font&gt;&lt;/font&gt;&lt;/font&gt;&lt;div&gt;&lt;font&gt;&lt;font style=&quot;font-size: 14px;&quot;&gt;+processExtraction()&lt;/font&gt;&lt;/font&gt;&lt;/div&gt;&lt;div&gt;&lt;font&gt;&lt;font style=&quot;font-size: 14px;&quot;&gt;+suggestGenerationOptions()&lt;br&gt;&lt;/font&gt;&lt;/font&gt;&lt;div&gt;&lt;font style=&quot;font-size: 14px;&quot;&gt;+handleCancel()&lt;/font&gt;&lt;/div&gt;&lt;div&gt;&lt;font style=&quot;font-size: 14px;&quot;&gt;+displayReuploadOption()&lt;/font&gt;&lt;/div&gt;&lt;div&gt;&lt;font style=&quot;font-size: 14px;&quot;&gt;+handleReupload()&lt;/font&gt;&lt;/div&gt;&lt;/div&gt;&lt;div&gt;&lt;font style=&quot;font-size: 14px;&quot;&gt;+handleError()&lt;/font&gt;&lt;/div&gt;" style="align=left;strokeColor=none;fillColor=none;spacingLeft=4;spacingRight=4;fontSize=12;verticalAlign=top;resizable=0;rotatable=0;part=1;html=1;whiteSpace=wrap;labelBackgroundColor=none;strokeWidth=2;" parent="aW1EL9rklJhH-4EWhwkh-20" vertex="1">
          <mxGeometry y="50" width="270" height="142.82" as="geometry" />
        </mxCell>
        <mxCell id="aW1EL9rklJhH-4EWhwkh-94" style="edgeStyle=orthogonalEdgeStyle;rounded=0;orthogonalLoop=1;jettySize=auto;html=1;exitX=1;exitY=0.5;exitDx=0;exitDy=0;entryX=0;entryY=0.5;entryDx=0;entryDy=0;endArrow=none;endFill=0;startFill=0;" parent="1" source="aW1EL9rklJhH-4EWhwkh-7" target="aW1EL9rklJhH-4EWhwkh-10" edge="1">
          <mxGeometry relative="1" as="geometry">
            <mxPoint x="-2460" y="593.2799999999982" as="sourcePoint" />
          </mxGeometry>
        </mxCell>
        <mxCell id="Gpb7fU793gpHVbxL4HnN-2" value="&lt;div style=&quot;text-align: start;&quot;&gt;&lt;span style=&quot;font-size: 12px; font-weight: 400;&quot;&gt;&amp;nbsp; &amp;nbsp; &amp;lt;&amp;lt;boundary&amp;gt;&amp;gt;&lt;/span&gt;&lt;/div&gt;&lt;div style=&quot;text-align: start;&quot;&gt;&lt;span style=&quot;font-weight: 400;&quot;&gt;&lt;font style=&quot;font-size: 14px;&quot;&gt;GenerateQuizPage&lt;/font&gt;&lt;/span&gt;&lt;br&gt;&lt;/div&gt;" style="swimlane;childLayout=stackLayout;horizontal=1;startSize=50;horizontalStack=0;rounded=1;fontSize=14;fontStyle=1;strokeWidth=2;resizeParent=0;resizeLast=1;shadow=0;dashed=0;align=center;arcSize=4;whiteSpace=wrap;html=1;labelBackgroundColor=none;" parent="1" vertex="1">
          <mxGeometry x="-2662.5" y="1498.6" width="330" height="164.06" as="geometry" />
        </mxCell>
        <mxCell id="Gpb7fU793gpHVbxL4HnN-3" value="&lt;div&gt;&lt;div&gt;&lt;font style=&quot;font-size: 14px;&quot;&gt;+selectGenerateQuiz()&lt;/font&gt;&lt;/div&gt;&lt;div&gt;&lt;font style=&quot;font-size: 14px;&quot;&gt;&lt;font&gt;+&lt;font&gt;display&lt;/font&gt;&lt;/font&gt;&lt;font&gt;DiffucultyLevelOptions&lt;/font&gt;()&amp;nbsp;&lt;/font&gt;&lt;/div&gt;&lt;div&gt;&lt;font style=&quot;font-size: 14px;&quot;&gt;+selectDiffucultyLevel()&lt;/font&gt;&lt;/div&gt;&lt;div&gt;&lt;font style=&quot;font-size: 14px;&quot;&gt;+displayErrorMessage()&lt;/font&gt;&lt;/div&gt;&lt;/div&gt;&lt;div&gt;&lt;span style=&quot;font-size: medium;&quot;&gt;&lt;br&gt;&lt;/span&gt;&lt;/div&gt;" style="align=left;strokeColor=none;fillColor=none;spacingLeft=4;spacingRight=4;fontSize=12;verticalAlign=top;resizable=0;rotatable=0;part=1;html=1;whiteSpace=wrap;labelBackgroundColor=none;strokeWidth=2;" parent="Gpb7fU793gpHVbxL4HnN-2" vertex="1">
          <mxGeometry y="50" width="330" height="114.06" as="geometry" />
        </mxCell>
        <mxCell id="Gpb7fU793gpHVbxL4HnN-4" style="edgeStyle=orthogonalEdgeStyle;rounded=0;orthogonalLoop=1;jettySize=auto;html=1;exitX=0.5;exitY=1;exitDx=0;exitDy=0;labelBackgroundColor=none;fontColor=default;strokeWidth=2;" parent="Gpb7fU793gpHVbxL4HnN-2" edge="1">
          <mxGeometry relative="1" as="geometry">
            <mxPoint x="-280" y="818.9" as="sourcePoint" />
            <mxPoint x="-280" y="818.9" as="targetPoint" />
          </mxGeometry>
        </mxCell>
        <mxCell id="Gpb7fU793gpHVbxL4HnN-5" value="&lt;div style=&quot;text-align: start;&quot;&gt;&lt;span style=&quot;font-weight: 400;&quot;&gt;&lt;font style=&quot;font-size: 13px;&quot;&gt;&amp;nbsp; &amp;nbsp; &amp;nbsp; &amp;nbsp;&amp;lt;&amp;lt;controller&amp;gt;&amp;gt;&lt;/font&gt;&lt;/span&gt;&lt;/div&gt;&lt;div style=&quot;text-align: start;&quot;&gt;&lt;span style=&quot;font-weight: 400;&quot;&gt;&lt;font style=&quot;font-size: 14px;&quot;&gt;GenerateQuizController&lt;/font&gt;&lt;/span&gt;&lt;br&gt;&lt;/div&gt;" style="swimlane;childLayout=stackLayout;horizontal=1;startSize=50;horizontalStack=0;rounded=1;fontSize=14;fontStyle=1;strokeWidth=2;resizeParent=0;resizeLast=1;shadow=0;dashed=0;align=center;arcSize=4;whiteSpace=wrap;html=1;labelBackgroundColor=none;" parent="1" vertex="1">
          <mxGeometry x="-2230" y="1508.6" width="240" height="144.06" as="geometry" />
        </mxCell>
        <mxCell id="Gpb7fU793gpHVbxL4HnN-6" value="&lt;div&gt;&lt;font style=&quot;font-size: 14px;&quot;&gt;+requestDifficultyLevel()&lt;/font&gt;&lt;/div&gt;&lt;div&gt;&lt;font style=&quot;font-size: 14px;&quot;&gt;+generateQuiz()&lt;/font&gt;&lt;/div&gt;&lt;div&gt;&lt;font style=&quot;font-size: 14px;&quot;&gt;+handleNoDifficultySelected()&lt;/font&gt;&lt;/div&gt;&lt;div&gt;&lt;font style=&quot;font-size: 14px;&quot;&gt;+&lt;font&gt;handleError&lt;/font&gt;()&lt;/font&gt;&lt;br&gt;&lt;/div&gt;" style="align=left;strokeColor=none;fillColor=none;spacingLeft=4;spacingRight=4;fontSize=12;verticalAlign=top;resizable=0;rotatable=0;part=1;html=1;whiteSpace=wrap;labelBackgroundColor=none;strokeWidth=2;" parent="Gpb7fU793gpHVbxL4HnN-5" vertex="1">
          <mxGeometry y="50" width="240" height="94.06" as="geometry" />
        </mxCell>
        <mxCell id="Gpb7fU793gpHVbxL4HnN-7" style="edgeStyle=orthogonalEdgeStyle;rounded=0;orthogonalLoop=1;jettySize=auto;html=1;exitX=0.5;exitY=1;exitDx=0;exitDy=0;labelBackgroundColor=none;fontColor=default;strokeWidth=2;" parent="Gpb7fU793gpHVbxL4HnN-5" edge="1">
          <mxGeometry relative="1" as="geometry">
            <mxPoint x="-260" y="370.4599999999999" as="sourcePoint" />
            <mxPoint x="-260" y="370.4599999999999" as="targetPoint" />
          </mxGeometry>
        </mxCell>
        <mxCell id="Gpb7fU793gpHVbxL4HnN-15" value="&lt;p style=&quot;margin:0px;margin-top:4px;text-align:center;&quot;&gt;&lt;font&gt;&amp;lt;&amp;lt;Entity&amp;gt;&amp;gt;&lt;/font&gt;&lt;/p&gt;&lt;p style=&quot;margin:0px;margin-top:4px;text-align:center;&quot;&gt;&lt;font style=&quot;font-size: 14px;&quot;&gt;Quiz&lt;/font&gt;&lt;/p&gt;&lt;hr size=&quot;1&quot; style=&quot;border-style:solid;&quot;&gt;&lt;p style=&quot;margin:0px;margin-left:4px;&quot;&gt;&lt;font&gt;&lt;font style=&quot;font-size: 14px;&quot;&gt;-quizQuestions&lt;/font&gt;&lt;/font&gt;&lt;/p&gt;&lt;p style=&quot;margin:0px;margin-left:4px;&quot;&gt;&lt;font&gt;&lt;font style=&quot;font-size: 14px;&quot;&gt;-difficultyLevel&lt;/font&gt;&lt;/font&gt;&lt;/p&gt;&lt;p style=&quot;margin:0px;margin-left:4px;&quot;&gt;&lt;font style=&quot;font-size: 12px;&quot;&gt;&lt;br&gt;&lt;/font&gt;&lt;/p&gt;&lt;hr size=&quot;1&quot; style=&quot;border-style:solid;&quot;&gt;&lt;p style=&quot;margin:0px;margin-left:4px;&quot;&gt;&lt;font style=&quot;font-size: 14px;&quot;&gt;+saveQuizQuestions()&lt;/font&gt;&lt;/p&gt;" style="verticalAlign=top;align=left;overflow=fill;html=1;whiteSpace=wrap;" parent="1" vertex="1">
          <mxGeometry x="-1862.5" y="1507.6599999999999" width="180" height="145" as="geometry" />
        </mxCell>
        <mxCell id="YcRZTLKFpLyIj8hgtfCx-5" value="" style="edgeStyle=orthogonalEdgeStyle;rounded=0;orthogonalLoop=1;jettySize=auto;html=1;endArrow=none;startFill=0;exitX=0.452;exitY=0.038;exitDx=0;exitDy=0;exitPerimeter=0;" parent="1" source="YcRZTLKFpLyIj8hgtfCx-1" target="aW1EL9rklJhH-4EWhwkh-10" edge="1">
          <mxGeometry relative="1" as="geometry">
            <mxPoint x="-2182.5" y="885" as="sourcePoint" />
          </mxGeometry>
        </mxCell>
        <mxCell id="YcRZTLKFpLyIj8hgtfCx-1" value="&lt;span style=&quot;caret-color: rgb(0, 0, 0); color: rgb(0, 0, 0); font-family: Helvetica; font-size: 14px; font-style: normal; font-variant-caps: normal; font-weight: 400; letter-spacing: normal; orphans: auto; text-align: center; text-indent: 0px; text-transform: none; white-space: normal; widows: auto; word-spacing: 0px; -webkit-text-stroke-width: 0px; background-color: rgb(251, 251, 251); text-decoration: none; display: inline !important; float: none;&quot;&gt;&amp;lt;&amp;lt;&lt;span style=&quot;text-align: start; font-size: medium;&quot;&gt;Boundary&lt;/span&gt;&amp;gt;&amp;gt;&lt;/span&gt;&lt;div style=&quot;caret-color: rgb(0, 0, 0); color: rgb(0, 0, 0); font-family: Helvetica; font-size: 14px; font-style: normal; font-variant-caps: normal; font-weight: 400; letter-spacing: normal; orphans: auto; text-align: center; text-indent: 0px; text-transform: none; white-space: normal; widows: auto; word-spacing: 0px; -webkit-text-stroke-width: 0px; text-decoration: none;&quot;&gt;&lt;span style=&quot;text-align: start;&quot;&gt;ResultPage&lt;/span&gt;&lt;/div&gt;" style="swimlane;childLayout=stackLayout;horizontal=1;startSize=50;horizontalStack=0;rounded=1;fontSize=14;fontStyle=1;strokeWidth=2;resizeParent=0;resizeLast=1;shadow=0;dashed=0;align=center;arcSize=4;whiteSpace=wrap;html=1;labelBackgroundColor=none;" parent="1" vertex="1">
          <mxGeometry x="-2342.5" y="820" width="352.5" height="170" as="geometry" />
        </mxCell>
        <mxCell id="YcRZTLKFpLyIj8hgtfCx-2" value="&lt;div&gt;&lt;font style=&quot;font-size: 15px;&quot;&gt;+displayResult()&lt;/font&gt;&lt;/div&gt;&lt;div&gt;&lt;font style=&quot;font-size: 15px;&quot;&gt;+displayStudySessionOption()&lt;br&gt;&lt;/font&gt;&lt;/div&gt;&lt;div&gt;&lt;font style=&quot;font-size: 15px;&quot;&gt;+selectStartStudySession()&lt;/font&gt;&lt;/div&gt;&lt;div&gt;&lt;font style=&quot;font-size: 15px;&quot;&gt;+selectCancelStudySession()&lt;/font&gt;&lt;/div&gt;&lt;div&gt;&lt;font style=&quot;font-size: 15px;&quot;&gt;&lt;font&gt;+&lt;/font&gt;retakeQuiz()&lt;/font&gt;&lt;/div&gt;&lt;div&gt;&lt;div&gt;&lt;div&gt;&lt;font style=&quot;font-size: 15px;&quot;&gt;+displayErrorMessage()&amp;nbsp;&lt;/font&gt;&lt;/div&gt;&lt;div&gt;&lt;br&gt;&lt;/div&gt;&lt;/div&gt;&lt;/div&gt;" style="align=left;strokeColor=none;fillColor=none;spacingLeft=4;spacingRight=4;fontSize=12;verticalAlign=top;resizable=0;rotatable=0;part=1;html=1;whiteSpace=wrap;labelBackgroundColor=none;strokeWidth=2;" parent="YcRZTLKFpLyIj8hgtfCx-1" vertex="1">
          <mxGeometry y="50" width="352.5" height="120" as="geometry" />
        </mxCell>
        <mxCell id="YcRZTLKFpLyIj8hgtfCx-3" style="edgeStyle=orthogonalEdgeStyle;rounded=0;orthogonalLoop=1;jettySize=auto;html=1;exitX=0.5;exitY=1;exitDx=0;exitDy=0;labelBackgroundColor=none;fontColor=default;strokeWidth=2;" parent="YcRZTLKFpLyIj8hgtfCx-1" edge="1">
          <mxGeometry relative="1" as="geometry">
            <mxPoint x="-280" y="818.9" as="sourcePoint" />
            <mxPoint x="-280" y="818.9" as="targetPoint" />
          </mxGeometry>
        </mxCell>
        <mxCell id="l_nzm8aYYMq2d200SgV5-5" style="edgeStyle=orthogonalEdgeStyle;rounded=0;orthogonalLoop=1;jettySize=auto;html=1;entryX=0;entryY=0.5;entryDx=0;entryDy=0;endArrow=none;startFill=0;" parent="1" source="Gpb7fU793gpHVbxL4HnN-3" target="Gpb7fU793gpHVbxL4HnN-6" edge="1">
          <mxGeometry relative="1" as="geometry" />
        </mxCell>
        <mxCell id="l_nzm8aYYMq2d200SgV5-6" style="edgeStyle=orthogonalEdgeStyle;rounded=0;orthogonalLoop=1;jettySize=auto;html=1;exitX=1;exitY=0.5;exitDx=0;exitDy=0;entryX=0.011;entryY=0.674;entryDx=0;entryDy=0;entryPerimeter=0;endArrow=none;startFill=0;" parent="1" source="Gpb7fU793gpHVbxL4HnN-6" target="Gpb7fU793gpHVbxL4HnN-15" edge="1">
          <mxGeometry relative="1" as="geometry" />
        </mxCell>
        <mxCell id="l_nzm8aYYMq2d200SgV5-16" value="&lt;p style=&quot;margin:0px;margin-top:4px;text-align:center;&quot;&gt;&amp;lt;&amp;lt;Entity&amp;gt;&amp;gt;&lt;/p&gt;&lt;p style=&quot;margin:0px;margin-top:4px;text-align:center;&quot;&gt;PdfFile&lt;/p&gt;&lt;hr size=&quot;1&quot; style=&quot;border-style:solid;&quot;&gt;&lt;p style=&quot;margin:0px;margin-left:4px;&quot;&gt;-fileSize&lt;/p&gt;&lt;p style=&quot;margin:0px;margin-left:4px;&quot;&gt;-fileName&lt;/p&gt;&lt;hr size=&quot;1&quot; style=&quot;border-style:solid;&quot;&gt;&lt;p style=&quot;margin:0px;margin-left:4px;&quot;&gt;+saveFileName()&lt;/p&gt;&lt;p style=&quot;margin:0px;margin-left:4px;&quot;&gt;+getFileSize()&lt;/p&gt;" style="verticalAlign=top;align=left;overflow=fill;html=1;whiteSpace=wrap;strokeColor=default;strokeWidth=2;" parent="1" vertex="1">
          <mxGeometry x="-2010" y="147.34" width="225" height="132.5" as="geometry" />
        </mxCell>
        <mxCell id="l_nzm8aYYMq2d200SgV5-18" style="edgeStyle=orthogonalEdgeStyle;rounded=0;orthogonalLoop=1;jettySize=auto;html=1;entryX=0;entryY=0.5;entryDx=0;entryDy=0;endArrow=none;startFill=0;" parent="1" source="aW1EL9rklJhH-4EWhwkh-2" target="aW1EL9rklJhH-4EWhwkh-21" edge="1">
          <mxGeometry relative="1" as="geometry" />
        </mxCell>
        <mxCell id="l_nzm8aYYMq2d200SgV5-19" style="edgeStyle=orthogonalEdgeStyle;rounded=0;orthogonalLoop=1;jettySize=auto;html=1;endArrow=none;startFill=0;entryX=0.004;entryY=0.684;entryDx=0;entryDy=0;entryPerimeter=0;" parent="1" source="aW1EL9rklJhH-4EWhwkh-21" target="l_nzm8aYYMq2d200SgV5-16" edge="1">
          <mxGeometry relative="1" as="geometry">
            <mxPoint x="-2020" y="225" as="targetPoint" />
          </mxGeometry>
        </mxCell>
        <mxCell id="l_nzm8aYYMq2d200SgV5-24" value="" style="rounded=0;whiteSpace=wrap;html=1;strokeColor=#000000;strokeWidth=3;" parent="1" vertex="1">
          <mxGeometry x="-2817.5" y="1820" width="1270" height="510" as="geometry" />
        </mxCell>
        <mxCell id="Gpb7fU793gpHVbxL4HnN-17" value="&lt;div style=&quot;text-align: start;&quot;&gt;&lt;span style=&quot;font-size: 12px; font-weight: 400;&quot;&gt;&amp;lt;&amp;lt;controller&amp;gt;&amp;gt;&lt;/span&gt;&lt;/div&gt;&lt;div style=&quot;text-align: start;&quot;&gt;&lt;span style=&quot;font-size: 12px; font-weight: 400;&quot;&gt;FlashcardController&lt;/span&gt;&lt;/div&gt;" style="swimlane;childLayout=stackLayout;horizontal=1;startSize=50;horizontalStack=0;rounded=1;fontSize=14;fontStyle=1;strokeWidth=2;resizeParent=0;resizeLast=1;shadow=0;dashed=0;align=center;arcSize=4;whiteSpace=wrap;html=1;labelBackgroundColor=none;" parent="1" vertex="1">
          <mxGeometry x="-2302.5" y="1860" width="325" height="190" as="geometry" />
        </mxCell>
        <mxCell id="Gpb7fU793gpHVbxL4HnN-18" value="&lt;div&gt;&lt;div&gt;&lt;font style=&quot;font-size: 15px;&quot;&gt;+generateFlashcards()&lt;/font&gt;&lt;/div&gt;&lt;/div&gt;&lt;div&gt;&lt;font style=&quot;font-size: 15px;&quot;&gt;+recordSwipeAsKnown()&lt;/font&gt;&lt;/div&gt;&lt;div&gt;&lt;font style=&quot;font-size: 15px;&quot;&gt;+recordSwipeAsUnKnown()&lt;/font&gt;&lt;/div&gt;&lt;div&gt;&lt;font style=&quot;font-size: 15px;&quot;&gt;+&lt;/font&gt;&lt;span style=&quot;font-size: medium;&quot;&gt;suggestSaveOptions()&lt;/span&gt;&lt;/div&gt;&lt;div&gt;&lt;span style=&quot;font-size: medium;&quot;&gt;+&lt;/span&gt;&lt;span style=&quot;font-size: medium;&quot;&gt;handleCorruptFile()&lt;/span&gt;&lt;/div&gt;" style="align=left;strokeColor=none;fillColor=none;spacingLeft=4;spacingRight=4;fontSize=12;verticalAlign=top;resizable=0;rotatable=0;part=1;html=1;whiteSpace=wrap;labelBackgroundColor=none;strokeWidth=2;" parent="Gpb7fU793gpHVbxL4HnN-17" vertex="1">
          <mxGeometry y="50" width="325" height="140" as="geometry" />
        </mxCell>
        <mxCell id="Gpb7fU793gpHVbxL4HnN-19" style="edgeStyle=orthogonalEdgeStyle;rounded=0;orthogonalLoop=1;jettySize=auto;html=1;exitX=0.5;exitY=1;exitDx=0;exitDy=0;labelBackgroundColor=none;fontColor=default;strokeWidth=2;" parent="Gpb7fU793gpHVbxL4HnN-17" edge="1">
          <mxGeometry relative="1" as="geometry">
            <mxPoint x="-290" y="580" as="sourcePoint" />
            <mxPoint x="-290" y="580" as="targetPoint" />
          </mxGeometry>
        </mxCell>
        <mxCell id="Gpb7fU793gpHVbxL4HnN-20" value="&lt;p style=&quot;margin:0px;margin-top:4px;text-align:center;&quot;&gt;&lt;font style=&quot;font-size: 15px;&quot;&gt;&amp;lt;&amp;lt;Entity&amp;gt;&amp;gt;&lt;/font&gt;&lt;/p&gt;&lt;p style=&quot;margin:0px;margin-top:4px;text-align:center;&quot;&gt;&lt;font style=&quot;font-size: 15px;&quot;&gt;FlashCardData&lt;/font&gt;&lt;/p&gt;&lt;hr size=&quot;1&quot; style=&quot;border-style:solid;&quot;&gt;&lt;p style=&quot;margin:0px;margin-left:4px;&quot;&gt;&lt;font style=&quot;font-size: 15px;&quot;&gt;&lt;font&gt;-FlashCardQuestions&lt;/font&gt;&lt;/font&gt;&lt;/p&gt;&lt;p style=&quot;margin:0px;margin-left:4px;&quot;&gt;&lt;font style=&quot;font-size: 15px;&quot;&gt;-FlashCardAnswers&lt;/font&gt;&lt;/p&gt;&lt;p style=&quot;margin:0px;margin-left:4px;&quot;&gt;&lt;font style=&quot;font-size: 15px;&quot;&gt;&lt;br&gt;&lt;/font&gt;&lt;/p&gt;&lt;hr size=&quot;1&quot; style=&quot;border-style:solid;&quot;&gt;&lt;p style=&quot;margin:0px;margin-left:4px;&quot;&gt;&lt;span style=&quot;font-size: 15px;&quot;&gt;+&lt;/span&gt;&lt;span style=&quot;font-size: 15px;&quot;&gt;&amp;nbsp;StoreFlashcards()&lt;/span&gt;&lt;/p&gt;&lt;p style=&quot;margin:0px;margin-left:4px;&quot;&gt;&lt;br&gt;&lt;/p&gt;" style="verticalAlign=top;align=left;overflow=fill;html=1;whiteSpace=wrap;" parent="1" vertex="1">
          <mxGeometry x="-1827.5" y="1882.0300000000002" width="180" height="145" as="geometry" />
        </mxCell>
        <mxCell id="Gpb7fU793gpHVbxL4HnN-21" value="&lt;div style=&quot;text-align: start;&quot;&gt;&lt;span style=&quot;font-weight: 400;&quot;&gt;&lt;font style=&quot;font-size: 13px;&quot;&gt;&amp;nbsp; &amp;nbsp; &amp;nbsp; &amp;nbsp; &amp;nbsp;&amp;lt;&amp;lt;boundary&amp;gt;&amp;gt;&lt;/font&gt;&lt;/span&gt;&lt;/div&gt;&lt;div style=&quot;text-align: start;&quot;&gt;&lt;span style=&quot;font-weight: 400;&quot;&gt;&lt;font style=&quot;font-size: 13px;&quot;&gt;FlashcardSelectionScreen&lt;/font&gt;&lt;/span&gt;&lt;br&gt;&lt;/div&gt;" style="swimlane;childLayout=stackLayout;horizontal=1;startSize=50;horizontalStack=0;rounded=1;fontSize=14;fontStyle=1;strokeWidth=2;resizeParent=0;resizeLast=1;shadow=0;dashed=0;align=center;arcSize=4;whiteSpace=wrap;html=1;labelBackgroundColor=none;" parent="1" vertex="1">
          <mxGeometry x="-2777.5" y="1872.9699999999998" width="330" height="164.06" as="geometry" />
        </mxCell>
        <mxCell id="Gpb7fU793gpHVbxL4HnN-23" style="edgeStyle=orthogonalEdgeStyle;rounded=0;orthogonalLoop=1;jettySize=auto;html=1;exitX=0.5;exitY=1;exitDx=0;exitDy=0;labelBackgroundColor=none;fontColor=default;strokeWidth=2;" parent="Gpb7fU793gpHVbxL4HnN-21" edge="1">
          <mxGeometry relative="1" as="geometry">
            <mxPoint x="-280" y="818.9" as="sourcePoint" />
            <mxPoint x="-280" y="818.9" as="targetPoint" />
          </mxGeometry>
        </mxCell>
        <mxCell id="Gpb7fU793gpHVbxL4HnN-22" value="&lt;div&gt;&lt;div&gt;&lt;font style=&quot;font-size: 15px;&quot;&gt;+selectViewFlashCard()&lt;/font&gt;&lt;/div&gt;&lt;div&gt;&lt;div&gt;&lt;font style=&quot;font-size: 15px;&quot;&gt;+displayError()&lt;/font&gt;&lt;/div&gt;&lt;/div&gt;&lt;/div&gt;&lt;div&gt;&lt;font style=&quot;font-size: 15px;&quot;&gt;&lt;br&gt;&lt;/font&gt;&lt;/div&gt;&lt;div&gt;&lt;span style=&quot;font-size: medium;&quot;&gt;&lt;br&gt;&lt;/span&gt;&lt;/div&gt;" style="align=left;strokeColor=none;fillColor=none;spacingLeft=4;spacingRight=4;fontSize=12;verticalAlign=top;resizable=0;rotatable=0;part=1;html=1;whiteSpace=wrap;labelBackgroundColor=none;strokeWidth=2;" parent="Gpb7fU793gpHVbxL4HnN-21" vertex="1">
          <mxGeometry y="50" width="330" height="114.06" as="geometry" />
        </mxCell>
        <mxCell id="7PfSHkGLMOXSiiOGqfEs-8" value="&lt;div style=&quot;text-align: start;&quot;&gt;&lt;span style=&quot;font-size: 12px; font-weight: 400;&quot;&gt;&amp;lt;&amp;lt;boundary&amp;gt;&amp;gt;&lt;/span&gt;&lt;/div&gt;&lt;div style=&quot;text-align: start;&quot;&gt;&lt;span style=&quot;font-size: 12px; font-weight: 400;&quot;&gt;FlashCardPage&lt;/span&gt;&lt;/div&gt;" style="swimlane;childLayout=stackLayout;horizontal=1;startSize=50;horizontalStack=0;rounded=1;fontSize=14;fontStyle=1;strokeWidth=2;resizeParent=0;resizeLast=1;shadow=0;dashed=0;align=center;arcSize=4;whiteSpace=wrap;html=1;labelBackgroundColor=none;" parent="1" vertex="1">
          <mxGeometry x="-2303.75" y="2140" width="327.5" height="170" as="geometry" />
        </mxCell>
        <mxCell id="7PfSHkGLMOXSiiOGqfEs-9" value="&lt;div&gt;&lt;div&gt;&lt;span style=&quot;font-size: 15px;&quot;&gt;+displayFlashCard()&lt;/span&gt;&lt;br&gt;&lt;/div&gt;&lt;div&gt;&lt;div&gt;&lt;span style=&quot;font-size: 15px;&quot;&gt;+captureSwipeAction()&lt;/span&gt;&lt;br&gt;&lt;/div&gt;&lt;/div&gt;&lt;/div&gt;&lt;div&gt;&lt;span style=&quot;font-size: 15px;&quot;&gt;+&lt;/span&gt;&lt;span style=&quot;font-size: medium;&quot;&gt;displaySaveOption()&lt;/span&gt;&lt;/div&gt;&lt;div&gt;&lt;div&gt;&lt;span style=&quot;font-size: 15px;&quot;&gt;+selectSaveFlashcards()&lt;/span&gt;&lt;br&gt;&lt;/div&gt;&lt;/div&gt;&lt;div&gt;&lt;font style=&quot;font-size: 15px;&quot;&gt;+selectD&lt;font&gt;iscardFlashcards&lt;/font&gt;()&lt;/font&gt;&lt;/div&gt;&lt;div&gt;&lt;font style=&quot;font-size: 15px;&quot;&gt;+&lt;/font&gt;&lt;span style=&quot;font-size: 15px;&quot;&gt;displayErrorMessage()&lt;/span&gt;&lt;/div&gt;" style="align=left;strokeColor=none;fillColor=none;spacingLeft=4;spacingRight=4;fontSize=12;verticalAlign=top;resizable=0;rotatable=0;part=1;html=1;whiteSpace=wrap;labelBackgroundColor=none;strokeWidth=2;" parent="7PfSHkGLMOXSiiOGqfEs-8" vertex="1">
          <mxGeometry y="50" width="327.5" height="120" as="geometry" />
        </mxCell>
        <mxCell id="7PfSHkGLMOXSiiOGqfEs-10" style="edgeStyle=orthogonalEdgeStyle;rounded=0;orthogonalLoop=1;jettySize=auto;html=1;exitX=0.5;exitY=1;exitDx=0;exitDy=0;labelBackgroundColor=none;fontColor=default;strokeWidth=2;" parent="7PfSHkGLMOXSiiOGqfEs-8" edge="1">
          <mxGeometry relative="1" as="geometry">
            <mxPoint x="-290" y="580" as="sourcePoint" />
            <mxPoint x="-290" y="580" as="targetPoint" />
          </mxGeometry>
        </mxCell>
        <mxCell id="7PfSHkGLMOXSiiOGqfEs-11" style="edgeStyle=orthogonalEdgeStyle;rounded=0;orthogonalLoop=1;jettySize=auto;html=1;entryX=0;entryY=0.5;entryDx=0;entryDy=0;endArrow=none;startFill=0;" parent="1" source="Gpb7fU793gpHVbxL4HnN-22" target="Gpb7fU793gpHVbxL4HnN-18" edge="1">
          <mxGeometry relative="1" as="geometry" />
        </mxCell>
        <mxCell id="7PfSHkGLMOXSiiOGqfEs-12" style="edgeStyle=orthogonalEdgeStyle;rounded=0;orthogonalLoop=1;jettySize=auto;html=1;entryX=0.011;entryY=0.673;entryDx=0;entryDy=0;entryPerimeter=0;endArrow=none;startFill=0;" parent="1" source="Gpb7fU793gpHVbxL4HnN-18" target="Gpb7fU793gpHVbxL4HnN-20" edge="1">
          <mxGeometry relative="1" as="geometry" />
        </mxCell>
        <mxCell id="7PfSHkGLMOXSiiOGqfEs-13" style="edgeStyle=orthogonalEdgeStyle;rounded=0;orthogonalLoop=1;jettySize=auto;html=1;entryX=0.5;entryY=0;entryDx=0;entryDy=0;endArrow=none;startFill=0;" parent="1" source="Gpb7fU793gpHVbxL4HnN-18" target="7PfSHkGLMOXSiiOGqfEs-8" edge="1">
          <mxGeometry relative="1" as="geometry" />
        </mxCell>
        <mxCell id="l_nzm8aYYMq2d200SgV5-25" value="" style="rounded=0;whiteSpace=wrap;html=1;strokeColor=#000000;strokeWidth=3;" parent="1" vertex="1">
          <mxGeometry x="-2832.5" y="2440" width="1270" height="361.1" as="geometry" />
        </mxCell>
        <mxCell id="Gpb7fU793gpHVbxL4HnN-27" value="&lt;div style=&quot;text-align: start;&quot;&gt;&lt;span style=&quot;font-size: 12px; font-weight: 400;&quot;&gt;&amp;nbsp; &amp;nbsp; &amp;nbsp;&amp;lt;&amp;lt;controller&amp;gt;&amp;gt;&lt;/span&gt;&lt;/div&gt;&lt;div style=&quot;text-align: start;&quot;&gt;&lt;font style=&quot;font-weight: normal; font-size: 13px;&quot;&gt;StudyPlanController&lt;/font&gt;&lt;br&gt;&lt;/div&gt;" style="swimlane;childLayout=stackLayout;horizontal=1;startSize=50;horizontalStack=0;rounded=1;fontSize=14;fontStyle=1;strokeWidth=2;resizeParent=0;resizeLast=1;shadow=0;dashed=0;align=center;arcSize=4;whiteSpace=wrap;html=1;labelBackgroundColor=none;" parent="1" vertex="1">
          <mxGeometry x="-2347.5" y="2516.9100000000003" width="370" height="175.49" as="geometry" />
        </mxCell>
        <mxCell id="Gpb7fU793gpHVbxL4HnN-28" value="&lt;div&gt;&lt;div&gt;&lt;font style=&quot;font-size: 14px;&quot;&gt;+requestTaskInput()&lt;/font&gt;&lt;br&gt;&lt;/div&gt;&lt;/div&gt;&lt;div&gt;&lt;font style=&quot;font-size: 14px;&quot;&gt;+validateTaskDetails()&lt;/font&gt;&lt;/div&gt;&lt;div&gt;&lt;font style=&quot;font-size: 14px;&quot;&gt;+prioritizeTasks()&lt;/font&gt;&lt;/div&gt;&lt;div&gt;&lt;font style=&quot;font-size: 14px;&quot;&gt;+generateStudyPlan()&lt;/font&gt;&lt;/div&gt;&lt;div&gt;&lt;font style=&quot;font-size: 14px;&quot;&gt;+handleIncompleteDetails()&lt;/font&gt;&lt;/div&gt;&lt;div&gt;&lt;font style=&quot;font-size: 14px;&quot;&gt;+handleError()&lt;/font&gt;&lt;/div&gt;" style="align=left;strokeColor=none;fillColor=none;spacingLeft=4;spacingRight=4;fontSize=12;verticalAlign=top;resizable=0;rotatable=0;part=1;html=1;whiteSpace=wrap;labelBackgroundColor=none;strokeWidth=2;" parent="Gpb7fU793gpHVbxL4HnN-27" vertex="1">
          <mxGeometry y="50" width="370" height="125.49000000000001" as="geometry" />
        </mxCell>
        <mxCell id="Gpb7fU793gpHVbxL4HnN-29" style="edgeStyle=orthogonalEdgeStyle;rounded=0;orthogonalLoop=1;jettySize=auto;html=1;exitX=0.5;exitY=1;exitDx=0;exitDy=0;labelBackgroundColor=none;fontColor=default;strokeWidth=2;" parent="Gpb7fU793gpHVbxL4HnN-27" edge="1">
          <mxGeometry relative="1" as="geometry">
            <mxPoint x="-320" y="1325.3" as="sourcePoint" />
            <mxPoint x="-320" y="1325.3" as="targetPoint" />
          </mxGeometry>
        </mxCell>
        <mxCell id="Gpb7fU793gpHVbxL4HnN-30" value="&lt;p style=&quot;margin:0px;margin-top:4px;text-align:center;&quot;&gt;&lt;font style=&quot;font-size: 15px;&quot;&gt;&amp;lt;&amp;lt;Entity&amp;gt;&amp;gt;&lt;/font&gt;&lt;/p&gt;&lt;p style=&quot;margin:0px;margin-top:4px;text-align:center;&quot;&gt;&lt;font style=&quot;font-size: 15px;&quot;&gt;StudyPlan&lt;/font&gt;&lt;/p&gt;&lt;hr size=&quot;1&quot; style=&quot;border-style:solid;&quot;&gt;&lt;p style=&quot;margin:0px;margin-left:4px;&quot;&gt;&lt;font style=&quot;font-size: 14px;&quot;&gt;-studyPlanTitle&lt;br&gt;&lt;/font&gt;&lt;/p&gt;&lt;p style=&quot;margin:0px;margin-left:4px;&quot;&gt;&lt;font style=&quot;font-size: 14px;&quot;&gt;-taskTitle&lt;/font&gt;&lt;/p&gt;&lt;p style=&quot;margin:0px;margin-left:4px;&quot;&gt;&lt;font style=&quot;font-size: 14px;&quot;&gt;ـ taskDeadline&lt;/font&gt;&lt;/p&gt;&lt;p style=&quot;margin:0px;margin-left:4px;&quot;&gt;&lt;font style=&quot;font-size: 14px;&quot;&gt;-taskPriorities&lt;/font&gt;&lt;/p&gt;&lt;hr size=&quot;1&quot; style=&quot;border-style:solid;&quot;&gt;&lt;p style=&quot;margin:0px;margin-left:4px;&quot;&gt;&lt;font style=&quot;font-size: 14px;&quot;&gt;+getStudyPlan()&lt;/font&gt;&lt;/p&gt;&lt;p style=&quot;margin:0px;margin-left:4px;&quot;&gt;&lt;font style=&quot;font-size: 14px;&quot;&gt;+saveStudyPlan()&lt;/font&gt;&lt;/p&gt;&lt;p style=&quot;margin:0px;margin-left:4px;&quot;&gt;&lt;font style=&quot;font-size: 14px;&quot;&gt;+saveTasks()&lt;/font&gt;&lt;/p&gt;&lt;p style=&quot;margin:0px;margin-left:4px;&quot;&gt;&lt;font style=&quot;font-size: 14px;&quot;&gt;+getTaskDetails()&lt;/font&gt;&lt;br&gt;&lt;/p&gt;" style="verticalAlign=top;align=left;overflow=fill;html=1;whiteSpace=wrap;" parent="1" vertex="1">
          <mxGeometry x="-1785" y="2480" width="185" height="240" as="geometry" />
        </mxCell>
        <mxCell id="Gpb7fU793gpHVbxL4HnN-31" value="&lt;div style=&quot;text-align: start;&quot;&gt;&lt;span style=&quot;font-weight: 400;&quot;&gt;&lt;font style=&quot;font-size: 13px;&quot;&gt;&amp;nbsp; &amp;nbsp;&amp;lt;&amp;lt;boundary&amp;gt;&amp;gt;&lt;/font&gt;&lt;/span&gt;&lt;/div&gt;&lt;div style=&quot;text-align: start;&quot;&gt;&lt;span style=&quot;font-weight: 400;&quot;&gt;&lt;font style=&quot;font-size: 15px;&quot;&gt;StudyPlanPage&lt;/font&gt;&lt;/span&gt;&lt;br&gt;&lt;/div&gt;" style="swimlane;childLayout=stackLayout;horizontal=1;startSize=50;horizontalStack=0;rounded=1;fontSize=14;fontStyle=1;strokeWidth=2;resizeParent=0;resizeLast=1;shadow=0;dashed=0;align=center;arcSize=4;whiteSpace=wrap;html=1;labelBackgroundColor=none;" parent="1" vertex="1">
          <mxGeometry x="-2810" y="2519.31" width="327.5" height="170.69" as="geometry" />
        </mxCell>
        <mxCell id="Gpb7fU793gpHVbxL4HnN-32" value="&lt;div&gt;&lt;div&gt;&lt;font style=&quot;font-size: 14px;&quot;&gt;&lt;font&gt;+&lt;/font&gt;selectGetStudyPlan()&lt;/font&gt;&lt;/div&gt;&lt;div&gt;&lt;font style=&quot;font-size: 15px;&quot;&gt;+displayTaskForm()&lt;/font&gt;&lt;/div&gt;&lt;/div&gt;&lt;div&gt;&lt;font style=&quot;font-size: 15px;&quot;&gt;+submitTaskDetails()&lt;/font&gt;&lt;/div&gt;&lt;div&gt;&lt;span style=&quot;font-size: 15px;&quot;&gt;+&lt;/span&gt;displayStudyPlan&lt;span style=&quot;font-size: 15px;&quot;&gt;()&lt;/span&gt;&lt;/div&gt;&lt;div&gt;&lt;font style=&quot;font-size: 15px;&quot;&gt;+displayErrorMessage()&lt;/font&gt;&lt;/div&gt;" style="align=left;strokeColor=none;fillColor=none;spacingLeft=4;spacingRight=4;fontSize=12;verticalAlign=top;resizable=0;rotatable=0;part=1;html=1;whiteSpace=wrap;labelBackgroundColor=none;strokeWidth=2;" parent="Gpb7fU793gpHVbxL4HnN-31" vertex="1">
          <mxGeometry y="50" width="327.5" height="120.69" as="geometry" />
        </mxCell>
        <mxCell id="7PfSHkGLMOXSiiOGqfEs-48" style="edgeStyle=orthogonalEdgeStyle;rounded=0;orthogonalLoop=1;jettySize=auto;html=1;entryX=1;entryY=0.5;entryDx=0;entryDy=0;endArrow=none;startFill=0;" parent="1" source="Gpb7fU793gpHVbxL4HnN-28" target="Gpb7fU793gpHVbxL4HnN-32" edge="1">
          <mxGeometry relative="1" as="geometry" />
        </mxCell>
        <mxCell id="l_nzm8aYYMq2d200SgV5-26" value="" style="rounded=0;whiteSpace=wrap;html=1;strokeColor=#000000;strokeWidth=3;" parent="1" vertex="1">
          <mxGeometry x="-2822.5" y="3825" width="1160" height="260" as="geometry" />
        </mxCell>
        <mxCell id="7PfSHkGLMOXSiiOGqfEs-52" value="&lt;div style=&quot;text-align: start;&quot;&gt;&lt;span style=&quot;font-weight: 400;&quot;&gt;&lt;font style=&quot;font-size: 13px;&quot;&gt;&amp;nbsp; &amp;nbsp;&amp;lt;&amp;lt;boundary&amp;gt;&amp;gt;&lt;/font&gt;&lt;/span&gt;&lt;/div&gt;&lt;div style=&quot;text-align: start;&quot;&gt;&lt;span style=&quot;font-weight: normal;&quot;&gt;ProgressPage&lt;/span&gt;&lt;br&gt;&lt;/div&gt;" style="swimlane;childLayout=stackLayout;horizontal=1;startSize=50;horizontalStack=0;rounded=1;fontSize=14;fontStyle=1;strokeWidth=2;resizeParent=0;resizeLast=1;shadow=0;dashed=0;align=center;arcSize=4;whiteSpace=wrap;html=1;labelBackgroundColor=none;" parent="1" vertex="1">
          <mxGeometry x="-2797.5" y="3874.01" width="310" height="153.02" as="geometry" />
        </mxCell>
        <mxCell id="7PfSHkGLMOXSiiOGqfEs-53" value="&lt;div&gt;&lt;div&gt;&lt;font style=&quot;font-size: 14px;&quot;&gt;+selectTrackProgress()&lt;/font&gt;&lt;/div&gt;&lt;/div&gt;&lt;div&gt;&lt;font style=&quot;font-size: 14px;&quot;&gt;+displayProgressData()&lt;/font&gt;&lt;/div&gt;&lt;div&gt;&lt;font&gt;+&lt;font style=&quot;font-size: 14px;&quot;&gt;showErrorMessage&lt;/font&gt;()&lt;/font&gt;&lt;/div&gt;&lt;div&gt;+&lt;font style=&quot;font-size: 14px;&quot;&gt;showNoProgressMessage&lt;/font&gt;()&lt;/div&gt;&lt;div&gt;&lt;br&gt;&lt;/div&gt;" style="align=left;strokeColor=none;fillColor=none;spacingLeft=4;spacingRight=4;fontSize=12;verticalAlign=top;resizable=0;rotatable=0;part=1;html=1;whiteSpace=wrap;labelBackgroundColor=none;strokeWidth=2;" parent="7PfSHkGLMOXSiiOGqfEs-52" vertex="1">
          <mxGeometry y="50" width="310" height="103.02000000000001" as="geometry" />
        </mxCell>
        <mxCell id="7PfSHkGLMOXSiiOGqfEs-65" style="edgeStyle=orthogonalEdgeStyle;rounded=0;orthogonalLoop=1;jettySize=auto;html=1;exitX=0.5;exitY=1;exitDx=0;exitDy=0;" parent="7PfSHkGLMOXSiiOGqfEs-52" source="7PfSHkGLMOXSiiOGqfEs-53" target="7PfSHkGLMOXSiiOGqfEs-53" edge="1">
          <mxGeometry relative="1" as="geometry" />
        </mxCell>
        <mxCell id="7PfSHkGLMOXSiiOGqfEs-54" style="edgeStyle=orthogonalEdgeStyle;rounded=0;orthogonalLoop=1;jettySize=auto;html=1;exitX=0.5;exitY=1;exitDx=0;exitDy=0;labelBackgroundColor=none;fontColor=default;strokeWidth=2;" parent="7PfSHkGLMOXSiiOGqfEs-52" edge="1">
          <mxGeometry relative="1" as="geometry">
            <mxPoint x="-280" y="1005" as="sourcePoint" />
            <mxPoint x="-280" y="1005" as="targetPoint" />
          </mxGeometry>
        </mxCell>
        <mxCell id="7PfSHkGLMOXSiiOGqfEs-58" value="&lt;div style=&quot;text-align: start;&quot;&gt;&lt;span style=&quot;font-size: 12px; font-weight: 400;&quot;&gt;&amp;nbsp; &amp;nbsp; &amp;nbsp;&amp;lt;&amp;lt;controller&amp;gt;&amp;gt;&lt;/span&gt;&lt;/div&gt;&lt;div style=&quot;text-align: start;&quot;&gt;&lt;span style=&quot;font-weight: 400;&quot;&gt;&lt;font&gt;ProgressController&lt;/font&gt;&lt;/span&gt;&lt;br&gt;&lt;/div&gt;" style="swimlane;childLayout=stackLayout;horizontal=1;startSize=50;horizontalStack=0;rounded=1;fontSize=14;fontStyle=1;strokeWidth=2;resizeParent=0;resizeLast=1;shadow=0;dashed=0;align=center;arcSize=4;whiteSpace=wrap;html=1;labelBackgroundColor=none;" parent="1" vertex="1">
          <mxGeometry x="-2372.5" y="3880.5200000000004" width="290" height="140" as="geometry" />
        </mxCell>
        <mxCell id="7PfSHkGLMOXSiiOGqfEs-59" value="&lt;div&gt;&lt;div&gt;&lt;font style=&quot;font-size: 14px;&quot;&gt;+getProgressData()&lt;/font&gt;&lt;/div&gt;&lt;/div&gt;&lt;div&gt;&lt;font style=&quot;font-size: 12px;&quot;&gt;+&lt;/font&gt;&lt;font style=&quot;font-size: 14px;&quot;&gt;calculateDailyProgress&lt;/font&gt;&lt;font style=&quot;font-size: 12px;&quot;&gt;()&lt;/font&gt;&lt;/div&gt;&lt;div&gt;&lt;font style=&quot;font-size: 14px;&quot;&gt;+handleNoProgressData()&lt;/font&gt;&lt;/div&gt;&lt;div&gt;&lt;font style=&quot;font-size: 14px;&quot;&gt;+&lt;font&gt;handleError&lt;/font&gt;()&lt;/font&gt;&lt;/div&gt;" style="align=left;strokeColor=none;fillColor=none;spacingLeft=4;spacingRight=4;fontSize=12;verticalAlign=top;resizable=0;rotatable=0;part=1;html=1;whiteSpace=wrap;labelBackgroundColor=none;strokeWidth=2;" parent="7PfSHkGLMOXSiiOGqfEs-58" vertex="1">
          <mxGeometry y="50" width="290" height="90" as="geometry" />
        </mxCell>
        <mxCell id="7PfSHkGLMOXSiiOGqfEs-60" style="edgeStyle=orthogonalEdgeStyle;rounded=0;orthogonalLoop=1;jettySize=auto;html=1;exitX=0.5;exitY=1;exitDx=0;exitDy=0;labelBackgroundColor=none;fontColor=default;strokeWidth=2;" parent="7PfSHkGLMOXSiiOGqfEs-58" edge="1">
          <mxGeometry relative="1" as="geometry">
            <mxPoint x="-281.87" y="1186.4" as="sourcePoint" />
            <mxPoint x="-281.87" y="1186.4" as="targetPoint" />
          </mxGeometry>
        </mxCell>
        <mxCell id="7PfSHkGLMOXSiiOGqfEs-61" value="&lt;p style=&quot;margin:0px;margin-top:4px;text-align:center;&quot;&gt;&lt;font style=&quot;font-size: 15px;&quot;&gt;&amp;lt;&amp;lt;Entity&amp;gt;&amp;gt;&lt;/font&gt;&lt;/p&gt;&lt;p style=&quot;margin:0px;margin-top:4px;text-align:center;&quot;&gt;&lt;font style=&quot;font-size: 15px;&quot;&gt;ProgressData&lt;/font&gt;&lt;/p&gt;&lt;hr size=&quot;1&quot; style=&quot;border-style:solid;&quot;&gt;&lt;p style=&quot;margin:0px;margin-left:4px;&quot;&gt;&lt;font style=&quot;font-size: 14px;&quot;&gt;-quizResults&lt;br&gt;&lt;/font&gt;&lt;/p&gt;&lt;p style=&quot;margin:0px;margin-left:4px;&quot;&gt;&lt;font style=&quot;font-size: 14px;&quot;&gt;ـ completedTasks&lt;/font&gt;&lt;/p&gt;&lt;p style=&quot;margin:0px;margin-left:4px;&quot;&gt;&lt;font style=&quot;font-size: 14px;&quot;&gt;-completedSessions&lt;/font&gt;&lt;/p&gt;&lt;p style=&quot;margin:0px;margin-left:4px;&quot;&gt;&lt;font style=&quot;font-size: 14px;&quot;&gt;-lastUpdated&lt;/font&gt;&lt;/p&gt;&lt;hr size=&quot;1&quot; style=&quot;border-style:solid;&quot;&gt;&lt;p style=&quot;margin:0px;margin-left:4px;&quot;&gt;+&lt;font style=&quot;font-size: 14px;&quot;&gt;getQuizResults&lt;/font&gt;()&lt;br&gt;&lt;/p&gt;&lt;p style=&quot;margin:0px;margin-left:4px;&quot;&gt;+&lt;font style=&quot;font-size: 14px;&quot;&gt;getCompletedTasks&lt;/font&gt;()&lt;/p&gt;&lt;p style=&quot;margin:0px;margin-left:4px;&quot;&gt;+&lt;font style=&quot;font-size: 14px;&quot;&gt;getCompletedSessions&lt;/font&gt;()&lt;/p&gt;&lt;p style=&quot;margin:0px;margin-left:4px;&quot;&gt;+&lt;font style=&quot;font-size: 14px;&quot;&gt;saveProgressData&lt;/font&gt;()&lt;/p&gt;" style="verticalAlign=top;align=left;overflow=fill;html=1;whiteSpace=wrap;" parent="1" vertex="1">
          <mxGeometry x="-1965" y="3850.78" width="275" height="199.48" as="geometry" />
        </mxCell>
        <mxCell id="l_nzm8aYYMq2d200SgV5-28" style="edgeStyle=orthogonalEdgeStyle;rounded=0;orthogonalLoop=1;jettySize=auto;html=1;entryX=0;entryY=0.5;entryDx=0;entryDy=0;endArrow=none;startFill=0;" parent="1" source="7PfSHkGLMOXSiiOGqfEs-53" target="7PfSHkGLMOXSiiOGqfEs-59" edge="1">
          <mxGeometry relative="1" as="geometry" />
        </mxCell>
        <mxCell id="l_nzm8aYYMq2d200SgV5-29" style="edgeStyle=orthogonalEdgeStyle;rounded=0;orthogonalLoop=1;jettySize=auto;html=1;entryX=0.014;entryY=0.627;entryDx=0;entryDy=0;entryPerimeter=0;endArrow=none;startFill=0;" parent="1" source="7PfSHkGLMOXSiiOGqfEs-59" target="7PfSHkGLMOXSiiOGqfEs-61" edge="1">
          <mxGeometry relative="1" as="geometry" />
        </mxCell>
        <mxCell id="l_nzm8aYYMq2d200SgV5-30" value="" style="rounded=0;whiteSpace=wrap;html=1;strokeColor=#000000;strokeWidth=3;" parent="1" vertex="1">
          <mxGeometry x="-2822.5" y="4116.1" width="1210" height="290" as="geometry" />
        </mxCell>
        <mxCell id="7PfSHkGLMOXSiiOGqfEs-66" style="edgeStyle=orthogonalEdgeStyle;rounded=0;orthogonalLoop=1;jettySize=auto;html=1;exitX=0.5;exitY=1;exitDx=0;exitDy=0;labelBackgroundColor=none;fontColor=default;strokeWidth=2;" parent="1" edge="1">
          <mxGeometry relative="1" as="geometry">
            <mxPoint x="-2623.75" y="4350.54" as="sourcePoint" />
            <mxPoint x="-2623.75" y="4350.54" as="targetPoint" />
          </mxGeometry>
        </mxCell>
        <mxCell id="7PfSHkGLMOXSiiOGqfEs-67" style="edgeStyle=orthogonalEdgeStyle;rounded=0;orthogonalLoop=1;jettySize=auto;html=1;exitX=0.5;exitY=1;exitDx=0;exitDy=0;" parent="1" edge="1">
          <mxGeometry relative="1" as="geometry">
            <mxPoint x="-2643.75" y="4293.14" as="sourcePoint" />
            <mxPoint x="-2643.75" y="4293.14" as="targetPoint" />
          </mxGeometry>
        </mxCell>
        <mxCell id="7PfSHkGLMOXSiiOGqfEs-68" value="&lt;div style=&quot;text-align: start;&quot;&gt;&lt;span style=&quot;font-size: 12px; font-weight: 400;&quot;&gt;&amp;nbsp; &amp;nbsp; &amp;nbsp; &amp;nbsp; &amp;nbsp; &amp;nbsp;&amp;lt;&amp;lt;controller&amp;gt;&amp;gt;&lt;/span&gt;&lt;/div&gt;&lt;div style=&quot;text-align: start;&quot;&gt;&lt;span style=&quot;font-weight: normal;&quot;&gt;StudySessionController&lt;/span&gt;&lt;br&gt;&lt;/div&gt;" style="swimlane;childLayout=stackLayout;horizontal=1;startSize=50;horizontalStack=0;rounded=1;fontSize=14;fontStyle=1;strokeWidth=2;resizeParent=0;resizeLast=1;shadow=0;dashed=0;align=center;arcSize=4;whiteSpace=wrap;html=1;labelBackgroundColor=none;" parent="1" vertex="1">
          <mxGeometry x="-2345" y="4139.55" width="315" height="243.62" as="geometry" />
        </mxCell>
        <mxCell id="7PfSHkGLMOXSiiOGqfEs-70" style="edgeStyle=orthogonalEdgeStyle;rounded=0;orthogonalLoop=1;jettySize=auto;html=1;exitX=0.5;exitY=1;exitDx=0;exitDy=0;labelBackgroundColor=none;fontColor=default;strokeWidth=2;" parent="7PfSHkGLMOXSiiOGqfEs-68" edge="1">
          <mxGeometry relative="1" as="geometry">
            <mxPoint x="-280" y="818.9" as="sourcePoint" />
            <mxPoint x="-280" y="818.9" as="targetPoint" />
          </mxGeometry>
        </mxCell>
        <mxCell id="7PfSHkGLMOXSiiOGqfEs-69" value="&lt;div&gt;&lt;div&gt;&lt;div&gt;+initializeSessionName()&lt;/div&gt;&lt;div&gt;&lt;/div&gt;&lt;/div&gt;&lt;div&gt;+initializeSession()&lt;/div&gt;&lt;/div&gt;&lt;div&gt;+renameSession()&lt;br&gt;&lt;/div&gt;&lt;div&gt;+&lt;font&gt;updateStudyDuration&lt;/font&gt;()&lt;/div&gt;&lt;div&gt;+updateBreakDuration()&lt;/div&gt;&lt;div&gt;+startSessionTimer()&lt;br&gt;&lt;/div&gt;&lt;div&gt;+pauseSession()&lt;/div&gt;&lt;div&gt;&lt;font&gt;+resumeSession()&lt;/font&gt;&lt;/div&gt;&lt;div&gt;+endSession()&lt;/div&gt;&lt;div&gt;+&lt;font&gt;notifyEndOfStudySession()&lt;/font&gt;&lt;/div&gt;&lt;div&gt;&lt;font&gt;+&lt;/font&gt;notifyEndOfBreak()&lt;/div&gt;&lt;div&gt;+recordCompletedSession()&lt;/div&gt;&lt;div&gt;+&lt;font&gt;handleError&lt;/font&gt;()&lt;/div&gt;" style="align=left;strokeColor=none;fillColor=none;spacingLeft=4;spacingRight=4;fontSize=12;verticalAlign=top;resizable=0;rotatable=0;part=1;html=1;whiteSpace=wrap;labelBackgroundColor=none;strokeWidth=2;" parent="7PfSHkGLMOXSiiOGqfEs-68" vertex="1">
          <mxGeometry y="50" width="315" height="193.62" as="geometry" />
        </mxCell>
        <mxCell id="7PfSHkGLMOXSiiOGqfEs-71" value="&lt;p style=&quot;margin:0px;margin-top:4px;text-align:center;&quot;&gt;&lt;font style=&quot;font-size: 15px;&quot;&gt;&amp;lt;&amp;lt;Entity&amp;gt;&amp;gt;&lt;/font&gt;&lt;/p&gt;&lt;p style=&quot;margin:0px;margin-top:4px;text-align:center;&quot;&gt;&lt;span style=&quot;text-align: start; font-size: medium;&quot;&gt;StudySessionData&lt;/span&gt;&lt;br&gt;&lt;/p&gt;&lt;hr size=&quot;1&quot; style=&quot;border-style:solid;&quot;&gt;&lt;p style=&quot;margin:0px;margin-left:4px;&quot;&gt;-sessionName&lt;br&gt;&lt;/p&gt;&lt;p style=&quot;margin:0px;margin-left:4px;&quot;&gt;ـ studyDuration&lt;/p&gt;&lt;p style=&quot;margin:0px;margin-left:4px;&quot;&gt;-breakDuration&lt;/p&gt;&lt;p style=&quot;margin:0px;margin-left:4px;&quot;&gt;-sessionStatus&lt;/p&gt;&lt;p style=&quot;margin:0px;margin-left:4px;&quot;&gt;-startTime&lt;/p&gt;&lt;p style=&quot;margin:0px;margin-left:4px;&quot;&gt;-endTime&lt;/p&gt;&lt;hr size=&quot;1&quot; style=&quot;border-style:solid;&quot;&gt;&lt;p style=&quot;margin:0px;margin-left:4px;&quot;&gt;+saveSessionsData()&lt;/p&gt;&lt;p style=&quot;margin:0px;margin-left:4px;&quot;&gt;+&lt;font style=&quot;font-size: 13px;&quot;&gt;getSessionDetails&lt;/font&gt;()&lt;/p&gt;&lt;p style=&quot;margin:0px;margin-left:4px;&quot;&gt;&lt;br&gt;&lt;/p&gt;" style="verticalAlign=top;align=left;overflow=fill;html=1;whiteSpace=wrap;" parent="1" vertex="1">
          <mxGeometry x="-1923.75" y="4162.330000000001" width="270" height="202.03" as="geometry" />
        </mxCell>
        <mxCell id="7PfSHkGLMOXSiiOGqfEs-74" value="&lt;div style=&quot;text-align: start;&quot;&gt;&lt;span style=&quot;font-weight: 400;&quot;&gt;&lt;font style=&quot;font-size: 13px;&quot;&gt;&amp;nbsp; &amp;nbsp;&amp;lt;&amp;lt;boundary&amp;gt;&amp;gt;&lt;/font&gt;&lt;/span&gt;&lt;/div&gt;&lt;div style=&quot;text-align: start;&quot;&gt;&lt;span style=&quot;font-weight: normal;&quot;&gt;StudySessionPage&lt;/span&gt;&lt;br&gt;&lt;/div&gt;" style="swimlane;childLayout=stackLayout;horizontal=1;startSize=50;horizontalStack=0;rounded=1;fontSize=14;fontStyle=1;strokeWidth=2;resizeParent=0;resizeLast=1;shadow=0;dashed=0;align=center;arcSize=4;whiteSpace=wrap;html=1;labelBackgroundColor=none;" parent="1" vertex="1">
          <mxGeometry x="-2788.75" y="4131.610000000001" width="336.25" height="259.49" as="geometry" />
        </mxCell>
        <mxCell id="7PfSHkGLMOXSiiOGqfEs-76" style="edgeStyle=orthogonalEdgeStyle;rounded=0;orthogonalLoop=1;jettySize=auto;html=1;exitX=0.5;exitY=1;exitDx=0;exitDy=0;labelBackgroundColor=none;fontColor=default;strokeWidth=2;" parent="7PfSHkGLMOXSiiOGqfEs-74" edge="1">
          <mxGeometry relative="1" as="geometry">
            <mxPoint x="-280" y="818.9" as="sourcePoint" />
            <mxPoint x="-280" y="818.9" as="targetPoint" />
          </mxGeometry>
        </mxCell>
        <mxCell id="7PfSHkGLMOXSiiOGqfEs-75" value="&lt;div&gt;&lt;div&gt;&lt;font style=&quot;font-size: 13px;&quot;&gt;+selectStartSession()&lt;/font&gt;&lt;/div&gt;&lt;/div&gt;&lt;div&gt;&lt;font style=&quot;font-size: 13px;&quot;&gt;&lt;font&gt;+&lt;/font&gt;displaySessionName()&lt;/font&gt;&lt;/div&gt;&lt;div&gt;&lt;font style=&quot;font-size: 13px;&quot;&gt;&lt;div&gt;+renameSession()&lt;/div&gt;&lt;/font&gt;&lt;/div&gt;&lt;div&gt;&lt;font style=&quot;font-size: 13px;&quot;&gt;+modifyStudyDuration()&lt;/font&gt;&lt;/div&gt;&lt;div&gt;&lt;font style=&quot;font-size: 13px;&quot;&gt;+modifyBreakDuration()&lt;/font&gt;&lt;/div&gt;&lt;div&gt;&lt;font style=&quot;font-size: 13px;&quot;&gt;+startTimer()&lt;/font&gt;&lt;/div&gt;&lt;div&gt;&lt;font style=&quot;font-size: 13px;&quot;&gt;+pauseTimer()&lt;/font&gt;&lt;/div&gt;&lt;div&gt;&lt;font style=&quot;font-size: 13px;&quot;&gt;+resumeTimer()&lt;/font&gt;&lt;/div&gt;&lt;div&gt;&lt;font style=&quot;font-size: 13px;&quot;&gt;+endSession()&lt;/font&gt;&lt;/div&gt;&lt;div&gt;&lt;font style=&quot;font-size: 13px;&quot;&gt;+&lt;font&gt;displayTimerStatus&lt;/font&gt;()&lt;/font&gt;&lt;/div&gt;&lt;div&gt;&lt;font style=&quot;font-size: 13px;&quot;&gt;+displayStudyEndNotification()&lt;/font&gt;&lt;/div&gt;&lt;div&gt;&lt;font style=&quot;font-size: 13px;&quot;&gt;+displayBreakEndNotification()&lt;/font&gt;&lt;/div&gt;&lt;div&gt;&lt;font style=&quot;font-size: 13px;&quot;&gt;&lt;font&gt;+&lt;/font&gt;&lt;font&gt;displayErrorMessage&lt;/font&gt;&lt;font&gt;()&lt;/font&gt;&lt;/font&gt;&lt;/div&gt;&lt;div&gt;&lt;br&gt;&lt;/div&gt;" style="align=left;strokeColor=none;fillColor=none;spacingLeft=4;spacingRight=4;fontSize=12;verticalAlign=top;resizable=0;rotatable=0;part=1;html=1;whiteSpace=wrap;labelBackgroundColor=none;strokeWidth=2;" parent="7PfSHkGLMOXSiiOGqfEs-74" vertex="1">
          <mxGeometry y="50" width="336.25" height="209.49" as="geometry" />
        </mxCell>
        <mxCell id="l_nzm8aYYMq2d200SgV5-13" style="edgeStyle=orthogonalEdgeStyle;rounded=0;orthogonalLoop=1;jettySize=auto;html=1;entryX=1;entryY=0.5;entryDx=0;entryDy=0;endArrow=none;startFill=0;" parent="1" source="7PfSHkGLMOXSiiOGqfEs-69" target="7PfSHkGLMOXSiiOGqfEs-75" edge="1">
          <mxGeometry relative="1" as="geometry" />
        </mxCell>
        <mxCell id="l_nzm8aYYMq2d200SgV5-31" value="" style="rounded=0;whiteSpace=wrap;html=1;strokeColor=#000000;strokeWidth=3;" parent="1" vertex="1">
          <mxGeometry x="-2765.62" y="4750" width="1100" height="290" as="geometry" />
        </mxCell>
        <mxCell id="7PfSHkGLMOXSiiOGqfEs-88" value="&lt;span style=&quot;font-size: 14px; font-weight: 400;&quot;&gt;&amp;lt;&amp;lt;Entity&amp;gt;&amp;gt;&lt;/span&gt;&lt;div style=&quot;font-size: 14px; font-weight: 400;&quot;&gt;&lt;span style=&quot;text-align: start; font-size: medium;&quot;&gt;ChatSession&lt;/span&gt;&lt;br&gt;&lt;/div&gt;" style="swimlane;fontStyle=1;align=center;verticalAlign=top;childLayout=stackLayout;horizontal=1;startSize=40;horizontalStack=0;resizeParent=1;resizeParentMax=0;resizeLast=0;collapsible=1;marginBottom=0;whiteSpace=wrap;html=1;strokeWidth=2;" parent="1" vertex="1">
          <mxGeometry x="-1920.62" y="4790" width="220" height="170" as="geometry" />
        </mxCell>
        <mxCell id="7PfSHkGLMOXSiiOGqfEs-89" value="&lt;div&gt;-&lt;span style=&quot;font-size: medium;&quot;&gt;messages&lt;/span&gt;&lt;/div&gt;&lt;div&gt;&lt;span style=&quot;font-size: medium;&quot;&gt;-&lt;/span&gt;&lt;span style=&quot;font-size: medium;&quot;&gt;startTime&lt;/span&gt;&lt;/div&gt;&lt;div&gt;&lt;span style=&quot;font-size: medium;&quot;&gt;-&lt;/span&gt;&lt;span style=&quot;font-size: medium;&quot;&gt;endTime&lt;/span&gt;&lt;/div&gt;&lt;div&gt;&lt;span style=&quot;font-size: medium;&quot;&gt;-&amp;nbsp;&lt;/span&gt;&lt;/div&gt;" style="text;strokeColor=none;fillColor=none;align=left;verticalAlign=top;spacingLeft=4;spacingRight=4;overflow=hidden;rotatable=0;points=[[0,0.5],[1,0.5]];portConstraint=eastwest;whiteSpace=wrap;html=1;strokeWidth=2;" parent="7PfSHkGLMOXSiiOGqfEs-88" vertex="1">
          <mxGeometry y="40" width="220" height="70" as="geometry" />
        </mxCell>
        <mxCell id="7PfSHkGLMOXSiiOGqfEs-90" value="" style="line;strokeWidth=2;fillColor=none;align=left;verticalAlign=middle;spacingTop=-1;spacingLeft=3;spacingRight=3;rotatable=0;labelPosition=right;points=[];portConstraint=eastwest;strokeColor=inherit;" parent="7PfSHkGLMOXSiiOGqfEs-88" vertex="1">
          <mxGeometry y="110" width="220" height="10" as="geometry" />
        </mxCell>
        <mxCell id="7PfSHkGLMOXSiiOGqfEs-91" value="&lt;span style=&quot;font-size: 14px;&quot;&gt;+&lt;/span&gt;&lt;span style=&quot;font-size: medium;&quot;&gt;saveUserMessage&lt;/span&gt;&lt;span style=&quot;font-size: 14px;&quot;&gt;()&lt;/span&gt;&lt;div&gt;&lt;span style=&quot;font-size: 14px;&quot;&gt;+&lt;/span&gt;&lt;span style=&quot;font-size: medium;&quot;&gt;saveChatbotResponse()&lt;/span&gt;&lt;/div&gt;" style="text;strokeColor=none;fillColor=none;align=left;verticalAlign=top;spacingLeft=4;spacingRight=4;overflow=hidden;rotatable=0;points=[[0,0.5],[1,0.5]];portConstraint=eastwest;whiteSpace=wrap;html=1;strokeWidth=2;" parent="7PfSHkGLMOXSiiOGqfEs-88" vertex="1">
          <mxGeometry y="120" width="220" height="50" as="geometry" />
        </mxCell>
        <mxCell id="7PfSHkGLMOXSiiOGqfEs-92" value="&amp;lt;&amp;lt;Controller&amp;gt;&amp;gt;&lt;div&gt;&lt;span style=&quot;text-align: start; font-size: medium;&quot;&gt;ChatController&lt;/span&gt;&lt;br&gt;&lt;/div&gt;" style="swimlane;childLayout=stackLayout;horizontal=1;startSize=50;horizontalStack=0;rounded=1;fontSize=14;fontStyle=0;strokeWidth=2;resizeParent=0;resizeLast=1;shadow=0;dashed=0;align=center;arcSize=4;whiteSpace=wrap;html=1;labelBackgroundColor=none;" parent="1" vertex="1">
          <mxGeometry x="-2305.62" y="4805" width="270" height="165.63" as="geometry" />
        </mxCell>
        <mxCell id="7PfSHkGLMOXSiiOGqfEs-93" value="&lt;font style=&quot;font-size: 15px;&quot;&gt;&lt;font&gt;&lt;font&gt;+initiateChatSession()&lt;/font&gt;&lt;/font&gt;&lt;font&gt;&lt;br&gt;&lt;font&gt;+handleUserQuery()&lt;/font&gt;&lt;/font&gt;&lt;/font&gt;&lt;div&gt;&lt;div&gt;&lt;font style=&quot;font-size: 15px;&quot;&gt;+endChatSession()&lt;/font&gt;&lt;/div&gt;&lt;div&gt;&lt;font style=&quot;font-size: 15px;&quot;&gt;+&lt;span style=&quot;font-size: medium;&quot;&gt;handleSessionTimeout&lt;/span&gt;()&lt;/font&gt;&lt;/div&gt;&lt;/div&gt;&lt;div&gt;&lt;font style=&quot;font-size: 15px;&quot;&gt;+handleError()&lt;/font&gt;&lt;/div&gt;" style="align=left;strokeColor=none;fillColor=none;spacingLeft=4;spacingRight=4;fontSize=12;verticalAlign=top;resizable=0;rotatable=0;part=1;html=1;whiteSpace=wrap;labelBackgroundColor=none;strokeWidth=2;" parent="7PfSHkGLMOXSiiOGqfEs-92" vertex="1">
          <mxGeometry y="50" width="270" height="115.63" as="geometry" />
        </mxCell>
        <mxCell id="7PfSHkGLMOXSiiOGqfEs-94" style="edgeStyle=orthogonalEdgeStyle;rounded=0;orthogonalLoop=1;jettySize=auto;html=1;exitX=1;exitY=0.5;exitDx=0;exitDy=0;endArrow=none;startFill=0;entryX=-0.005;entryY=0.037;entryDx=0;entryDy=0;entryPerimeter=0;" parent="1" source="7PfSHkGLMOXSiiOGqfEs-93" target="7PfSHkGLMOXSiiOGqfEs-91" edge="1">
          <mxGeometry relative="1" as="geometry">
            <mxPoint x="-1920.62" y="4910" as="targetPoint" />
          </mxGeometry>
        </mxCell>
        <mxCell id="7PfSHkGLMOXSiiOGqfEs-95" style="edgeStyle=orthogonalEdgeStyle;rounded=0;orthogonalLoop=1;jettySize=auto;html=1;exitX=1;exitY=0.5;exitDx=0;exitDy=0;entryX=0.004;entryY=0.428;entryDx=0;entryDy=0;entryPerimeter=0;endArrow=none;endFill=1;startFill=0;" parent="1" target="7PfSHkGLMOXSiiOGqfEs-93" edge="1">
          <mxGeometry relative="1" as="geometry">
            <mxPoint x="-2441.62" y="4905" as="sourcePoint" />
          </mxGeometry>
        </mxCell>
        <mxCell id="l_nzm8aYYMq2d200SgV5-47" style="edgeStyle=orthogonalEdgeStyle;rounded=0;orthogonalLoop=1;jettySize=auto;html=1;endArrow=none;startFill=0;" parent="1" source="7PfSHkGLMOXSiiOGqfEs-69" edge="1">
          <mxGeometry relative="1" as="geometry">
            <mxPoint x="-1921.5" y="4286.1" as="targetPoint" />
          </mxGeometry>
        </mxCell>
        <mxCell id="e97BGwkFNDs-uIjw_oxN-2" value="&amp;lt;&amp;lt;Boundary&amp;gt;&amp;gt;&lt;div&gt;&lt;span style=&quot;text-align: start; font-size: medium;&quot;&gt;ChatPage&lt;/span&gt;&lt;br&gt;&lt;/div&gt;" style="swimlane;childLayout=stackLayout;horizontal=1;startSize=50;horizontalStack=0;rounded=1;fontSize=14;fontStyle=0;strokeWidth=2;resizeParent=0;resizeLast=1;shadow=0;align=center;arcSize=4;whiteSpace=wrap;html=1;labelBackgroundColor=none;" parent="1" vertex="1">
          <mxGeometry x="-2702.49" y="4805" width="258.75" height="185" as="geometry" />
        </mxCell>
        <mxCell id="e97BGwkFNDs-uIjw_oxN-3" value="&lt;font style=&quot;font-size: 15px;&quot;&gt;+startChat()&lt;/font&gt;&lt;div&gt;&lt;span style=&quot;font-size: 15px;&quot;&gt;+&lt;/span&gt;&lt;span style=&quot;font-size: medium;&quot;&gt;displayWelcomeMessage()&lt;/span&gt;&lt;span style=&quot;font-size: 15px;&quot;&gt;&lt;br&gt;&lt;/span&gt;&lt;div&gt;&lt;font style=&quot;font-size: 15px;&quot;&gt;+sendMessage()&lt;br&gt;&lt;font&gt;+&lt;/font&gt;&lt;font&gt;receiveResponse()&lt;/font&gt;&lt;/font&gt;&lt;/div&gt;&lt;div&gt;&lt;font style=&quot;font-size: 14px;&quot;&gt;+displayChatHistory()&lt;br&gt;&lt;/font&gt;&lt;div&gt;&lt;font style=&quot;font-size: 15px;&quot;&gt;+endChatSession()&lt;/font&gt;&lt;/div&gt;&lt;div&gt;&lt;font style=&quot;font-size: 15px;&quot;&gt;&lt;font&gt;+&lt;/font&gt;displayErrorMessage()&lt;/font&gt;&lt;/div&gt;&lt;div&gt;&lt;font style=&quot;font-size: 15px;&quot;&gt;&lt;br&gt;&lt;/font&gt;&lt;/div&gt;&lt;div&gt;&lt;font style=&quot;font-size: 15px;&quot;&gt;&lt;br&gt;&lt;/font&gt;&lt;/div&gt;&lt;div&gt;&lt;font style=&quot;font-size: 15px;&quot;&gt;&lt;br&gt;&lt;/font&gt;&lt;/div&gt;&lt;div&gt;&lt;font&gt;&lt;code data-end=&quot;361&quot; data-start=&quot;347&quot;&gt;&lt;font style=&quot;font-size: 15px;&quot; face=&quot;Verdana&quot;&gt;&lt;br&gt;&lt;/font&gt;&lt;/code&gt;&lt;/font&gt;&lt;/div&gt;&lt;div&gt;&lt;font style=&quot;font-size: 16px;&quot;&gt;&lt;code data-end=&quot;361&quot; data-start=&quot;347&quot;&gt;&lt;br&gt;&lt;/code&gt;&lt;/font&gt;&lt;/div&gt;&lt;/div&gt;&lt;/div&gt;" style="align=left;strokeColor=none;fillColor=none;spacingLeft=4;spacingRight=4;fontSize=12;verticalAlign=top;resizable=0;rotatable=0;part=1;html=1;whiteSpace=wrap;labelBackgroundColor=none;strokeWidth=2;" parent="e97BGwkFNDs-uIjw_oxN-2" vertex="1">
          <mxGeometry y="50" width="258.75" height="135" as="geometry" />
        </mxCell>
        <mxCell id="MUg-7y1NcIkwLTcKEQ0Q-1" style="edgeStyle=orthogonalEdgeStyle;rounded=0;orthogonalLoop=1;jettySize=auto;html=1;exitX=0.5;exitY=1;exitDx=0;exitDy=0;labelBackgroundColor=none;fontColor=default;strokeWidth=2;" parent="1" edge="1">
          <mxGeometry relative="1" as="geometry">
            <mxPoint x="-2600" y="2870" as="sourcePoint" />
            <mxPoint x="-2600" y="2870" as="targetPoint" />
          </mxGeometry>
        </mxCell>
        <mxCell id="MUg-7y1NcIkwLTcKEQ0Q-2" style="edgeStyle=orthogonalEdgeStyle;rounded=0;orthogonalLoop=1;jettySize=auto;html=1;exitX=0.5;exitY=1;exitDx=0;exitDy=0;labelBackgroundColor=none;fontColor=default;strokeWidth=2;" parent="1" edge="1">
          <mxGeometry relative="1" as="geometry">
            <mxPoint x="-2601.25" y="3150" as="sourcePoint" />
            <mxPoint x="-2601.25" y="3150" as="targetPoint" />
          </mxGeometry>
        </mxCell>
        <mxCell id="MUg-7y1NcIkwLTcKEQ0Q-3" value="&lt;div style=&quot;text-align: left;&quot;&gt;&lt;div&gt;&lt;br&gt;&lt;/div&gt;&lt;/div&gt;" style="rounded=0;whiteSpace=wrap;html=1;strokeColor=#000000;strokeWidth=3;" parent="1" vertex="1">
          <mxGeometry x="-2840" y="2830" width="1150" height="440" as="geometry" />
        </mxCell>
        <mxCell id="MUg-7y1NcIkwLTcKEQ0Q-7" value="&lt;p style=&quot;margin:0px;margin-top:4px;text-align:center;&quot;&gt;&lt;font style=&quot;font-size: 14px;&quot;&gt;&amp;lt;&amp;lt;Entity&amp;gt;&amp;gt;&lt;/font&gt;&lt;/p&gt;&lt;p style=&quot;margin:0px;margin-top:4px;text-align:center;&quot;&gt;&lt;font style=&quot;font-size: 14px;&quot;&gt;StudyPlan&lt;/font&gt;&lt;/p&gt;&lt;hr size=&quot;1&quot; style=&quot;border-style:solid;&quot;&gt;&lt;p style=&quot;margin:0px;margin-left:4px;&quot;&gt;&lt;span style=&quot;font-size: 14.000001px;&quot;&gt;-studyPlans()&lt;/span&gt;&lt;/p&gt;&lt;hr size=&quot;1&quot; style=&quot;border-style:solid;&quot;&gt;&lt;p style=&quot;margin:0px;margin-left:4px;&quot;&gt;&lt;font style=&quot;font-size: 15px;&quot;&gt;+&lt;/font&gt;&lt;font style=&quot;font-size: 14px;&quot;&gt;getAllStudyPlans()&lt;/font&gt;&lt;/p&gt;&lt;p style=&quot;margin:0px;margin-left:4px;&quot;&gt;&lt;br&gt;&lt;/p&gt;" style="verticalAlign=top;align=left;overflow=fill;html=1;whiteSpace=wrap;" parent="1" vertex="1">
          <mxGeometry x="-1887.5" y="2879.9999999999995" width="157.5" height="136.94" as="geometry" />
        </mxCell>
        <mxCell id="MUg-7y1NcIkwLTcKEQ0Q-8" value="&lt;div style=&quot;&quot;&gt;&lt;span style=&quot;font-weight: 400;&quot;&gt;&lt;font style=&quot;font-size: 14px;&quot;&gt;&amp;lt;&amp;lt;boundary&amp;gt;&amp;gt;&lt;/font&gt;&lt;/span&gt;&lt;/div&gt;&lt;div style=&quot;&quot;&gt;&lt;span style=&quot;font-size: medium; font-weight: 400;&quot;&gt;&amp;nbsp;HomePage&lt;/span&gt;&lt;/div&gt;" style="swimlane;childLayout=stackLayout;horizontal=1;startSize=50;horizontalStack=0;rounded=1;fontSize=14;fontStyle=1;strokeWidth=2;resizeParent=0;resizeLast=1;shadow=0;dashed=0;align=center;arcSize=4;whiteSpace=wrap;html=1;labelBackgroundColor=none;" parent="1" vertex="1">
          <mxGeometry x="-2790" y="2860" width="330" height="150.69" as="geometry" />
        </mxCell>
        <mxCell id="MUg-7y1NcIkwLTcKEQ0Q-9" value="&lt;div&gt;&lt;div&gt;&lt;font style=&quot;font-size: 14px;&quot;&gt;&lt;font&gt;+&lt;/font&gt;selectViewStudyPlans()&lt;/font&gt;&lt;/div&gt;&lt;div&gt;&lt;br&gt;&lt;/div&gt;&lt;/div&gt;&lt;div&gt;&lt;br&gt;&lt;/div&gt;" style="align=left;strokeColor=none;fillColor=none;spacingLeft=4;spacingRight=4;fontSize=12;verticalAlign=top;resizable=0;rotatable=0;part=1;html=1;whiteSpace=wrap;labelBackgroundColor=none;strokeWidth=2;" parent="MUg-7y1NcIkwLTcKEQ0Q-8" vertex="1">
          <mxGeometry y="50" width="330" height="100.69" as="geometry" />
        </mxCell>
        <mxCell id="MUg-7y1NcIkwLTcKEQ0Q-12" style="edgeStyle=orthogonalEdgeStyle;rounded=0;orthogonalLoop=1;jettySize=auto;html=1;entryX=0.006;entryY=0.627;entryDx=0;entryDy=0;entryPerimeter=0;" parent="1" source="Gpb7fU793gpHVbxL4HnN-28" target="Gpb7fU793gpHVbxL4HnN-30" edge="1">
          <mxGeometry relative="1" as="geometry" />
        </mxCell>
        <mxCell id="MUg-7y1NcIkwLTcKEQ0Q-16" value="&lt;div style=&quot;&quot;&gt;&lt;span style=&quot;font-weight: 400;&quot;&gt;&lt;font style=&quot;font-size: 14px;&quot;&gt;&amp;lt;&amp;lt;controller&amp;gt;&amp;gt;&lt;/font&gt;&lt;/span&gt;&lt;/div&gt;&lt;div style=&quot;&quot;&gt;&lt;span style=&quot;font-weight: 400; font-size: medium;&quot;&gt;StudyPlanVieweController&lt;/span&gt;&lt;br&gt;&lt;/div&gt;" style="swimlane;childLayout=stackLayout;horizontal=1;startSize=50;horizontalStack=0;rounded=1;fontSize=14;fontStyle=1;strokeWidth=2;resizeParent=0;resizeLast=1;shadow=0;dashed=0;align=center;arcSize=4;whiteSpace=wrap;html=1;labelBackgroundColor=none;" parent="1" vertex="1">
          <mxGeometry x="-2368.12" y="2870" width="305" height="145" as="geometry" />
        </mxCell>
        <mxCell id="MUg-7y1NcIkwLTcKEQ0Q-23" value="&lt;div&gt;&lt;div&gt;&lt;span style=&quot;font-size: 15px;&quot;&gt;+&lt;/span&gt;&lt;font style=&quot;font-size: 14px;&quot;&gt;getAllStudyPlans&lt;/font&gt;&lt;font style=&quot;font-size: 15px;&quot;&gt;()&lt;/font&gt;&lt;/div&gt;&lt;/div&gt;&lt;div&gt;&lt;span style=&quot;font-size: 15px;&quot;&gt;+&lt;/span&gt;&lt;font style=&quot;font-size: 14px;&quot;&gt;handleEmptyStudyPlans()&lt;/font&gt;&lt;/div&gt;&lt;div&gt;&lt;font style=&quot;font-size: 14px;&quot;&gt;+handleError()&lt;/font&gt;&lt;/div&gt;" style="align=left;strokeColor=none;fillColor=none;spacingLeft=4;spacingRight=4;fontSize=12;verticalAlign=top;resizable=0;rotatable=0;part=1;html=1;whiteSpace=wrap;labelBackgroundColor=none;strokeWidth=2;" parent="MUg-7y1NcIkwLTcKEQ0Q-16" vertex="1">
          <mxGeometry y="50" width="305" height="95" as="geometry" />
        </mxCell>
        <mxCell id="MUg-7y1NcIkwLTcKEQ0Q-18" style="edgeStyle=orthogonalEdgeStyle;rounded=0;orthogonalLoop=1;jettySize=auto;html=1;exitX=0.5;exitY=1;exitDx=0;exitDy=0;labelBackgroundColor=none;fontColor=default;strokeWidth=2;" parent="MUg-7y1NcIkwLTcKEQ0Q-16" edge="1">
          <mxGeometry relative="1" as="geometry">
            <mxPoint x="-312.5" y="1141.3999999999999" as="sourcePoint" />
            <mxPoint x="-312.5" y="1141.3999999999999" as="targetPoint" />
          </mxGeometry>
        </mxCell>
        <mxCell id="MUg-7y1NcIkwLTcKEQ0Q-28" style="edgeStyle=orthogonalEdgeStyle;rounded=0;orthogonalLoop=1;jettySize=auto;html=1;exitX=0.5;exitY=1;exitDx=0;exitDy=0;labelBackgroundColor=none;fontColor=default;strokeWidth=2;" parent="1" edge="1">
          <mxGeometry relative="1" as="geometry">
            <mxPoint x="-2672.5" y="3300" as="sourcePoint" />
            <mxPoint x="-2672.5" y="3300" as="targetPoint" />
          </mxGeometry>
        </mxCell>
        <mxCell id="MUg-7y1NcIkwLTcKEQ0Q-29" style="edgeStyle=orthogonalEdgeStyle;rounded=0;orthogonalLoop=1;jettySize=auto;html=1;exitX=0.5;exitY=1;exitDx=0;exitDy=0;labelBackgroundColor=none;fontColor=default;strokeWidth=2;" parent="1" edge="1">
          <mxGeometry relative="1" as="geometry">
            <mxPoint x="-2673.75" y="3580" as="sourcePoint" />
            <mxPoint x="-2673.75" y="3580" as="targetPoint" />
          </mxGeometry>
        </mxCell>
        <mxCell id="MUg-7y1NcIkwLTcKEQ0Q-30" value="" style="rounded=0;whiteSpace=wrap;html=1;strokeColor=#000000;strokeWidth=3;" parent="1" vertex="1">
          <mxGeometry x="-2912.5" y="3290" width="1272.5" height="520" as="geometry" />
        </mxCell>
        <mxCell id="MUg-7y1NcIkwLTcKEQ0Q-31" value="&lt;div style=&quot;text-align: start;&quot;&gt;&lt;span style=&quot;font-size: 12px; font-weight: 400;&quot;&gt;&amp;nbsp; &amp;nbsp; &amp;nbsp;&amp;lt;&amp;lt;controller&amp;gt;&amp;gt;&lt;/span&gt;&lt;/div&gt;&lt;div style=&quot;text-align: start;&quot;&gt;&lt;font style=&quot;font-weight: normal; font-size: 13px;&quot;&gt;StudyPlanController&lt;/font&gt;&lt;br&gt;&lt;/div&gt;" style="swimlane;childLayout=stackLayout;horizontal=1;startSize=50;horizontalStack=0;rounded=1;fontSize=14;fontStyle=1;strokeWidth=2;resizeParent=0;resizeLast=1;shadow=0;dashed=0;align=center;arcSize=4;whiteSpace=wrap;html=1;labelBackgroundColor=none;" parent="1" vertex="1">
          <mxGeometry x="-2392.5" y="3321.2999999999997" width="367.5" height="188.09" as="geometry" />
        </mxCell>
        <mxCell id="MUg-7y1NcIkwLTcKEQ0Q-32" value="&lt;div&gt;&lt;div&gt;&lt;span style=&quot;font-size: 15px;&quot;&gt;+&lt;/span&gt;&lt;font style=&quot;font-size: 14px;&quot;&gt;getStudyPlan&lt;/font&gt;&lt;span style=&quot;font-size: 15px;&quot;&gt;()&lt;/span&gt;&lt;br&gt;&lt;/div&gt;&lt;/div&gt;&lt;div&gt;&lt;font style=&quot;font-size: 14px;&quot;&gt;+addTaskToPlan()&lt;/font&gt;&lt;/div&gt;&lt;div&gt;&lt;font style=&quot;font-size: 15px;&quot;&gt;+&lt;/font&gt;&lt;font style=&quot;font-size: 14px;&quot;&gt;updateTasksPlan&lt;/font&gt;&lt;font style=&quot;font-size: 15px;&quot;&gt;()&lt;/font&gt;&lt;/div&gt;&lt;div&gt;&lt;span style=&quot;font-size: 15px;&quot;&gt;+&lt;/span&gt;&lt;font style=&quot;font-size: 14px;&quot;&gt;deleteTaskFromPlan&lt;/font&gt;()&lt;/div&gt;&lt;div&gt;+&lt;font style=&quot;font-size: 14px;&quot;&gt;removeCheckedTask&lt;/font&gt;()&lt;/div&gt;&lt;div&gt;+&lt;font style=&quot;font-size: 14px;&quot;&gt;handleEmptyUpdateInput&lt;/font&gt;()&lt;/div&gt;&lt;div&gt;+&lt;font style=&quot;font-size: 14px;&quot;&gt;handleError&lt;/font&gt;&lt;span style=&quot;font-size: medium;&quot;&gt;()&lt;/span&gt;&lt;/div&gt;" style="align=left;strokeColor=none;fillColor=none;spacingLeft=4;spacingRight=4;fontSize=12;verticalAlign=top;resizable=0;rotatable=0;part=1;html=1;whiteSpace=wrap;labelBackgroundColor=none;strokeWidth=2;" parent="MUg-7y1NcIkwLTcKEQ0Q-31" vertex="1">
          <mxGeometry y="50" width="367.5" height="138.09" as="geometry" />
        </mxCell>
        <mxCell id="MUg-7y1NcIkwLTcKEQ0Q-33" style="edgeStyle=orthogonalEdgeStyle;rounded=0;orthogonalLoop=1;jettySize=auto;html=1;exitX=0.5;exitY=1;exitDx=0;exitDy=0;labelBackgroundColor=none;fontColor=default;strokeWidth=2;" parent="MUg-7y1NcIkwLTcKEQ0Q-31" edge="1">
          <mxGeometry relative="1" as="geometry">
            <mxPoint x="-363.12" y="1540.3" as="sourcePoint" />
            <mxPoint x="-363.12" y="1540.3" as="targetPoint" />
          </mxGeometry>
        </mxCell>
        <mxCell id="MUg-7y1NcIkwLTcKEQ0Q-34" value="&lt;p style=&quot;margin:0px;margin-top:4px;text-align:center;&quot;&gt;&lt;font style=&quot;font-size: 15px;&quot;&gt;&amp;lt;&amp;lt;Entity&amp;gt;&amp;gt;&lt;/font&gt;&lt;/p&gt;&lt;p style=&quot;margin:0px;margin-top:4px;text-align:center;&quot;&gt;&lt;font style=&quot;font-size: 15px;&quot;&gt;StudyPlan&lt;/font&gt;&lt;/p&gt;&lt;hr size=&quot;1&quot; style=&quot;border-style:solid;&quot;&gt;&lt;p style=&quot;margin:0px;margin-left:4px;&quot;&gt;&lt;font style=&quot;font-size: 14px;&quot;&gt;-studyPlanTitle&lt;br&gt;&lt;/font&gt;&lt;/p&gt;&lt;p style=&quot;margin:0px;margin-left:4px;&quot;&gt;&lt;font style=&quot;font-size: 14px;&quot;&gt;-taskTitle&lt;/font&gt;&lt;/p&gt;&lt;p style=&quot;margin:0px;margin-left:4px;&quot;&gt;&lt;font style=&quot;font-size: 14px;&quot;&gt;ـ taskDeadline&lt;/font&gt;&lt;/p&gt;&lt;p style=&quot;margin:0px;margin-left:4px;&quot;&gt;&lt;font style=&quot;font-size: 14px;&quot;&gt;-taskPriorities&lt;/font&gt;&lt;/p&gt;&lt;p style=&quot;margin:0px;margin-left:4px;&quot;&gt;&lt;span style=&quot;font-size: 14px;&quot;&gt;-lastUpdated&lt;/span&gt;&lt;/p&gt;&lt;hr size=&quot;1&quot; style=&quot;border-style:solid;&quot;&gt;&lt;p style=&quot;margin:0px;margin-left:4px;&quot;&gt;&lt;font style=&quot;font-size: 15px;&quot;&gt;+getStudyPlan()&lt;/font&gt;&lt;/p&gt;&lt;p style=&quot;margin:0px;margin-left:4px;&quot;&gt;&lt;font style=&quot;font-size: 15px;&quot;&gt;+&lt;/font&gt;&lt;span style=&quot;font-size: 15px;&quot;&gt;getTaskDetails()&lt;/span&gt;&lt;/p&gt;&lt;p style=&quot;margin: 0px 0px 0px 4px;&quot;&gt;&lt;font style=&quot;font-size: 15px;&quot;&gt;+updateTask()&lt;/font&gt;&lt;/p&gt;&lt;p style=&quot;margin:0px;margin-left:4px;&quot;&gt;&lt;font style=&quot;font-size: 15px;&quot;&gt;&lt;/font&gt;&lt;/p&gt;&lt;p style=&quot;margin: 0px 0px 0px 4px;&quot;&gt;&lt;font style=&quot;font-size: 15px;&quot;&gt;+saveTask()&lt;/font&gt;&lt;/p&gt;&lt;p style=&quot;margin: 0px 0px 0px 4px;&quot;&gt;&lt;font style=&quot;font-size: 15px;&quot;&gt;+&lt;/font&gt;&lt;span style=&quot;font-size: medium;&quot;&gt;removeTask&lt;/span&gt;&lt;/p&gt;&lt;p style=&quot;margin:0px;margin-left:4px;&quot;&gt;&lt;br&gt;&lt;/p&gt;" style="verticalAlign=top;align=left;overflow=fill;html=1;whiteSpace=wrap;" parent="1" vertex="1">
          <mxGeometry x="-1867.5" y="3310" width="185" height="240" as="geometry" />
        </mxCell>
        <mxCell id="MUg-7y1NcIkwLTcKEQ0Q-35" value="&lt;div style=&quot;text-align: start;&quot;&gt;&lt;span style=&quot;font-weight: 400;&quot;&gt;&lt;font style=&quot;font-size: 13px;&quot;&gt;&amp;nbsp; &amp;nbsp;&amp;lt;&amp;lt;boundary&amp;gt;&amp;gt;&lt;/font&gt;&lt;/span&gt;&lt;/div&gt;&lt;div style=&quot;text-align: start;&quot;&gt;&lt;span style=&quot;font-weight: 400;&quot;&gt;&lt;font style=&quot;font-size: 15px;&quot;&gt;StudyPlansPage&lt;/font&gt;&lt;/span&gt;&lt;br&gt;&lt;/div&gt;" style="swimlane;childLayout=stackLayout;horizontal=1;startSize=50;horizontalStack=0;rounded=1;fontSize=14;fontStyle=1;strokeWidth=2;resizeParent=0;resizeLast=1;shadow=0;dashed=0;align=center;arcSize=4;whiteSpace=wrap;html=1;labelBackgroundColor=none;" parent="1" vertex="1">
          <mxGeometry x="-2867.5" y="3360" width="307.5" height="110" as="geometry" />
        </mxCell>
        <mxCell id="MUg-7y1NcIkwLTcKEQ0Q-36" value="&lt;div&gt;&lt;font style=&quot;font-size: 14px;&quot;&gt;&lt;font&gt;+select&lt;/font&gt;StudyPlan()&lt;/font&gt;&lt;/div&gt;&lt;div&gt;&lt;br&gt;&lt;/div&gt;" style="align=left;strokeColor=none;fillColor=none;spacingLeft=4;spacingRight=4;fontSize=12;verticalAlign=top;resizable=0;rotatable=0;part=1;html=1;whiteSpace=wrap;labelBackgroundColor=none;strokeWidth=2;" parent="MUg-7y1NcIkwLTcKEQ0Q-35" vertex="1">
          <mxGeometry y="50" width="307.5" height="60" as="geometry" />
        </mxCell>
        <mxCell id="MUg-7y1NcIkwLTcKEQ0Q-41" style="edgeStyle=orthogonalEdgeStyle;rounded=0;orthogonalLoop=1;jettySize=auto;html=1;entryX=-0.01;entryY=0.175;entryDx=0;entryDy=0;entryPerimeter=0;" parent="1" source="aW1EL9rklJhH-4EWhwkh-10" target="aW1EL9rklJhH-4EWhwkh-15" edge="1">
          <mxGeometry relative="1" as="geometry" />
        </mxCell>
        <mxCell id="MUg-7y1NcIkwLTcKEQ0Q-42" value="&lt;div style=&quot;text-align: start;&quot;&gt;&lt;span style=&quot;font-weight: 400;&quot;&gt;&lt;font style=&quot;font-size: 13px;&quot;&gt;&amp;nbsp; &amp;nbsp; &amp;nbsp;&amp;lt;&amp;lt;boundary&amp;gt;&amp;gt;&lt;/font&gt;&lt;/span&gt;&lt;/div&gt;&lt;div style=&quot;text-align: start;&quot;&gt;&lt;span style=&quot;font-weight: 400; font-size: medium;&quot;&gt;StudyPlansPage&lt;/span&gt;&lt;br&gt;&lt;/div&gt;" style="swimlane;childLayout=stackLayout;horizontal=1;startSize=50;horizontalStack=0;rounded=1;fontSize=14;fontStyle=1;strokeWidth=2;resizeParent=0;resizeLast=1;shadow=0;dashed=0;align=center;arcSize=4;whiteSpace=wrap;html=1;labelBackgroundColor=none;" parent="1" vertex="1">
          <mxGeometry x="-2370" y="3100" width="330" height="150.69" as="geometry" />
        </mxCell>
        <mxCell id="MUg-7y1NcIkwLTcKEQ0Q-43" value="&lt;div&gt;&lt;div&gt;&lt;span style=&quot;font-size: 14.000001px;&quot;&gt;+&lt;/span&gt;&lt;span style=&quot;font-size: 14px;&quot;&gt;displayNoStudyPlansMessage()&lt;/span&gt;&lt;/div&gt;&lt;div&gt;&lt;span style=&quot;font-size: 14.000001px;&quot;&gt;+displayStudyPlanList()&lt;/span&gt;&lt;br&gt;&lt;/div&gt;&lt;/div&gt;&lt;div&gt;&lt;span style=&quot;font-size: 14px;&quot;&gt;+displayErrorMessage()&lt;/span&gt;&lt;/div&gt;&lt;div&gt;&lt;span style=&quot;font-size: 14px;&quot;&gt;&lt;br&gt;&lt;/span&gt;&lt;/div&gt;" style="align=left;strokeColor=none;fillColor=none;spacingLeft=4;spacingRight=4;fontSize=12;verticalAlign=top;resizable=0;rotatable=0;part=1;html=1;whiteSpace=wrap;labelBackgroundColor=none;strokeWidth=2;" parent="MUg-7y1NcIkwLTcKEQ0Q-42" vertex="1">
          <mxGeometry y="50" width="330" height="100.69" as="geometry" />
        </mxCell>
        <mxCell id="MUg-7y1NcIkwLTcKEQ0Q-47" style="edgeStyle=orthogonalEdgeStyle;rounded=0;orthogonalLoop=1;jettySize=auto;html=1;entryX=-0.009;entryY=0.421;entryDx=0;entryDy=0;entryPerimeter=0;" parent="1" source="MUg-7y1NcIkwLTcKEQ0Q-9" target="MUg-7y1NcIkwLTcKEQ0Q-23" edge="1">
          <mxGeometry relative="1" as="geometry" />
        </mxCell>
        <mxCell id="MUg-7y1NcIkwLTcKEQ0Q-49" style="edgeStyle=orthogonalEdgeStyle;rounded=0;orthogonalLoop=1;jettySize=auto;html=1;entryX=0.016;entryY=0.635;entryDx=0;entryDy=0;entryPerimeter=0;" parent="1" source="MUg-7y1NcIkwLTcKEQ0Q-23" target="MUg-7y1NcIkwLTcKEQ0Q-7" edge="1">
          <mxGeometry relative="1" as="geometry" />
        </mxCell>
        <mxCell id="MUg-7y1NcIkwLTcKEQ0Q-50" style="edgeStyle=orthogonalEdgeStyle;rounded=0;orthogonalLoop=1;jettySize=auto;html=1;entryX=0.467;entryY=0.033;entryDx=0;entryDy=0;entryPerimeter=0;" parent="1" source="MUg-7y1NcIkwLTcKEQ0Q-23" target="MUg-7y1NcIkwLTcKEQ0Q-42" edge="1">
          <mxGeometry relative="1" as="geometry" />
        </mxCell>
        <mxCell id="MUg-7y1NcIkwLTcKEQ0Q-52" style="edgeStyle=orthogonalEdgeStyle;rounded=0;orthogonalLoop=1;jettySize=auto;html=1;entryX=-0.003;entryY=0.55;entryDx=0;entryDy=0;entryPerimeter=0;" parent="1" source="MUg-7y1NcIkwLTcKEQ0Q-32" target="MUg-7y1NcIkwLTcKEQ0Q-34" edge="1">
          <mxGeometry relative="1" as="geometry" />
        </mxCell>
        <mxCell id="MUg-7y1NcIkwLTcKEQ0Q-53" style="edgeStyle=orthogonalEdgeStyle;rounded=0;orthogonalLoop=1;jettySize=auto;html=1;entryX=0;entryY=0.5;entryDx=0;entryDy=0;" parent="1" source="MUg-7y1NcIkwLTcKEQ0Q-36" target="MUg-7y1NcIkwLTcKEQ0Q-32" edge="1">
          <mxGeometry relative="1" as="geometry" />
        </mxCell>
        <mxCell id="MUg-7y1NcIkwLTcKEQ0Q-54" value="&lt;div style=&quot;text-align: start;&quot;&gt;&lt;span style=&quot;font-weight: 400;&quot;&gt;&lt;font style=&quot;font-size: 13px;&quot;&gt;&amp;nbsp; &amp;nbsp;&amp;lt;&amp;lt;boundary&amp;gt;&amp;gt;&lt;/font&gt;&lt;/span&gt;&lt;/div&gt;&lt;div style=&quot;text-align: start;&quot;&gt;&lt;span style=&quot;font-weight: 400;&quot;&gt;&lt;font style=&quot;font-size: 15px;&quot;&gt;StudyPlanPage&lt;/font&gt;&lt;/span&gt;&lt;br&gt;&lt;/div&gt;" style="swimlane;childLayout=stackLayout;horizontal=1;startSize=50;horizontalStack=0;rounded=1;fontSize=14;fontStyle=1;strokeWidth=2;resizeParent=0;resizeLast=1;shadow=0;dashed=0;align=center;arcSize=4;whiteSpace=wrap;html=1;labelBackgroundColor=none;" parent="1" vertex="1">
          <mxGeometry x="-2362.5" y="3580" width="307.5" height="210.69" as="geometry" />
        </mxCell>
        <mxCell id="MUg-7y1NcIkwLTcKEQ0Q-55" value="&lt;div&gt;&lt;div&gt;+&lt;font style=&quot;font-size: 14px;&quot;&gt;displaySelectedStudyPlan&lt;/font&gt;()&lt;br&gt;&lt;/div&gt;&lt;div&gt;&lt;font style=&quot;font-size: 14px;&quot;&gt;+selectAddTask()&lt;/font&gt;&lt;/div&gt;&lt;/div&gt;&lt;div&gt;&lt;font style=&quot;font-size: 14px;&quot;&gt;+selectUpdateTask()&lt;/font&gt;&lt;/div&gt;&lt;div&gt;&lt;font style=&quot;font-size: 14px;&quot;&gt;+selectDeleteTask()&lt;/font&gt;&lt;/div&gt;&lt;div&gt;&lt;font style=&quot;font-size: 14px;&quot;&gt;+checkTask()&lt;/font&gt;&lt;/div&gt;&lt;div&gt;&lt;font style=&quot;font-size: 14px;&quot;&gt;+displayTaskAsChecked()&lt;/font&gt;&lt;/div&gt;&lt;div&gt;&lt;font style=&quot;font-size: 14px;&quot;&gt;+displayErrorMessage()&lt;/font&gt;&lt;/div&gt;" style="align=left;strokeColor=none;fillColor=none;spacingLeft=4;spacingRight=4;fontSize=12;verticalAlign=top;resizable=0;rotatable=0;part=1;html=1;whiteSpace=wrap;labelBackgroundColor=none;strokeWidth=2;" parent="MUg-7y1NcIkwLTcKEQ0Q-54" vertex="1">
          <mxGeometry y="50" width="307.5" height="160.69" as="geometry" />
        </mxCell>
        <mxCell id="MUg-7y1NcIkwLTcKEQ0Q-56" style="edgeStyle=orthogonalEdgeStyle;rounded=0;orthogonalLoop=1;jettySize=auto;html=1;entryX=0.5;entryY=0;entryDx=0;entryDy=0;" parent="1" source="MUg-7y1NcIkwLTcKEQ0Q-32" target="MUg-7y1NcIkwLTcKEQ0Q-54" edge="1">
          <mxGeometry relative="1" as="geometry" />
        </mxCell>
        <mxCell id="EhKwJJ9LpBdOfNEoEJVP-1" value="" style="rounded=0;whiteSpace=wrap;html=1;strokeColor=#000000;strokeWidth=3;" parent="1" vertex="1">
          <mxGeometry x="-2702.5" y="1434.86" width="1090" height="293.74" as="geometry" />
        </mxCell>
        <mxCell id="EhKwJJ9LpBdOfNEoEJVP-2" value="" style="rounded=0;whiteSpace=wrap;html=1;strokeWidth=3;" parent="1" vertex="1">
          <mxGeometry x="-2810" y="440" width="1160" height="570" as="geometry" />
        </mxCell>
        <mxCell id="EhKwJJ9LpBdOfNEoEJVP-3" value="&amp;lt;&amp;lt;Boundary&amp;gt;&amp;gt;&lt;div&gt;UploadPDFPage&lt;/div&gt;" style="swimlane;childLayout=stackLayout;horizontal=1;startSize=50;horizontalStack=0;rounded=1;fontSize=14;fontStyle=0;strokeWidth=2;resizeParent=0;resizeLast=1;shadow=0;align=center;arcSize=4;whiteSpace=wrap;html=1;labelBackgroundColor=none;" parent="1" vertex="1">
          <mxGeometry x="-2790" y="129.49" width="262.5" height="168.2" as="geometry" />
        </mxCell>
        <mxCell id="EhKwJJ9LpBdOfNEoEJVP-4" value="&lt;font style=&quot;font-size: 13px;&quot;&gt;+selectFile()&lt;br&gt;+displayUploadStatus()&lt;/font&gt;&lt;div&gt;&lt;font size=&quot;2&quot;&gt;+&lt;/font&gt;&lt;span style=&quot;font-size: 13px;&quot;&gt;displayGenerationOptions()&lt;/span&gt;&lt;div&gt;&lt;font style=&quot;font-size: 13px;&quot;&gt;&lt;font&gt;+&lt;/font&gt;&lt;font&gt;selectCancel&lt;/font&gt;&lt;font&gt;()&lt;/font&gt;&lt;/font&gt;&lt;div&gt;&lt;font style=&quot;font-size: 13px;&quot;&gt;+displayReuploadOption()&lt;br&gt;&lt;/font&gt;&lt;div&gt;&lt;font style=&quot;font-size: 13px;&quot;&gt;+selectReupload()&lt;br&gt;&lt;/font&gt;&lt;/div&gt;&lt;div&gt;&lt;font style=&quot;font-size: 13px;&quot;&gt;&lt;font&gt;+&lt;/font&gt;displayErrorMessage()&lt;/font&gt;&lt;/div&gt;&lt;div&gt;&lt;font style=&quot;font-size: 13px;&quot;&gt;&lt;br&gt;&lt;/font&gt;&lt;/div&gt;&lt;div&gt;&lt;font&gt;&lt;code data-end=&quot;361&quot; data-start=&quot;347&quot;&gt;&lt;font style=&quot;font-size: 13px;&quot; face=&quot;Verdana&quot;&gt;&lt;br&gt;&lt;/font&gt;&lt;/code&gt;&lt;/font&gt;&lt;/div&gt;&lt;div&gt;&lt;font style=&quot;font-size: 16px;&quot;&gt;&lt;code data-end=&quot;361&quot; data-start=&quot;347&quot;&gt;&lt;br&gt;&lt;/code&gt;&lt;/font&gt;&lt;/div&gt;&lt;/div&gt;&lt;/div&gt;&lt;/div&gt;" style="align=left;strokeColor=none;fillColor=none;spacingLeft=4;spacingRight=4;fontSize=12;verticalAlign=top;resizable=0;rotatable=0;part=1;html=1;whiteSpace=wrap;labelBackgroundColor=none;strokeWidth=2;" parent="EhKwJJ9LpBdOfNEoEJVP-3" vertex="1">
          <mxGeometry y="50" width="262.5" height="118.19999999999999" as="geometry" />
        </mxCell>
        <mxCell id="EhKwJJ9LpBdOfNEoEJVP-5" style="edgeStyle=orthogonalEdgeStyle;rounded=0;orthogonalLoop=1;jettySize=auto;html=1;exitX=0.5;exitY=1;exitDx=0;exitDy=0;labelBackgroundColor=none;fontColor=default;strokeWidth=2;" parent="EhKwJJ9LpBdOfNEoEJVP-3" edge="1">
          <mxGeometry relative="1" as="geometry">
            <mxPoint x="120" y="393.74000000000007" as="sourcePoint" />
            <mxPoint x="120" y="393.74000000000007" as="targetPoint" />
          </mxGeometry>
        </mxCell>
        <mxCell id="EhKwJJ9LpBdOfNEoEJVP-6" style="edgeStyle=orthogonalEdgeStyle;rounded=0;orthogonalLoop=1;jettySize=auto;html=1;exitX=0.5;exitY=1;exitDx=0;exitDy=0;labelBackgroundColor=none;fontColor=default;strokeWidth=2;" parent="EhKwJJ9LpBdOfNEoEJVP-3" edge="1">
          <mxGeometry relative="1" as="geometry">
            <mxPoint x="120" y="393.74000000000007" as="sourcePoint" />
            <mxPoint x="120" y="393.74000000000007" as="targetPoint" />
          </mxGeometry>
        </mxCell>
        <mxCell id="EhKwJJ9LpBdOfNEoEJVP-7" style="edgeStyle=orthogonalEdgeStyle;rounded=0;orthogonalLoop=1;jettySize=auto;html=1;exitX=0.5;exitY=1;exitDx=0;exitDy=0;labelBackgroundColor=none;fontColor=default;strokeWidth=2;" parent="EhKwJJ9LpBdOfNEoEJVP-3" edge="1">
          <mxGeometry relative="1" as="geometry">
            <mxPoint x="120" y="393.74000000000007" as="sourcePoint" />
            <mxPoint x="120" y="393.74000000000007" as="targetPoint" />
          </mxGeometry>
        </mxCell>
        <mxCell id="EhKwJJ9LpBdOfNEoEJVP-8" value="&lt;span style=&quot;caret-color: rgb(0, 0, 0); color: rgb(0, 0, 0); font-family: Helvetica; font-size: 14px; font-style: normal; font-variant-caps: normal; font-weight: 400; letter-spacing: normal; orphans: auto; text-align: center; text-indent: 0px; text-transform: none; white-space: normal; widows: auto; word-spacing: 0px; -webkit-text-stroke-width: 0px; background-color: rgb(251, 251, 251); text-decoration: none; display: inline !important; float: none;&quot;&gt;&amp;lt;&amp;lt;&lt;span style=&quot;text-align: start; font-size: medium;&quot;&gt;Boundary&lt;/span&gt;&amp;gt;&amp;gt;&lt;/span&gt;&lt;div style=&quot;caret-color: rgb(0, 0, 0); color: rgb(0, 0, 0); font-family: Helvetica; font-size: 14px; font-style: normal; font-variant-caps: normal; font-weight: 400; letter-spacing: normal; orphans: auto; text-align: center; text-indent: 0px; text-transform: none; white-space: normal; widows: auto; word-spacing: 0px; -webkit-text-stroke-width: 0px; text-decoration: none;&quot;&gt;&lt;span style=&quot;text-align: start;&quot;&gt;QuizPage&lt;/span&gt;&lt;/div&gt;" style="swimlane;childLayout=stackLayout;horizontal=1;startSize=50;horizontalStack=0;rounded=1;fontSize=14;fontStyle=1;strokeWidth=2;resizeParent=0;resizeLast=1;shadow=0;dashed=0;align=center;arcSize=4;whiteSpace=wrap;html=1;labelBackgroundColor=none;" parent="1" vertex="1">
          <mxGeometry x="-2790" y="486.25" width="340" height="267.5" as="geometry" />
        </mxCell>
        <mxCell id="EhKwJJ9LpBdOfNEoEJVP-9" value="&lt;font style=&quot;font-size: 14px;&quot;&gt;+startQuiz()&lt;/font&gt;&lt;div&gt;&lt;font size=&quot;3&quot;&gt;+&lt;font face=&quot;Helvetica&quot;&gt;displayQuestion&lt;/font&gt;()&lt;br&gt;&lt;/font&gt;&lt;div&gt;&lt;font size=&quot;3&quot;&gt;+selectAnswer()&lt;/font&gt;&lt;/div&gt;&lt;div&gt;&lt;font size=&quot;3&quot;&gt;+selectShowAnswer()&lt;/font&gt;&lt;/div&gt;&lt;div&gt;&lt;font size=&quot;3&quot;&gt;+displayAnswerFeedback()&lt;br&gt;&lt;/font&gt;&lt;/div&gt;&lt;div&gt;&lt;font size=&quot;3&quot;&gt;+selectNextQuestion()&lt;/font&gt;&lt;/div&gt;&lt;div&gt;&lt;font&gt;&lt;div&gt;&lt;font size=&quot;3&quot;&gt;+submitQuiz&lt;font face=&quot;monospace&quot;&gt;()&lt;/font&gt;&lt;/font&gt;&lt;/div&gt;&lt;/font&gt;&lt;/div&gt;&lt;div&gt;&lt;font size=&quot;3&quot;&gt;+resumeQuiz()&lt;/font&gt;&lt;/div&gt;&lt;div&gt;&lt;font size=&quot;3&quot;&gt;&lt;div&gt;+exitQuiz()&lt;/div&gt;&lt;div&gt;+displayExitConfirmation()&lt;br&gt;&lt;/div&gt;&lt;div&gt;+displayErrorMessage()&amp;nbsp;&lt;br&gt;&lt;/div&gt;&lt;/font&gt;&lt;/div&gt;&lt;div&gt;&lt;br&gt;&lt;/div&gt;&lt;/div&gt;" style="align=left;strokeColor=none;fillColor=none;spacingLeft=4;spacingRight=4;fontSize=12;verticalAlign=top;resizable=0;rotatable=0;part=1;html=1;whiteSpace=wrap;labelBackgroundColor=none;strokeWidth=2;" parent="EhKwJJ9LpBdOfNEoEJVP-8" vertex="1">
          <mxGeometry y="50" width="340" height="217.5" as="geometry" />
        </mxCell>
        <mxCell id="EhKwJJ9LpBdOfNEoEJVP-10" style="edgeStyle=orthogonalEdgeStyle;rounded=0;orthogonalLoop=1;jettySize=auto;html=1;exitX=0.5;exitY=1;exitDx=0;exitDy=0;labelBackgroundColor=none;fontColor=default;strokeWidth=2;" parent="EhKwJJ9LpBdOfNEoEJVP-8" edge="1">
          <mxGeometry relative="1" as="geometry">
            <mxPoint x="1037.5" y="807.5" as="sourcePoint" />
            <mxPoint x="1037.5" y="807.5" as="targetPoint" />
          </mxGeometry>
        </mxCell>
        <mxCell id="EhKwJJ9LpBdOfNEoEJVP-11" value="&lt;span style=&quot;caret-color: rgb(0, 0, 0); color: rgb(0, 0, 0); font-family: Helvetica; font-size: 14px; font-style: normal; font-variant-caps: normal; letter-spacing: normal; orphans: auto; text-align: center; text-indent: 0px; text-transform: none; white-space: normal; widows: auto; word-spacing: 0px; -webkit-text-stroke-width: 0px; text-decoration: none; font-weight: 400; background-color: rgb(251, 251, 251); float: none; display: inline !important;&quot;&gt;&amp;lt;&amp;lt;&lt;span style=&quot;text-align: start; font-size: medium;&quot;&gt;Controller&lt;/span&gt;&amp;gt;&amp;gt;&lt;/span&gt;&lt;div style=&quot;caret-color: rgb(0, 0, 0); color: rgb(0, 0, 0); font-family: Helvetica; font-size: 14px; font-style: normal; font-variant-caps: normal; letter-spacing: normal; orphans: auto; text-align: center; text-indent: 0px; text-transform: none; white-space: normal; widows: auto; word-spacing: 0px; -webkit-text-stroke-width: 0px; text-decoration: none; font-weight: 400;&quot;&gt;&lt;span style=&quot;text-align: start;&quot;&gt;QuizController&lt;/span&gt;&lt;/div&gt;" style="swimlane;childLayout=stackLayout;horizontal=1;startSize=50;horizontalStack=0;rounded=1;fontSize=14;fontStyle=1;strokeWidth=2;resizeParent=0;resizeLast=1;shadow=0;dashed=0;align=center;arcSize=4;whiteSpace=wrap;html=1;labelBackgroundColor=none;" parent="1" vertex="1">
          <mxGeometry x="-2355" y="477.5" width="345" height="285" as="geometry" />
        </mxCell>
        <mxCell id="EhKwJJ9LpBdOfNEoEJVP-12" value="&lt;font style=&quot;font-size: 14px;&quot;&gt;+getQuizQuestions()&lt;/font&gt;&lt;div&gt;&lt;div&gt;&lt;font size=&quot;3&quot;&gt;+recordSelectedAnswer()&lt;br&gt;&lt;/font&gt;&lt;/div&gt;&lt;div&gt;&lt;font size=&quot;3&quot;&gt;&lt;font&gt;+&lt;/font&gt;getCorrectAnswer()&lt;/font&gt;&lt;/div&gt;&lt;div&gt;&lt;font size=&quot;3&quot;&gt;+compareAnswers()&lt;br&gt;&lt;/font&gt;&lt;/div&gt;&lt;div&gt;&lt;font size=&quot;3&quot;&gt;&lt;font&gt;+get&lt;/font&gt;NextQuestion()&lt;/font&gt;&lt;/div&gt;&lt;div&gt;&lt;font size=&quot;3&quot;&gt;&lt;font&gt;+&lt;/font&gt;submitQuizAnswers()&lt;/font&gt;&lt;/div&gt;&lt;div&gt;&lt;font size=&quot;3&quot;&gt;+calculateQuizScore()&lt;/font&gt;&lt;/div&gt;&lt;div&gt;&lt;font size=&quot;3&quot;&gt;&lt;font&gt;+&lt;/font&gt;identifyWrongAnsweredTopics()&lt;/font&gt;&lt;/div&gt;&lt;div&gt;&lt;font size=&quot;3&quot;&gt;&lt;font&gt;+&lt;/font&gt;suggestStudySessions()&lt;/font&gt;&lt;/div&gt;&lt;div&gt;&lt;font size=&quot;3&quot;&gt;+resetQuiz()&lt;/font&gt;&lt;/div&gt;&lt;div&gt;&lt;font size=&quot;3&quot;&gt;+resumeQuiz()&lt;/font&gt;&lt;/div&gt;&lt;div&gt;&lt;font size=&quot;3&quot;&gt;&lt;div&gt;&lt;font&gt;+handleError()&lt;/font&gt;&lt;/div&gt;&lt;div&gt;&lt;font&gt;&lt;br&gt;&lt;/font&gt;&lt;/div&gt;&lt;/font&gt;&lt;/div&gt;&lt;div&gt;&lt;font size=&quot;3&quot;&gt;&lt;br&gt;&lt;/font&gt;&lt;/div&gt;&lt;div&gt;&lt;br&gt;&lt;/div&gt;&lt;/div&gt;" style="align=left;strokeColor=none;fillColor=none;spacingLeft=4;spacingRight=4;fontSize=12;verticalAlign=top;resizable=0;rotatable=0;part=1;html=1;whiteSpace=wrap;labelBackgroundColor=none;strokeWidth=2;" parent="EhKwJJ9LpBdOfNEoEJVP-11" vertex="1">
          <mxGeometry y="50" width="345" height="235" as="geometry" />
        </mxCell>
        <mxCell id="EhKwJJ9LpBdOfNEoEJVP-13" style="edgeStyle=orthogonalEdgeStyle;rounded=0;orthogonalLoop=1;jettySize=auto;html=1;exitX=0.5;exitY=1;exitDx=0;exitDy=0;labelBackgroundColor=none;fontColor=default;strokeWidth=0;" parent="EhKwJJ9LpBdOfNEoEJVP-11" edge="1">
          <mxGeometry relative="1" as="geometry">
            <mxPoint x="595" y="665" as="sourcePoint" />
            <mxPoint x="595" y="665" as="targetPoint" />
          </mxGeometry>
        </mxCell>
        <mxCell id="EhKwJJ9LpBdOfNEoEJVP-14" value="&lt;span style=&quot;font-size: 14px; font-weight: 400;&quot;&gt;&amp;lt;&amp;lt;Entity&amp;gt;&amp;gt;&lt;/span&gt;&lt;div style=&quot;font-size: 14px; font-weight: 400;&quot;&gt;&lt;span style=&quot;text-align: start;&quot;&gt;QuizData&lt;/span&gt;&lt;/div&gt;" style="swimlane;fontStyle=1;align=center;verticalAlign=top;childLayout=stackLayout;horizontal=1;startSize=40;horizontalStack=0;resizeParent=1;resizeParentMax=0;resizeLast=0;collapsible=1;marginBottom=0;whiteSpace=wrap;html=1;strokeWidth=2;" parent="1" vertex="1">
          <mxGeometry x="-1903.75" y="495.0000000000002" width="230" height="250" as="geometry" />
        </mxCell>
        <mxCell id="EhKwJJ9LpBdOfNEoEJVP-15" value="&lt;div&gt;&lt;font style=&quot;font-size: 14px;&quot;&gt;-Questions&lt;br&gt;&lt;/font&gt;&lt;/div&gt;&lt;div&gt;&lt;font size=&quot;3&quot;&gt;-studentAnswers&lt;/font&gt;&lt;/div&gt;&lt;div&gt;&lt;font size=&quot;3&quot;&gt;-correctAnswers&lt;/font&gt;&lt;/div&gt;&lt;div&gt;&lt;font size=&quot;3&quot;&gt;-score&lt;/font&gt;&lt;/div&gt;&lt;div&gt;&lt;font size=&quot;3&quot;&gt;&lt;br&gt;&lt;/font&gt;&lt;/div&gt;&lt;div&gt;&lt;br&gt;&lt;/div&gt;" style="text;strokeColor=none;fillColor=none;align=left;verticalAlign=top;spacingLeft=4;spacingRight=4;overflow=hidden;rotatable=0;points=[[0,0.5],[1,0.5]];portConstraint=eastwest;whiteSpace=wrap;html=1;strokeWidth=2;" parent="EhKwJJ9LpBdOfNEoEJVP-14" vertex="1">
          <mxGeometry y="40" width="230" height="80" as="geometry" />
        </mxCell>
        <mxCell id="EhKwJJ9LpBdOfNEoEJVP-16" value="" style="line;strokeWidth=2;fillColor=none;align=left;verticalAlign=middle;spacingTop=-1;spacingLeft=3;spacingRight=3;rotatable=0;labelPosition=right;points=[];portConstraint=eastwest;strokeColor=inherit;" parent="EhKwJJ9LpBdOfNEoEJVP-14" vertex="1">
          <mxGeometry y="120" width="230" height="10" as="geometry" />
        </mxCell>
        <mxCell id="EhKwJJ9LpBdOfNEoEJVP-17" value="&lt;div&gt;&lt;font style=&quot;font-size: 14px;&quot;&gt;+getQuestions()&lt;/font&gt;&lt;/div&gt;&lt;div&gt;&lt;font size=&quot;3&quot;&gt;+getCorrectAnswer()&lt;/font&gt;&lt;/div&gt;&lt;div&gt;&lt;font size=&quot;3&quot;&gt;+saveQuizQuestions()&lt;/font&gt;&lt;/div&gt;&lt;div&gt;&lt;font size=&quot;3&quot;&gt;+saveResult()&amp;nbsp;&lt;/font&gt;&lt;/div&gt;&lt;div&gt;&lt;font size=&quot;3&quot;&gt;+&lt;font&gt;saveProgress()&lt;/font&gt;&lt;/font&gt;&lt;/div&gt;&lt;div&gt;&lt;font size=&quot;3&quot;&gt;&lt;font&gt;+&lt;/font&gt;getProgress()&lt;/font&gt;&lt;/div&gt;" style="text;strokeColor=none;fillColor=none;align=left;verticalAlign=top;spacingLeft=4;spacingRight=4;overflow=hidden;rotatable=0;points=[[0,0.5],[1,0.5]];portConstraint=eastwest;whiteSpace=wrap;html=1;strokeWidth=2;" parent="EhKwJJ9LpBdOfNEoEJVP-14" vertex="1">
          <mxGeometry y="130" width="230" height="120" as="geometry" />
        </mxCell>
        <mxCell id="EhKwJJ9LpBdOfNEoEJVP-18" value="&amp;lt;&amp;lt;Controller&amp;gt;&amp;gt;&lt;div&gt;&lt;span style=&quot;text-align: start;&quot;&gt;&lt;font style=&quot;font-size: 13px;&quot;&gt;PDFUploadController&lt;/font&gt;&lt;/span&gt;&lt;/div&gt;" style="swimlane;childLayout=stackLayout;horizontal=1;startSize=50;horizontalStack=0;rounded=1;fontSize=14;fontStyle=0;strokeWidth=2;resizeParent=0;resizeLast=1;shadow=0;dashed=0;align=center;arcSize=4;whiteSpace=wrap;html=1;labelBackgroundColor=none;" parent="1" vertex="1">
          <mxGeometry x="-2390" y="117.18" width="270" height="192.82" as="geometry" />
        </mxCell>
        <mxCell id="EhKwJJ9LpBdOfNEoEJVP-19" value="&lt;font style=&quot;font-size: 14px;&quot;&gt;&lt;font&gt;&lt;font&gt;+handleUpload()&lt;/font&gt;&lt;/font&gt;&lt;font&gt;&lt;br&gt;&lt;font&gt;+validateFile()&lt;/font&gt;&lt;/font&gt;&lt;/font&gt;&lt;div&gt;&lt;font&gt;&lt;font style=&quot;font-size: 14px;&quot;&gt;+processExtraction()&lt;/font&gt;&lt;/font&gt;&lt;/div&gt;&lt;div&gt;&lt;font&gt;&lt;font style=&quot;font-size: 14px;&quot;&gt;+suggestGenerationOptions()&lt;br&gt;&lt;/font&gt;&lt;/font&gt;&lt;div&gt;&lt;font style=&quot;font-size: 14px;&quot;&gt;+handleCancel()&lt;/font&gt;&lt;/div&gt;&lt;div&gt;&lt;font style=&quot;font-size: 14px;&quot;&gt;+displayReuploadOption()&lt;/font&gt;&lt;/div&gt;&lt;div&gt;&lt;font style=&quot;font-size: 14px;&quot;&gt;+handleReupload()&lt;/font&gt;&lt;/div&gt;&lt;/div&gt;&lt;div&gt;&lt;font style=&quot;font-size: 14px;&quot;&gt;+handleError()&lt;/font&gt;&lt;/div&gt;" style="align=left;strokeColor=none;fillColor=none;spacingLeft=4;spacingRight=4;fontSize=12;verticalAlign=top;resizable=0;rotatable=0;part=1;html=1;whiteSpace=wrap;labelBackgroundColor=none;strokeWidth=2;" parent="EhKwJJ9LpBdOfNEoEJVP-18" vertex="1">
          <mxGeometry y="50" width="270" height="142.82" as="geometry" />
        </mxCell>
        <mxCell id="EhKwJJ9LpBdOfNEoEJVP-20" style="edgeStyle=orthogonalEdgeStyle;rounded=0;orthogonalLoop=1;jettySize=auto;html=1;exitX=1;exitY=0.5;exitDx=0;exitDy=0;entryX=0;entryY=0.5;entryDx=0;entryDy=0;endArrow=none;endFill=0;startFill=0;" parent="1" source="EhKwJJ9LpBdOfNEoEJVP-9" target="EhKwJJ9LpBdOfNEoEJVP-12" edge="1">
          <mxGeometry relative="1" as="geometry">
            <mxPoint x="-2460" y="593.2799999999982" as="sourcePoint" />
          </mxGeometry>
        </mxCell>
        <mxCell id="EhKwJJ9LpBdOfNEoEJVP-21" value="&lt;div style=&quot;text-align: start;&quot;&gt;&lt;span style=&quot;font-size: 12px; font-weight: 400;&quot;&gt;&amp;nbsp; &amp;nbsp; &amp;lt;&amp;lt;boundary&amp;gt;&amp;gt;&lt;/span&gt;&lt;/div&gt;&lt;div style=&quot;text-align: start;&quot;&gt;&lt;span style=&quot;font-weight: 400;&quot;&gt;&lt;font style=&quot;font-size: 14px;&quot;&gt;GenerateQuizPage&lt;/font&gt;&lt;/span&gt;&lt;br&gt;&lt;/div&gt;" style="swimlane;childLayout=stackLayout;horizontal=1;startSize=50;horizontalStack=0;rounded=1;fontSize=14;fontStyle=1;strokeWidth=2;resizeParent=0;resizeLast=1;shadow=0;dashed=0;align=center;arcSize=4;whiteSpace=wrap;html=1;labelBackgroundColor=none;" parent="1" vertex="1">
          <mxGeometry x="-2662.5" y="1498.6" width="330" height="164.06" as="geometry" />
        </mxCell>
        <mxCell id="EhKwJJ9LpBdOfNEoEJVP-22" value="&lt;div&gt;&lt;div&gt;&lt;font style=&quot;font-size: 14px;&quot;&gt;+selectGenerateQuiz()&lt;/font&gt;&lt;/div&gt;&lt;div&gt;&lt;font style=&quot;font-size: 14px;&quot;&gt;&lt;font&gt;+&lt;font&gt;display&lt;/font&gt;&lt;/font&gt;&lt;font&gt;DiffucultyLevelOptions&lt;/font&gt;()&amp;nbsp;&lt;/font&gt;&lt;/div&gt;&lt;div&gt;&lt;font style=&quot;font-size: 14px;&quot;&gt;+selectDiffucultyLevel()&lt;/font&gt;&lt;/div&gt;&lt;div&gt;&lt;font style=&quot;font-size: 14px;&quot;&gt;+displayErrorMessage()&lt;/font&gt;&lt;/div&gt;&lt;/div&gt;&lt;div&gt;&lt;span style=&quot;font-size: medium;&quot;&gt;&lt;br&gt;&lt;/span&gt;&lt;/div&gt;" style="align=left;strokeColor=none;fillColor=none;spacingLeft=4;spacingRight=4;fontSize=12;verticalAlign=top;resizable=0;rotatable=0;part=1;html=1;whiteSpace=wrap;labelBackgroundColor=none;strokeWidth=2;" parent="EhKwJJ9LpBdOfNEoEJVP-21" vertex="1">
          <mxGeometry y="50" width="330" height="114.06" as="geometry" />
        </mxCell>
        <mxCell id="EhKwJJ9LpBdOfNEoEJVP-23" style="edgeStyle=orthogonalEdgeStyle;rounded=0;orthogonalLoop=1;jettySize=auto;html=1;exitX=0.5;exitY=1;exitDx=0;exitDy=0;labelBackgroundColor=none;fontColor=default;strokeWidth=2;" parent="EhKwJJ9LpBdOfNEoEJVP-21" edge="1">
          <mxGeometry relative="1" as="geometry">
            <mxPoint x="-280" y="818.9" as="sourcePoint" />
            <mxPoint x="-280" y="818.9" as="targetPoint" />
          </mxGeometry>
        </mxCell>
        <mxCell id="EhKwJJ9LpBdOfNEoEJVP-24" value="&lt;div style=&quot;text-align: start;&quot;&gt;&lt;span style=&quot;font-weight: 400;&quot;&gt;&lt;font style=&quot;font-size: 13px;&quot;&gt;&amp;nbsp; &amp;nbsp; &amp;nbsp; &amp;nbsp;&amp;lt;&amp;lt;controller&amp;gt;&amp;gt;&lt;/font&gt;&lt;/span&gt;&lt;/div&gt;&lt;div style=&quot;text-align: start;&quot;&gt;&lt;span style=&quot;font-weight: 400;&quot;&gt;&lt;font style=&quot;font-size: 14px;&quot;&gt;GenerateQuizController&lt;/font&gt;&lt;/span&gt;&lt;br&gt;&lt;/div&gt;" style="swimlane;childLayout=stackLayout;horizontal=1;startSize=50;horizontalStack=0;rounded=1;fontSize=14;fontStyle=1;strokeWidth=2;resizeParent=0;resizeLast=1;shadow=0;dashed=0;align=center;arcSize=4;whiteSpace=wrap;html=1;labelBackgroundColor=none;" parent="1" vertex="1">
          <mxGeometry x="-2230" y="1508.6" width="240" height="144.06" as="geometry" />
        </mxCell>
        <mxCell id="EhKwJJ9LpBdOfNEoEJVP-25" value="&lt;div&gt;&lt;font style=&quot;font-size: 14px;&quot;&gt;+requestDifficultyLevel()&lt;/font&gt;&lt;/div&gt;&lt;div&gt;&lt;font style=&quot;font-size: 14px;&quot;&gt;+generateQuiz()&lt;/font&gt;&lt;/div&gt;&lt;div&gt;&lt;font style=&quot;font-size: 14px;&quot;&gt;+handleNoDifficultySelected()&lt;/font&gt;&lt;/div&gt;&lt;div&gt;&lt;font style=&quot;font-size: 14px;&quot;&gt;+&lt;font&gt;handleError&lt;/font&gt;()&lt;/font&gt;&lt;br&gt;&lt;/div&gt;" style="align=left;strokeColor=none;fillColor=none;spacingLeft=4;spacingRight=4;fontSize=12;verticalAlign=top;resizable=0;rotatable=0;part=1;html=1;whiteSpace=wrap;labelBackgroundColor=none;strokeWidth=2;" parent="EhKwJJ9LpBdOfNEoEJVP-24" vertex="1">
          <mxGeometry y="50" width="240" height="94.06" as="geometry" />
        </mxCell>
        <mxCell id="EhKwJJ9LpBdOfNEoEJVP-26" style="edgeStyle=orthogonalEdgeStyle;rounded=0;orthogonalLoop=1;jettySize=auto;html=1;exitX=0.5;exitY=1;exitDx=0;exitDy=0;labelBackgroundColor=none;fontColor=default;strokeWidth=2;" parent="EhKwJJ9LpBdOfNEoEJVP-24" edge="1">
          <mxGeometry relative="1" as="geometry">
            <mxPoint x="-260" y="370.4599999999999" as="sourcePoint" />
            <mxPoint x="-260" y="370.4599999999999" as="targetPoint" />
          </mxGeometry>
        </mxCell>
        <mxCell id="EhKwJJ9LpBdOfNEoEJVP-27" value="&lt;p style=&quot;margin:0px;margin-top:4px;text-align:center;&quot;&gt;&lt;font&gt;&amp;lt;&amp;lt;Entity&amp;gt;&amp;gt;&lt;/font&gt;&lt;/p&gt;&lt;p style=&quot;margin:0px;margin-top:4px;text-align:center;&quot;&gt;&lt;font style=&quot;font-size: 14px;&quot;&gt;Quiz&lt;/font&gt;&lt;/p&gt;&lt;hr size=&quot;1&quot; style=&quot;border-style:solid;&quot;&gt;&lt;p style=&quot;margin:0px;margin-left:4px;&quot;&gt;&lt;font&gt;&lt;font style=&quot;font-size: 14px;&quot;&gt;-quizQuestions&lt;/font&gt;&lt;/font&gt;&lt;/p&gt;&lt;p style=&quot;margin:0px;margin-left:4px;&quot;&gt;&lt;font&gt;&lt;font style=&quot;font-size: 14px;&quot;&gt;-difficultyLevel&lt;/font&gt;&lt;/font&gt;&lt;/p&gt;&lt;p style=&quot;margin:0px;margin-left:4px;&quot;&gt;&lt;font style=&quot;font-size: 12px;&quot;&gt;&lt;br&gt;&lt;/font&gt;&lt;/p&gt;&lt;hr size=&quot;1&quot; style=&quot;border-style:solid;&quot;&gt;&lt;p style=&quot;margin:0px;margin-left:4px;&quot;&gt;&lt;font style=&quot;font-size: 14px;&quot;&gt;+saveQuizQuestions()&lt;/font&gt;&lt;/p&gt;" style="verticalAlign=top;align=left;overflow=fill;html=1;whiteSpace=wrap;" parent="1" vertex="1">
          <mxGeometry x="-1862.5" y="1507.6599999999999" width="180" height="145" as="geometry" />
        </mxCell>
        <mxCell id="EhKwJJ9LpBdOfNEoEJVP-28" value="" style="edgeStyle=orthogonalEdgeStyle;rounded=0;orthogonalLoop=1;jettySize=auto;html=1;endArrow=none;startFill=0;exitX=0.452;exitY=0.038;exitDx=0;exitDy=0;exitPerimeter=0;" parent="1" source="EhKwJJ9LpBdOfNEoEJVP-29" target="EhKwJJ9LpBdOfNEoEJVP-12" edge="1">
          <mxGeometry relative="1" as="geometry">
            <mxPoint x="-2182.5" y="885" as="sourcePoint" />
          </mxGeometry>
        </mxCell>
        <mxCell id="EhKwJJ9LpBdOfNEoEJVP-29" value="&lt;span style=&quot;caret-color: rgb(0, 0, 0); color: rgb(0, 0, 0); font-family: Helvetica; font-size: 14px; font-style: normal; font-variant-caps: normal; font-weight: 400; letter-spacing: normal; orphans: auto; text-align: center; text-indent: 0px; text-transform: none; white-space: normal; widows: auto; word-spacing: 0px; -webkit-text-stroke-width: 0px; background-color: rgb(251, 251, 251); text-decoration: none; display: inline !important; float: none;&quot;&gt;&amp;lt;&amp;lt;&lt;span style=&quot;text-align: start; font-size: medium;&quot;&gt;Boundary&lt;/span&gt;&amp;gt;&amp;gt;&lt;/span&gt;&lt;div style=&quot;caret-color: rgb(0, 0, 0); color: rgb(0, 0, 0); font-family: Helvetica; font-size: 14px; font-style: normal; font-variant-caps: normal; font-weight: 400; letter-spacing: normal; orphans: auto; text-align: center; text-indent: 0px; text-transform: none; white-space: normal; widows: auto; word-spacing: 0px; -webkit-text-stroke-width: 0px; text-decoration: none;&quot;&gt;&lt;span style=&quot;text-align: start;&quot;&gt;ResultPage&lt;/span&gt;&lt;/div&gt;" style="swimlane;childLayout=stackLayout;horizontal=1;startSize=50;horizontalStack=0;rounded=1;fontSize=14;fontStyle=1;strokeWidth=2;resizeParent=0;resizeLast=1;shadow=0;dashed=0;align=center;arcSize=4;whiteSpace=wrap;html=1;labelBackgroundColor=none;" parent="1" vertex="1">
          <mxGeometry x="-2342.5" y="820" width="352.5" height="170" as="geometry" />
        </mxCell>
        <mxCell id="EhKwJJ9LpBdOfNEoEJVP-30" value="&lt;div&gt;&lt;font style=&quot;font-size: 15px;&quot;&gt;+displayResult()&lt;/font&gt;&lt;/div&gt;&lt;div&gt;&lt;font style=&quot;font-size: 15px;&quot;&gt;+displayStudySessionOption()&lt;br&gt;&lt;/font&gt;&lt;/div&gt;&lt;div&gt;&lt;font style=&quot;font-size: 15px;&quot;&gt;+selectStartStudySession()&lt;/font&gt;&lt;/div&gt;&lt;div&gt;&lt;font style=&quot;font-size: 15px;&quot;&gt;+selectCancelStudySession()&lt;/font&gt;&lt;/div&gt;&lt;div&gt;&lt;font style=&quot;font-size: 15px;&quot;&gt;&lt;font&gt;+&lt;/font&gt;retakeQuiz()&lt;/font&gt;&lt;/div&gt;&lt;div&gt;&lt;div&gt;&lt;div&gt;&lt;font style=&quot;font-size: 15px;&quot;&gt;+displayErrorMessage()&amp;nbsp;&lt;/font&gt;&lt;/div&gt;&lt;div&gt;&lt;br&gt;&lt;/div&gt;&lt;/div&gt;&lt;/div&gt;" style="align=left;strokeColor=none;fillColor=none;spacingLeft=4;spacingRight=4;fontSize=12;verticalAlign=top;resizable=0;rotatable=0;part=1;html=1;whiteSpace=wrap;labelBackgroundColor=none;strokeWidth=2;" parent="EhKwJJ9LpBdOfNEoEJVP-29" vertex="1">
          <mxGeometry y="50" width="352.5" height="120" as="geometry" />
        </mxCell>
        <mxCell id="EhKwJJ9LpBdOfNEoEJVP-31" style="edgeStyle=orthogonalEdgeStyle;rounded=0;orthogonalLoop=1;jettySize=auto;html=1;exitX=0.5;exitY=1;exitDx=0;exitDy=0;labelBackgroundColor=none;fontColor=default;strokeWidth=2;" parent="EhKwJJ9LpBdOfNEoEJVP-29" edge="1">
          <mxGeometry relative="1" as="geometry">
            <mxPoint x="-280" y="818.9" as="sourcePoint" />
            <mxPoint x="-280" y="818.9" as="targetPoint" />
          </mxGeometry>
        </mxCell>
        <mxCell id="EhKwJJ9LpBdOfNEoEJVP-32" style="edgeStyle=orthogonalEdgeStyle;rounded=0;orthogonalLoop=1;jettySize=auto;html=1;entryX=0;entryY=0.5;entryDx=0;entryDy=0;endArrow=none;startFill=0;" parent="1" source="EhKwJJ9LpBdOfNEoEJVP-22" target="EhKwJJ9LpBdOfNEoEJVP-25" edge="1">
          <mxGeometry relative="1" as="geometry" />
        </mxCell>
        <mxCell id="EhKwJJ9LpBdOfNEoEJVP-33" style="edgeStyle=orthogonalEdgeStyle;rounded=0;orthogonalLoop=1;jettySize=auto;html=1;exitX=1;exitY=0.5;exitDx=0;exitDy=0;entryX=0.011;entryY=0.674;entryDx=0;entryDy=0;entryPerimeter=0;endArrow=none;startFill=0;" parent="1" source="EhKwJJ9LpBdOfNEoEJVP-25" target="EhKwJJ9LpBdOfNEoEJVP-27" edge="1">
          <mxGeometry relative="1" as="geometry" />
        </mxCell>
        <mxCell id="EhKwJJ9LpBdOfNEoEJVP-34" value="&lt;p style=&quot;margin:0px;margin-top:4px;text-align:center;&quot;&gt;&amp;lt;&amp;lt;Entity&amp;gt;&amp;gt;&lt;/p&gt;&lt;p style=&quot;margin:0px;margin-top:4px;text-align:center;&quot;&gt;PdfFile&lt;/p&gt;&lt;hr size=&quot;1&quot; style=&quot;border-style:solid;&quot;&gt;&lt;p style=&quot;margin:0px;margin-left:4px;&quot;&gt;-fileSize&lt;/p&gt;&lt;p style=&quot;margin:0px;margin-left:4px;&quot;&gt;-fileName&lt;/p&gt;&lt;hr size=&quot;1&quot; style=&quot;border-style:solid;&quot;&gt;&lt;p style=&quot;margin:0px;margin-left:4px;&quot;&gt;+saveFileName()&lt;/p&gt;&lt;p style=&quot;margin:0px;margin-left:4px;&quot;&gt;+getFileSize()&lt;/p&gt;" style="verticalAlign=top;align=left;overflow=fill;html=1;whiteSpace=wrap;strokeColor=default;strokeWidth=2;" parent="1" vertex="1">
          <mxGeometry x="-2010" y="147.34" width="225" height="132.5" as="geometry" />
        </mxCell>
        <mxCell id="EhKwJJ9LpBdOfNEoEJVP-35" style="edgeStyle=orthogonalEdgeStyle;rounded=0;orthogonalLoop=1;jettySize=auto;html=1;entryX=0;entryY=0.5;entryDx=0;entryDy=0;endArrow=none;startFill=0;" parent="1" source="EhKwJJ9LpBdOfNEoEJVP-4" target="EhKwJJ9LpBdOfNEoEJVP-19" edge="1">
          <mxGeometry relative="1" as="geometry" />
        </mxCell>
        <mxCell id="EhKwJJ9LpBdOfNEoEJVP-36" style="edgeStyle=orthogonalEdgeStyle;rounded=0;orthogonalLoop=1;jettySize=auto;html=1;endArrow=none;startFill=0;entryX=0.004;entryY=0.684;entryDx=0;entryDy=0;entryPerimeter=0;" parent="1" source="EhKwJJ9LpBdOfNEoEJVP-19" target="EhKwJJ9LpBdOfNEoEJVP-34" edge="1">
          <mxGeometry relative="1" as="geometry">
            <mxPoint x="-2020" y="225" as="targetPoint" />
          </mxGeometry>
        </mxCell>
        <mxCell id="EhKwJJ9LpBdOfNEoEJVP-37" value="" style="rounded=0;whiteSpace=wrap;html=1;strokeColor=#000000;strokeWidth=3;" parent="1" vertex="1">
          <mxGeometry x="-2817.5" y="1820" width="1270" height="510" as="geometry" />
        </mxCell>
        <mxCell id="EhKwJJ9LpBdOfNEoEJVP-38" value="&lt;div style=&quot;text-align: start;&quot;&gt;&lt;span style=&quot;font-size: 12px; font-weight: 400;&quot;&gt;&amp;lt;&amp;lt;controller&amp;gt;&amp;gt;&lt;/span&gt;&lt;/div&gt;&lt;div style=&quot;text-align: start;&quot;&gt;&lt;span style=&quot;font-size: 12px; font-weight: 400;&quot;&gt;FlashcardController&lt;/span&gt;&lt;/div&gt;" style="swimlane;childLayout=stackLayout;horizontal=1;startSize=50;horizontalStack=0;rounded=1;fontSize=14;fontStyle=1;strokeWidth=2;resizeParent=0;resizeLast=1;shadow=0;dashed=0;align=center;arcSize=4;whiteSpace=wrap;html=1;labelBackgroundColor=none;" parent="1" vertex="1">
          <mxGeometry x="-2302.5" y="1860" width="325" height="190" as="geometry" />
        </mxCell>
        <mxCell id="EhKwJJ9LpBdOfNEoEJVP-39" value="&lt;div&gt;&lt;div&gt;&lt;font style=&quot;font-size: 15px;&quot;&gt;+generateFlashcards()&lt;/font&gt;&lt;/div&gt;&lt;/div&gt;&lt;div&gt;&lt;font style=&quot;font-size: 15px;&quot;&gt;+recordSwipeAsKnown()&lt;/font&gt;&lt;/div&gt;&lt;div&gt;&lt;font style=&quot;font-size: 15px;&quot;&gt;+recordSwipeAsUnKnown()&lt;/font&gt;&lt;/div&gt;&lt;div&gt;&lt;font style=&quot;font-size: 15px;&quot;&gt;+&lt;/font&gt;&lt;span style=&quot;font-size: medium;&quot;&gt;suggestSaveOptions()&lt;/span&gt;&lt;/div&gt;&lt;div&gt;&lt;span style=&quot;font-size: medium;&quot;&gt;+&lt;/span&gt;&lt;span style=&quot;font-size: medium;&quot;&gt;handleCorruptFile()&lt;/span&gt;&lt;/div&gt;" style="align=left;strokeColor=none;fillColor=none;spacingLeft=4;spacingRight=4;fontSize=12;verticalAlign=top;resizable=0;rotatable=0;part=1;html=1;whiteSpace=wrap;labelBackgroundColor=none;strokeWidth=2;" parent="EhKwJJ9LpBdOfNEoEJVP-38" vertex="1">
          <mxGeometry y="50" width="325" height="140" as="geometry" />
        </mxCell>
        <mxCell id="EhKwJJ9LpBdOfNEoEJVP-40" style="edgeStyle=orthogonalEdgeStyle;rounded=0;orthogonalLoop=1;jettySize=auto;html=1;exitX=0.5;exitY=1;exitDx=0;exitDy=0;labelBackgroundColor=none;fontColor=default;strokeWidth=2;" parent="EhKwJJ9LpBdOfNEoEJVP-38" edge="1">
          <mxGeometry relative="1" as="geometry">
            <mxPoint x="-290" y="580" as="sourcePoint" />
            <mxPoint x="-290" y="580" as="targetPoint" />
          </mxGeometry>
        </mxCell>
        <mxCell id="EhKwJJ9LpBdOfNEoEJVP-41" value="&lt;p style=&quot;margin:0px;margin-top:4px;text-align:center;&quot;&gt;&lt;font style=&quot;font-size: 15px;&quot;&gt;&amp;lt;&amp;lt;Entity&amp;gt;&amp;gt;&lt;/font&gt;&lt;/p&gt;&lt;p style=&quot;margin:0px;margin-top:4px;text-align:center;&quot;&gt;&lt;font style=&quot;font-size: 15px;&quot;&gt;FlashCardData&lt;/font&gt;&lt;/p&gt;&lt;hr size=&quot;1&quot; style=&quot;border-style:solid;&quot;&gt;&lt;p style=&quot;margin:0px;margin-left:4px;&quot;&gt;&lt;font style=&quot;font-size: 15px;&quot;&gt;&lt;font&gt;-FlashCardQuestions&lt;/font&gt;&lt;/font&gt;&lt;/p&gt;&lt;p style=&quot;margin:0px;margin-left:4px;&quot;&gt;&lt;font style=&quot;font-size: 15px;&quot;&gt;-FlashCardAnswers&lt;/font&gt;&lt;/p&gt;&lt;p style=&quot;margin:0px;margin-left:4px;&quot;&gt;&lt;font style=&quot;font-size: 15px;&quot;&gt;&lt;br&gt;&lt;/font&gt;&lt;/p&gt;&lt;hr size=&quot;1&quot; style=&quot;border-style:solid;&quot;&gt;&lt;p style=&quot;margin:0px;margin-left:4px;&quot;&gt;&lt;span style=&quot;font-size: 15px;&quot;&gt;+&lt;/span&gt;&lt;span style=&quot;font-size: 15px;&quot;&gt;&amp;nbsp;StoreFlashcards()&lt;/span&gt;&lt;/p&gt;&lt;p style=&quot;margin:0px;margin-left:4px;&quot;&gt;&lt;br&gt;&lt;/p&gt;" style="verticalAlign=top;align=left;overflow=fill;html=1;whiteSpace=wrap;" parent="1" vertex="1">
          <mxGeometry x="-1827.5" y="1882.0300000000002" width="180" height="145" as="geometry" />
        </mxCell>
        <mxCell id="EhKwJJ9LpBdOfNEoEJVP-42" value="&lt;div style=&quot;text-align: start;&quot;&gt;&lt;span style=&quot;font-weight: 400;&quot;&gt;&lt;font style=&quot;font-size: 13px;&quot;&gt;&amp;nbsp; &amp;nbsp; &amp;nbsp; &amp;nbsp; &amp;nbsp;&amp;lt;&amp;lt;boundary&amp;gt;&amp;gt;&lt;/font&gt;&lt;/span&gt;&lt;/div&gt;&lt;div style=&quot;text-align: start;&quot;&gt;&lt;span style=&quot;font-weight: 400;&quot;&gt;&lt;font style=&quot;font-size: 13px;&quot;&gt;FlashcardSelectionScreen&lt;/font&gt;&lt;/span&gt;&lt;br&gt;&lt;/div&gt;" style="swimlane;childLayout=stackLayout;horizontal=1;startSize=50;horizontalStack=0;rounded=1;fontSize=14;fontStyle=1;strokeWidth=2;resizeParent=0;resizeLast=1;shadow=0;dashed=0;align=center;arcSize=4;whiteSpace=wrap;html=1;labelBackgroundColor=none;" parent="1" vertex="1">
          <mxGeometry x="-2777.5" y="1872.9699999999998" width="330" height="164.06" as="geometry" />
        </mxCell>
        <mxCell id="EhKwJJ9LpBdOfNEoEJVP-43" style="edgeStyle=orthogonalEdgeStyle;rounded=0;orthogonalLoop=1;jettySize=auto;html=1;exitX=0.5;exitY=1;exitDx=0;exitDy=0;labelBackgroundColor=none;fontColor=default;strokeWidth=2;" parent="EhKwJJ9LpBdOfNEoEJVP-42" edge="1">
          <mxGeometry relative="1" as="geometry">
            <mxPoint x="-280" y="818.9" as="sourcePoint" />
            <mxPoint x="-280" y="818.9" as="targetPoint" />
          </mxGeometry>
        </mxCell>
        <mxCell id="EhKwJJ9LpBdOfNEoEJVP-44" value="&lt;div&gt;&lt;div&gt;&lt;font style=&quot;font-size: 15px;&quot;&gt;+selectViewFlashCard()&lt;/font&gt;&lt;/div&gt;&lt;div&gt;&lt;div&gt;&lt;font style=&quot;font-size: 15px;&quot;&gt;+displayError()&lt;/font&gt;&lt;/div&gt;&lt;/div&gt;&lt;/div&gt;&lt;div&gt;&lt;font style=&quot;font-size: 15px;&quot;&gt;&lt;br&gt;&lt;/font&gt;&lt;/div&gt;&lt;div&gt;&lt;span style=&quot;font-size: medium;&quot;&gt;&lt;br&gt;&lt;/span&gt;&lt;/div&gt;" style="align=left;strokeColor=none;fillColor=none;spacingLeft=4;spacingRight=4;fontSize=12;verticalAlign=top;resizable=0;rotatable=0;part=1;html=1;whiteSpace=wrap;labelBackgroundColor=none;strokeWidth=2;" parent="EhKwJJ9LpBdOfNEoEJVP-42" vertex="1">
          <mxGeometry y="50" width="330" height="114.06" as="geometry" />
        </mxCell>
        <mxCell id="EhKwJJ9LpBdOfNEoEJVP-45" value="&lt;div style=&quot;text-align: start;&quot;&gt;&lt;span style=&quot;font-size: 12px; font-weight: 400;&quot;&gt;&amp;lt;&amp;lt;boundary&amp;gt;&amp;gt;&lt;/span&gt;&lt;/div&gt;&lt;div style=&quot;text-align: start;&quot;&gt;&lt;span style=&quot;font-size: 12px; font-weight: 400;&quot;&gt;FlashCardPage&lt;/span&gt;&lt;/div&gt;" style="swimlane;childLayout=stackLayout;horizontal=1;startSize=50;horizontalStack=0;rounded=1;fontSize=14;fontStyle=1;strokeWidth=2;resizeParent=0;resizeLast=1;shadow=0;dashed=0;align=center;arcSize=4;whiteSpace=wrap;html=1;labelBackgroundColor=none;" parent="1" vertex="1">
          <mxGeometry x="-2303.75" y="2140" width="327.5" height="170" as="geometry" />
        </mxCell>
        <mxCell id="EhKwJJ9LpBdOfNEoEJVP-46" value="&lt;div&gt;&lt;div&gt;&lt;span style=&quot;font-size: 15px;&quot;&gt;+displayFlashCard()&lt;/span&gt;&lt;br&gt;&lt;/div&gt;&lt;div&gt;&lt;div&gt;&lt;span style=&quot;font-size: 15px;&quot;&gt;+captureSwipeAction()&lt;/span&gt;&lt;br&gt;&lt;/div&gt;&lt;/div&gt;&lt;/div&gt;&lt;div&gt;&lt;span style=&quot;font-size: 15px;&quot;&gt;+&lt;/span&gt;&lt;span style=&quot;font-size: medium;&quot;&gt;displaySaveOption()&lt;/span&gt;&lt;/div&gt;&lt;div&gt;&lt;div&gt;&lt;span style=&quot;font-size: 15px;&quot;&gt;+selectSaveFlashcards()&lt;/span&gt;&lt;br&gt;&lt;/div&gt;&lt;/div&gt;&lt;div&gt;&lt;font style=&quot;font-size: 15px;&quot;&gt;+selectD&lt;font&gt;iscardFlashcards&lt;/font&gt;()&lt;/font&gt;&lt;/div&gt;&lt;div&gt;&lt;font style=&quot;font-size: 15px;&quot;&gt;+&lt;/font&gt;&lt;span style=&quot;font-size: 15px;&quot;&gt;displayErrorMessage()&lt;/span&gt;&lt;/div&gt;" style="align=left;strokeColor=none;fillColor=none;spacingLeft=4;spacingRight=4;fontSize=12;verticalAlign=top;resizable=0;rotatable=0;part=1;html=1;whiteSpace=wrap;labelBackgroundColor=none;strokeWidth=2;" parent="EhKwJJ9LpBdOfNEoEJVP-45" vertex="1">
          <mxGeometry y="50" width="327.5" height="120" as="geometry" />
        </mxCell>
        <mxCell id="EhKwJJ9LpBdOfNEoEJVP-47" style="edgeStyle=orthogonalEdgeStyle;rounded=0;orthogonalLoop=1;jettySize=auto;html=1;exitX=0.5;exitY=1;exitDx=0;exitDy=0;labelBackgroundColor=none;fontColor=default;strokeWidth=2;" parent="EhKwJJ9LpBdOfNEoEJVP-45" edge="1">
          <mxGeometry relative="1" as="geometry">
            <mxPoint x="-290" y="580" as="sourcePoint" />
            <mxPoint x="-290" y="580" as="targetPoint" />
          </mxGeometry>
        </mxCell>
        <mxCell id="EhKwJJ9LpBdOfNEoEJVP-48" style="edgeStyle=orthogonalEdgeStyle;rounded=0;orthogonalLoop=1;jettySize=auto;html=1;entryX=0;entryY=0.5;entryDx=0;entryDy=0;endArrow=none;startFill=0;" parent="1" source="EhKwJJ9LpBdOfNEoEJVP-44" target="EhKwJJ9LpBdOfNEoEJVP-39" edge="1">
          <mxGeometry relative="1" as="geometry" />
        </mxCell>
        <mxCell id="EhKwJJ9LpBdOfNEoEJVP-49" style="edgeStyle=orthogonalEdgeStyle;rounded=0;orthogonalLoop=1;jettySize=auto;html=1;entryX=0.011;entryY=0.673;entryDx=0;entryDy=0;entryPerimeter=0;endArrow=none;startFill=0;" parent="1" source="EhKwJJ9LpBdOfNEoEJVP-39" target="EhKwJJ9LpBdOfNEoEJVP-41" edge="1">
          <mxGeometry relative="1" as="geometry" />
        </mxCell>
        <mxCell id="EhKwJJ9LpBdOfNEoEJVP-50" style="edgeStyle=orthogonalEdgeStyle;rounded=0;orthogonalLoop=1;jettySize=auto;html=1;entryX=0.5;entryY=0;entryDx=0;entryDy=0;endArrow=none;startFill=0;" parent="1" source="EhKwJJ9LpBdOfNEoEJVP-39" target="EhKwJJ9LpBdOfNEoEJVP-45" edge="1">
          <mxGeometry relative="1" as="geometry" />
        </mxCell>
        <mxCell id="EhKwJJ9LpBdOfNEoEJVP-51" value="" style="rounded=0;whiteSpace=wrap;html=1;strokeColor=#000000;strokeWidth=3;" parent="1" vertex="1">
          <mxGeometry x="-2832.5" y="2440" width="1270" height="361.1" as="geometry" />
        </mxCell>
        <mxCell id="EhKwJJ9LpBdOfNEoEJVP-52" value="&lt;div style=&quot;text-align: start;&quot;&gt;&lt;span style=&quot;font-size: 12px; font-weight: 400;&quot;&gt;&amp;nbsp; &amp;nbsp; &amp;nbsp;&amp;lt;&amp;lt;controller&amp;gt;&amp;gt;&lt;/span&gt;&lt;/div&gt;&lt;div style=&quot;text-align: start;&quot;&gt;&lt;font style=&quot;font-weight: normal; font-size: 13px;&quot;&gt;StudyPlanController&lt;/font&gt;&lt;br&gt;&lt;/div&gt;" style="swimlane;childLayout=stackLayout;horizontal=1;startSize=50;horizontalStack=0;rounded=1;fontSize=14;fontStyle=1;strokeWidth=2;resizeParent=0;resizeLast=1;shadow=0;dashed=0;align=center;arcSize=4;whiteSpace=wrap;html=1;labelBackgroundColor=none;" parent="1" vertex="1">
          <mxGeometry x="-2347.5" y="2516.9100000000003" width="370" height="175.49" as="geometry" />
        </mxCell>
        <mxCell id="EhKwJJ9LpBdOfNEoEJVP-53" value="&lt;div&gt;&lt;div&gt;&lt;font style=&quot;font-size: 14px;&quot;&gt;+requestTaskInput()&lt;/font&gt;&lt;br&gt;&lt;/div&gt;&lt;/div&gt;&lt;div&gt;&lt;font style=&quot;font-size: 14px;&quot;&gt;+validateTaskDetails()&lt;/font&gt;&lt;/div&gt;&lt;div&gt;&lt;font style=&quot;font-size: 14px;&quot;&gt;+prioritizeTasks()&lt;/font&gt;&lt;/div&gt;&lt;div&gt;&lt;font style=&quot;font-size: 14px;&quot;&gt;+generateStudyPlan()&lt;/font&gt;&lt;/div&gt;&lt;div&gt;&lt;font style=&quot;font-size: 14px;&quot;&gt;+handleIncompleteDetails()&lt;/font&gt;&lt;/div&gt;&lt;div&gt;&lt;font style=&quot;font-size: 14px;&quot;&gt;+handleError()&lt;/font&gt;&lt;/div&gt;" style="align=left;strokeColor=none;fillColor=none;spacingLeft=4;spacingRight=4;fontSize=12;verticalAlign=top;resizable=0;rotatable=0;part=1;html=1;whiteSpace=wrap;labelBackgroundColor=none;strokeWidth=2;" parent="EhKwJJ9LpBdOfNEoEJVP-52" vertex="1">
          <mxGeometry y="50" width="370" height="125.49000000000001" as="geometry" />
        </mxCell>
        <mxCell id="EhKwJJ9LpBdOfNEoEJVP-54" style="edgeStyle=orthogonalEdgeStyle;rounded=0;orthogonalLoop=1;jettySize=auto;html=1;exitX=0.5;exitY=1;exitDx=0;exitDy=0;labelBackgroundColor=none;fontColor=default;strokeWidth=2;" parent="EhKwJJ9LpBdOfNEoEJVP-52" edge="1">
          <mxGeometry relative="1" as="geometry">
            <mxPoint x="-320" y="1325.3" as="sourcePoint" />
            <mxPoint x="-320" y="1325.3" as="targetPoint" />
          </mxGeometry>
        </mxCell>
        <mxCell id="EhKwJJ9LpBdOfNEoEJVP-55" value="&lt;p style=&quot;margin:0px;margin-top:4px;text-align:center;&quot;&gt;&lt;font style=&quot;font-size: 15px;&quot;&gt;&amp;lt;&amp;lt;Entity&amp;gt;&amp;gt;&lt;/font&gt;&lt;/p&gt;&lt;p style=&quot;margin:0px;margin-top:4px;text-align:center;&quot;&gt;&lt;font style=&quot;font-size: 15px;&quot;&gt;StudyPlan&lt;/font&gt;&lt;/p&gt;&lt;hr size=&quot;1&quot; style=&quot;border-style:solid;&quot;&gt;&lt;p style=&quot;margin:0px;margin-left:4px;&quot;&gt;&lt;font style=&quot;font-size: 14px;&quot;&gt;-studyPlanTitle&lt;br&gt;&lt;/font&gt;&lt;/p&gt;&lt;p style=&quot;margin:0px;margin-left:4px;&quot;&gt;&lt;font style=&quot;font-size: 14px;&quot;&gt;-taskTitle&lt;/font&gt;&lt;/p&gt;&lt;p style=&quot;margin:0px;margin-left:4px;&quot;&gt;&lt;font style=&quot;font-size: 14px;&quot;&gt;ـ taskDeadline&lt;/font&gt;&lt;/p&gt;&lt;p style=&quot;margin:0px;margin-left:4px;&quot;&gt;&lt;font style=&quot;font-size: 14px;&quot;&gt;-taskPriorities&lt;/font&gt;&lt;/p&gt;&lt;hr size=&quot;1&quot; style=&quot;border-style:solid;&quot;&gt;&lt;p style=&quot;margin:0px;margin-left:4px;&quot;&gt;&lt;font style=&quot;font-size: 14px;&quot;&gt;+getStudyPlan()&lt;/font&gt;&lt;/p&gt;&lt;p style=&quot;margin:0px;margin-left:4px;&quot;&gt;&lt;font style=&quot;font-size: 14px;&quot;&gt;+saveStudyPlan()&lt;/font&gt;&lt;/p&gt;&lt;p style=&quot;margin:0px;margin-left:4px;&quot;&gt;&lt;font style=&quot;font-size: 14px;&quot;&gt;+saveTasks()&lt;/font&gt;&lt;/p&gt;&lt;p style=&quot;margin:0px;margin-left:4px;&quot;&gt;&lt;font style=&quot;font-size: 14px;&quot;&gt;+getTaskDetails()&lt;/font&gt;&lt;br&gt;&lt;/p&gt;" style="verticalAlign=top;align=left;overflow=fill;html=1;whiteSpace=wrap;" parent="1" vertex="1">
          <mxGeometry x="-1785" y="2480" width="185" height="240" as="geometry" />
        </mxCell>
        <mxCell id="EhKwJJ9LpBdOfNEoEJVP-56" value="&lt;div style=&quot;text-align: start;&quot;&gt;&lt;span style=&quot;font-weight: 400;&quot;&gt;&lt;font style=&quot;font-size: 13px;&quot;&gt;&amp;nbsp; &amp;nbsp;&amp;lt;&amp;lt;boundary&amp;gt;&amp;gt;&lt;/font&gt;&lt;/span&gt;&lt;/div&gt;&lt;div style=&quot;text-align: start;&quot;&gt;&lt;span style=&quot;font-weight: 400;&quot;&gt;&lt;font style=&quot;font-size: 15px;&quot;&gt;StudyPlanPage&lt;/font&gt;&lt;/span&gt;&lt;br&gt;&lt;/div&gt;" style="swimlane;childLayout=stackLayout;horizontal=1;startSize=50;horizontalStack=0;rounded=1;fontSize=14;fontStyle=1;strokeWidth=2;resizeParent=0;resizeLast=1;shadow=0;dashed=0;align=center;arcSize=4;whiteSpace=wrap;html=1;labelBackgroundColor=none;" parent="1" vertex="1">
          <mxGeometry x="-2810" y="2519.31" width="327.5" height="170.69" as="geometry" />
        </mxCell>
        <mxCell id="EhKwJJ9LpBdOfNEoEJVP-57" value="&lt;div&gt;&lt;div&gt;&lt;font style=&quot;font-size: 14px;&quot;&gt;&lt;font&gt;+&lt;/font&gt;selectGetStudyPlan()&lt;/font&gt;&lt;/div&gt;&lt;div&gt;&lt;font style=&quot;font-size: 15px;&quot;&gt;+displayTaskForm()&lt;/font&gt;&lt;/div&gt;&lt;/div&gt;&lt;div&gt;&lt;font style=&quot;font-size: 15px;&quot;&gt;+submitTaskDetails()&lt;/font&gt;&lt;/div&gt;&lt;div&gt;&lt;span style=&quot;font-size: 15px;&quot;&gt;+&lt;/span&gt;displayStudyPlan&lt;span style=&quot;font-size: 15px;&quot;&gt;()&lt;/span&gt;&lt;/div&gt;&lt;div&gt;&lt;font style=&quot;font-size: 15px;&quot;&gt;+displayErrorMessage()&lt;/font&gt;&lt;/div&gt;" style="align=left;strokeColor=none;fillColor=none;spacingLeft=4;spacingRight=4;fontSize=12;verticalAlign=top;resizable=0;rotatable=0;part=1;html=1;whiteSpace=wrap;labelBackgroundColor=none;strokeWidth=2;" parent="EhKwJJ9LpBdOfNEoEJVP-56" vertex="1">
          <mxGeometry y="50" width="327.5" height="120.69" as="geometry" />
        </mxCell>
        <mxCell id="EhKwJJ9LpBdOfNEoEJVP-58" style="edgeStyle=orthogonalEdgeStyle;rounded=0;orthogonalLoop=1;jettySize=auto;html=1;entryX=1;entryY=0.5;entryDx=0;entryDy=0;endArrow=none;startFill=0;" parent="1" source="EhKwJJ9LpBdOfNEoEJVP-53" target="EhKwJJ9LpBdOfNEoEJVP-57" edge="1">
          <mxGeometry relative="1" as="geometry" />
        </mxCell>
        <mxCell id="EhKwJJ9LpBdOfNEoEJVP-59" value="" style="rounded=0;whiteSpace=wrap;html=1;strokeColor=#000000;strokeWidth=3;" parent="1" vertex="1">
          <mxGeometry x="-2822.5" y="3825" width="1160" height="260" as="geometry" />
        </mxCell>
        <mxCell id="EhKwJJ9LpBdOfNEoEJVP-60" value="&lt;div style=&quot;text-align: start;&quot;&gt;&lt;span style=&quot;font-weight: 400;&quot;&gt;&lt;font style=&quot;font-size: 13px;&quot;&gt;&amp;nbsp; &amp;nbsp;&amp;lt;&amp;lt;boundary&amp;gt;&amp;gt;&lt;/font&gt;&lt;/span&gt;&lt;/div&gt;&lt;div style=&quot;text-align: start;&quot;&gt;&lt;span style=&quot;font-weight: normal;&quot;&gt;ProgressPage&lt;/span&gt;&lt;br&gt;&lt;/div&gt;" style="swimlane;childLayout=stackLayout;horizontal=1;startSize=50;horizontalStack=0;rounded=1;fontSize=14;fontStyle=1;strokeWidth=2;resizeParent=0;resizeLast=1;shadow=0;dashed=0;align=center;arcSize=4;whiteSpace=wrap;html=1;labelBackgroundColor=none;" parent="1" vertex="1">
          <mxGeometry x="-2797.5" y="3874.01" width="310" height="153.02" as="geometry" />
        </mxCell>
        <mxCell id="EhKwJJ9LpBdOfNEoEJVP-61" value="&lt;div&gt;&lt;div&gt;&lt;font style=&quot;font-size: 14px;&quot;&gt;+selectTrackProgress()&lt;/font&gt;&lt;/div&gt;&lt;/div&gt;&lt;div&gt;&lt;font style=&quot;font-size: 14px;&quot;&gt;+displayProgressData()&lt;/font&gt;&lt;/div&gt;&lt;div&gt;&lt;font&gt;+&lt;font style=&quot;font-size: 14px;&quot;&gt;showErrorMessage&lt;/font&gt;()&lt;/font&gt;&lt;/div&gt;&lt;div&gt;+&lt;font style=&quot;font-size: 14px;&quot;&gt;showNoProgressMessage&lt;/font&gt;()&lt;/div&gt;&lt;div&gt;&lt;br&gt;&lt;/div&gt;" style="align=left;strokeColor=none;fillColor=none;spacingLeft=4;spacingRight=4;fontSize=12;verticalAlign=top;resizable=0;rotatable=0;part=1;html=1;whiteSpace=wrap;labelBackgroundColor=none;strokeWidth=2;" parent="EhKwJJ9LpBdOfNEoEJVP-60" vertex="1">
          <mxGeometry y="50" width="310" height="103.02000000000001" as="geometry" />
        </mxCell>
        <mxCell id="EhKwJJ9LpBdOfNEoEJVP-62" style="edgeStyle=orthogonalEdgeStyle;rounded=0;orthogonalLoop=1;jettySize=auto;html=1;exitX=0.5;exitY=1;exitDx=0;exitDy=0;" parent="EhKwJJ9LpBdOfNEoEJVP-60" source="EhKwJJ9LpBdOfNEoEJVP-61" target="EhKwJJ9LpBdOfNEoEJVP-61" edge="1">
          <mxGeometry relative="1" as="geometry" />
        </mxCell>
        <mxCell id="EhKwJJ9LpBdOfNEoEJVP-63" style="edgeStyle=orthogonalEdgeStyle;rounded=0;orthogonalLoop=1;jettySize=auto;html=1;exitX=0.5;exitY=1;exitDx=0;exitDy=0;labelBackgroundColor=none;fontColor=default;strokeWidth=2;" parent="EhKwJJ9LpBdOfNEoEJVP-60" edge="1">
          <mxGeometry relative="1" as="geometry">
            <mxPoint x="-280" y="1005" as="sourcePoint" />
            <mxPoint x="-280" y="1005" as="targetPoint" />
          </mxGeometry>
        </mxCell>
        <mxCell id="EhKwJJ9LpBdOfNEoEJVP-64" value="&lt;div style=&quot;text-align: start;&quot;&gt;&lt;span style=&quot;font-size: 12px; font-weight: 400;&quot;&gt;&amp;nbsp; &amp;nbsp; &amp;nbsp;&amp;lt;&amp;lt;controller&amp;gt;&amp;gt;&lt;/span&gt;&lt;/div&gt;&lt;div style=&quot;text-align: start;&quot;&gt;&lt;span style=&quot;font-weight: 400;&quot;&gt;&lt;font&gt;ProgressController&lt;/font&gt;&lt;/span&gt;&lt;br&gt;&lt;/div&gt;" style="swimlane;childLayout=stackLayout;horizontal=1;startSize=50;horizontalStack=0;rounded=1;fontSize=14;fontStyle=1;strokeWidth=2;resizeParent=0;resizeLast=1;shadow=0;dashed=0;align=center;arcSize=4;whiteSpace=wrap;html=1;labelBackgroundColor=none;" parent="1" vertex="1">
          <mxGeometry x="-2372.5" y="3880.5200000000004" width="290" height="140" as="geometry" />
        </mxCell>
        <mxCell id="EhKwJJ9LpBdOfNEoEJVP-65" value="&lt;div&gt;&lt;div&gt;&lt;font style=&quot;font-size: 14px;&quot;&gt;+getProgressData()&lt;/font&gt;&lt;/div&gt;&lt;/div&gt;&lt;div&gt;&lt;font style=&quot;font-size: 12px;&quot;&gt;+&lt;/font&gt;&lt;font style=&quot;font-size: 14px;&quot;&gt;calculateDailyProgress&lt;/font&gt;&lt;font style=&quot;font-size: 12px;&quot;&gt;()&lt;/font&gt;&lt;/div&gt;&lt;div&gt;&lt;font style=&quot;font-size: 14px;&quot;&gt;+handleNoProgressData()&lt;/font&gt;&lt;/div&gt;&lt;div&gt;&lt;font style=&quot;font-size: 14px;&quot;&gt;+&lt;font&gt;handleError&lt;/font&gt;()&lt;/font&gt;&lt;/div&gt;" style="align=left;strokeColor=none;fillColor=none;spacingLeft=4;spacingRight=4;fontSize=12;verticalAlign=top;resizable=0;rotatable=0;part=1;html=1;whiteSpace=wrap;labelBackgroundColor=none;strokeWidth=2;" parent="EhKwJJ9LpBdOfNEoEJVP-64" vertex="1">
          <mxGeometry y="50" width="290" height="90" as="geometry" />
        </mxCell>
        <mxCell id="EhKwJJ9LpBdOfNEoEJVP-66" style="edgeStyle=orthogonalEdgeStyle;rounded=0;orthogonalLoop=1;jettySize=auto;html=1;exitX=0.5;exitY=1;exitDx=0;exitDy=0;labelBackgroundColor=none;fontColor=default;strokeWidth=2;" parent="EhKwJJ9LpBdOfNEoEJVP-64" edge="1">
          <mxGeometry relative="1" as="geometry">
            <mxPoint x="-281.87" y="1186.4" as="sourcePoint" />
            <mxPoint x="-281.87" y="1186.4" as="targetPoint" />
          </mxGeometry>
        </mxCell>
        <mxCell id="EhKwJJ9LpBdOfNEoEJVP-67" value="&lt;p style=&quot;margin:0px;margin-top:4px;text-align:center;&quot;&gt;&lt;font style=&quot;font-size: 15px;&quot;&gt;&amp;lt;&amp;lt;Entity&amp;gt;&amp;gt;&lt;/font&gt;&lt;/p&gt;&lt;p style=&quot;margin:0px;margin-top:4px;text-align:center;&quot;&gt;&lt;font style=&quot;font-size: 15px;&quot;&gt;ProgressData&lt;/font&gt;&lt;/p&gt;&lt;hr size=&quot;1&quot; style=&quot;border-style:solid;&quot;&gt;&lt;p style=&quot;margin:0px;margin-left:4px;&quot;&gt;&lt;font style=&quot;font-size: 14px;&quot;&gt;-quizResults&lt;br&gt;&lt;/font&gt;&lt;/p&gt;&lt;p style=&quot;margin:0px;margin-left:4px;&quot;&gt;&lt;font style=&quot;font-size: 14px;&quot;&gt;ـ completedTasks&lt;/font&gt;&lt;/p&gt;&lt;p style=&quot;margin:0px;margin-left:4px;&quot;&gt;&lt;font style=&quot;font-size: 14px;&quot;&gt;-completedSessions&lt;/font&gt;&lt;/p&gt;&lt;p style=&quot;margin:0px;margin-left:4px;&quot;&gt;&lt;font style=&quot;font-size: 14px;&quot;&gt;-lastUpdated&lt;/font&gt;&lt;/p&gt;&lt;hr size=&quot;1&quot; style=&quot;border-style:solid;&quot;&gt;&lt;p style=&quot;margin:0px;margin-left:4px;&quot;&gt;+&lt;font style=&quot;font-size: 14px;&quot;&gt;getQuizResults&lt;/font&gt;()&lt;br&gt;&lt;/p&gt;&lt;p style=&quot;margin:0px;margin-left:4px;&quot;&gt;+&lt;font style=&quot;font-size: 14px;&quot;&gt;getCompletedTasks&lt;/font&gt;()&lt;/p&gt;&lt;p style=&quot;margin:0px;margin-left:4px;&quot;&gt;+&lt;font style=&quot;font-size: 14px;&quot;&gt;getCompletedSessions&lt;/font&gt;()&lt;/p&gt;&lt;p style=&quot;margin:0px;margin-left:4px;&quot;&gt;+&lt;font style=&quot;font-size: 14px;&quot;&gt;saveProgressData&lt;/font&gt;()&lt;/p&gt;" style="verticalAlign=top;align=left;overflow=fill;html=1;whiteSpace=wrap;" parent="1" vertex="1">
          <mxGeometry x="-1965" y="3850.78" width="275" height="199.48" as="geometry" />
        </mxCell>
        <mxCell id="EhKwJJ9LpBdOfNEoEJVP-68" style="edgeStyle=orthogonalEdgeStyle;rounded=0;orthogonalLoop=1;jettySize=auto;html=1;entryX=0;entryY=0.5;entryDx=0;entryDy=0;endArrow=none;startFill=0;" parent="1" source="EhKwJJ9LpBdOfNEoEJVP-61" target="EhKwJJ9LpBdOfNEoEJVP-65" edge="1">
          <mxGeometry relative="1" as="geometry" />
        </mxCell>
        <mxCell id="EhKwJJ9LpBdOfNEoEJVP-69" style="edgeStyle=orthogonalEdgeStyle;rounded=0;orthogonalLoop=1;jettySize=auto;html=1;entryX=0.014;entryY=0.627;entryDx=0;entryDy=0;entryPerimeter=0;endArrow=none;startFill=0;" parent="1" source="EhKwJJ9LpBdOfNEoEJVP-65" target="EhKwJJ9LpBdOfNEoEJVP-67" edge="1">
          <mxGeometry relative="1" as="geometry" />
        </mxCell>
        <mxCell id="EhKwJJ9LpBdOfNEoEJVP-70" value="" style="rounded=0;whiteSpace=wrap;html=1;strokeColor=#000000;strokeWidth=3;" parent="1" vertex="1">
          <mxGeometry x="-2822.5" y="4116.1" width="1210" height="290" as="geometry" />
        </mxCell>
        <mxCell id="EhKwJJ9LpBdOfNEoEJVP-71" style="edgeStyle=orthogonalEdgeStyle;rounded=0;orthogonalLoop=1;jettySize=auto;html=1;exitX=0.5;exitY=1;exitDx=0;exitDy=0;labelBackgroundColor=none;fontColor=default;strokeWidth=2;" parent="1" edge="1">
          <mxGeometry relative="1" as="geometry">
            <mxPoint x="-2623.75" y="4350.54" as="sourcePoint" />
            <mxPoint x="-2623.75" y="4350.54" as="targetPoint" />
          </mxGeometry>
        </mxCell>
        <mxCell id="EhKwJJ9LpBdOfNEoEJVP-72" style="edgeStyle=orthogonalEdgeStyle;rounded=0;orthogonalLoop=1;jettySize=auto;html=1;exitX=0.5;exitY=1;exitDx=0;exitDy=0;" parent="1" edge="1">
          <mxGeometry relative="1" as="geometry">
            <mxPoint x="-2643.75" y="4293.14" as="sourcePoint" />
            <mxPoint x="-2643.75" y="4293.14" as="targetPoint" />
          </mxGeometry>
        </mxCell>
        <mxCell id="EhKwJJ9LpBdOfNEoEJVP-73" value="&lt;div style=&quot;text-align: start;&quot;&gt;&lt;span style=&quot;font-size: 12px; font-weight: 400;&quot;&gt;&amp;nbsp; &amp;nbsp; &amp;nbsp; &amp;nbsp; &amp;nbsp; &amp;nbsp;&amp;lt;&amp;lt;controller&amp;gt;&amp;gt;&lt;/span&gt;&lt;/div&gt;&lt;div style=&quot;text-align: start;&quot;&gt;&lt;span style=&quot;font-weight: normal;&quot;&gt;StudySessionController&lt;/span&gt;&lt;br&gt;&lt;/div&gt;" style="swimlane;childLayout=stackLayout;horizontal=1;startSize=50;horizontalStack=0;rounded=1;fontSize=14;fontStyle=1;strokeWidth=2;resizeParent=0;resizeLast=1;shadow=0;dashed=0;align=center;arcSize=4;whiteSpace=wrap;html=1;labelBackgroundColor=none;" parent="1" vertex="1">
          <mxGeometry x="-2345" y="4139.55" width="315" height="243.62" as="geometry" />
        </mxCell>
        <mxCell id="EhKwJJ9LpBdOfNEoEJVP-74" style="edgeStyle=orthogonalEdgeStyle;rounded=0;orthogonalLoop=1;jettySize=auto;html=1;exitX=0.5;exitY=1;exitDx=0;exitDy=0;labelBackgroundColor=none;fontColor=default;strokeWidth=2;" parent="EhKwJJ9LpBdOfNEoEJVP-73" edge="1">
          <mxGeometry relative="1" as="geometry">
            <mxPoint x="-280" y="818.9" as="sourcePoint" />
            <mxPoint x="-280" y="818.9" as="targetPoint" />
          </mxGeometry>
        </mxCell>
        <mxCell id="EhKwJJ9LpBdOfNEoEJVP-75" value="&lt;div&gt;&lt;div&gt;&lt;div&gt;+initializeSessionName()&lt;/div&gt;&lt;div&gt;&lt;/div&gt;&lt;/div&gt;&lt;div&gt;+initializeSession()&lt;/div&gt;&lt;/div&gt;&lt;div&gt;+renameSession()&lt;br&gt;&lt;/div&gt;&lt;div&gt;+&lt;font&gt;updateStudyDuration&lt;/font&gt;()&lt;/div&gt;&lt;div&gt;+updateBreakDuration()&lt;/div&gt;&lt;div&gt;+startSessionTimer()&lt;br&gt;&lt;/div&gt;&lt;div&gt;+pauseSession()&lt;/div&gt;&lt;div&gt;&lt;font&gt;+resumeSession()&lt;/font&gt;&lt;/div&gt;&lt;div&gt;+endSession()&lt;/div&gt;&lt;div&gt;+&lt;font&gt;notifyEndOfStudySession()&lt;/font&gt;&lt;/div&gt;&lt;div&gt;&lt;font&gt;+&lt;/font&gt;notifyEndOfBreak()&lt;/div&gt;&lt;div&gt;+recordCompletedSession()&lt;/div&gt;&lt;div&gt;+&lt;font&gt;handleError&lt;/font&gt;()&lt;/div&gt;" style="align=left;strokeColor=none;fillColor=none;spacingLeft=4;spacingRight=4;fontSize=12;verticalAlign=top;resizable=0;rotatable=0;part=1;html=1;whiteSpace=wrap;labelBackgroundColor=none;strokeWidth=2;" parent="EhKwJJ9LpBdOfNEoEJVP-73" vertex="1">
          <mxGeometry y="50" width="315" height="193.62" as="geometry" />
        </mxCell>
        <mxCell id="EhKwJJ9LpBdOfNEoEJVP-76" value="&lt;p style=&quot;margin:0px;margin-top:4px;text-align:center;&quot;&gt;&lt;font style=&quot;font-size: 15px;&quot;&gt;&amp;lt;&amp;lt;Entity&amp;gt;&amp;gt;&lt;/font&gt;&lt;/p&gt;&lt;p style=&quot;margin:0px;margin-top:4px;text-align:center;&quot;&gt;&lt;span style=&quot;text-align: start; font-size: medium;&quot;&gt;StudySessionData&lt;/span&gt;&lt;br&gt;&lt;/p&gt;&lt;hr size=&quot;1&quot; style=&quot;border-style:solid;&quot;&gt;&lt;p style=&quot;margin:0px;margin-left:4px;&quot;&gt;-sessionName&lt;br&gt;&lt;/p&gt;&lt;p style=&quot;margin:0px;margin-left:4px;&quot;&gt;ـ studyDuration&lt;/p&gt;&lt;p style=&quot;margin:0px;margin-left:4px;&quot;&gt;-breakDuration&lt;/p&gt;&lt;p style=&quot;margin:0px;margin-left:4px;&quot;&gt;-sessionStatus&lt;/p&gt;&lt;p style=&quot;margin:0px;margin-left:4px;&quot;&gt;-startTime&lt;/p&gt;&lt;p style=&quot;margin:0px;margin-left:4px;&quot;&gt;-endTime&lt;/p&gt;&lt;hr size=&quot;1&quot; style=&quot;border-style:solid;&quot;&gt;&lt;p style=&quot;margin:0px;margin-left:4px;&quot;&gt;+saveSessionsData()&lt;/p&gt;&lt;p style=&quot;margin:0px;margin-left:4px;&quot;&gt;+&lt;font style=&quot;font-size: 13px;&quot;&gt;getSessionDetails&lt;/font&gt;()&lt;/p&gt;&lt;p style=&quot;margin:0px;margin-left:4px;&quot;&gt;&lt;br&gt;&lt;/p&gt;" style="verticalAlign=top;align=left;overflow=fill;html=1;whiteSpace=wrap;" parent="1" vertex="1">
          <mxGeometry x="-1923.75" y="4162.330000000001" width="270" height="202.03" as="geometry" />
        </mxCell>
        <mxCell id="EhKwJJ9LpBdOfNEoEJVP-77" value="&lt;div style=&quot;text-align: start;&quot;&gt;&lt;span style=&quot;font-weight: 400;&quot;&gt;&lt;font style=&quot;font-size: 13px;&quot;&gt;&amp;nbsp; &amp;nbsp;&amp;lt;&amp;lt;boundary&amp;gt;&amp;gt;&lt;/font&gt;&lt;/span&gt;&lt;/div&gt;&lt;div style=&quot;text-align: start;&quot;&gt;&lt;span style=&quot;font-weight: normal;&quot;&gt;StudySessionPage&lt;/span&gt;&lt;br&gt;&lt;/div&gt;" style="swimlane;childLayout=stackLayout;horizontal=1;startSize=50;horizontalStack=0;rounded=1;fontSize=14;fontStyle=1;strokeWidth=2;resizeParent=0;resizeLast=1;shadow=0;dashed=0;align=center;arcSize=4;whiteSpace=wrap;html=1;labelBackgroundColor=none;" parent="1" vertex="1">
          <mxGeometry x="-2788.75" y="4131.610000000001" width="336.25" height="259.49" as="geometry" />
        </mxCell>
        <mxCell id="EhKwJJ9LpBdOfNEoEJVP-78" style="edgeStyle=orthogonalEdgeStyle;rounded=0;orthogonalLoop=1;jettySize=auto;html=1;exitX=0.5;exitY=1;exitDx=0;exitDy=0;labelBackgroundColor=none;fontColor=default;strokeWidth=2;" parent="EhKwJJ9LpBdOfNEoEJVP-77" edge="1">
          <mxGeometry relative="1" as="geometry">
            <mxPoint x="-280" y="818.9" as="sourcePoint" />
            <mxPoint x="-280" y="818.9" as="targetPoint" />
          </mxGeometry>
        </mxCell>
        <mxCell id="EhKwJJ9LpBdOfNEoEJVP-79" value="&lt;div&gt;&lt;div&gt;&lt;font style=&quot;font-size: 13px;&quot;&gt;+selectStartSession()&lt;/font&gt;&lt;/div&gt;&lt;/div&gt;&lt;div&gt;&lt;font style=&quot;font-size: 13px;&quot;&gt;&lt;font&gt;+&lt;/font&gt;displaySessionName()&lt;/font&gt;&lt;/div&gt;&lt;div&gt;&lt;font style=&quot;font-size: 13px;&quot;&gt;&lt;div&gt;+renameSession()&lt;/div&gt;&lt;/font&gt;&lt;/div&gt;&lt;div&gt;&lt;font style=&quot;font-size: 13px;&quot;&gt;+modifyStudyDuration()&lt;/font&gt;&lt;/div&gt;&lt;div&gt;&lt;font style=&quot;font-size: 13px;&quot;&gt;+modifyBreakDuration()&lt;/font&gt;&lt;/div&gt;&lt;div&gt;&lt;font style=&quot;font-size: 13px;&quot;&gt;+startTimer()&lt;/font&gt;&lt;/div&gt;&lt;div&gt;&lt;font style=&quot;font-size: 13px;&quot;&gt;+pauseTimer()&lt;/font&gt;&lt;/div&gt;&lt;div&gt;&lt;font style=&quot;font-size: 13px;&quot;&gt;+resumeTimer()&lt;/font&gt;&lt;/div&gt;&lt;div&gt;&lt;font style=&quot;font-size: 13px;&quot;&gt;+endSession()&lt;/font&gt;&lt;/div&gt;&lt;div&gt;&lt;font style=&quot;font-size: 13px;&quot;&gt;+&lt;font&gt;displayTimerStatus&lt;/font&gt;()&lt;/font&gt;&lt;/div&gt;&lt;div&gt;&lt;font style=&quot;font-size: 13px;&quot;&gt;+displayStudyEndNotification()&lt;/font&gt;&lt;/div&gt;&lt;div&gt;&lt;font style=&quot;font-size: 13px;&quot;&gt;+displayBreakEndNotification()&lt;/font&gt;&lt;/div&gt;&lt;div&gt;&lt;font style=&quot;font-size: 13px;&quot;&gt;&lt;font&gt;+&lt;/font&gt;&lt;font&gt;displayErrorMessage&lt;/font&gt;&lt;font&gt;()&lt;/font&gt;&lt;/font&gt;&lt;/div&gt;&lt;div&gt;&lt;br&gt;&lt;/div&gt;" style="align=left;strokeColor=none;fillColor=none;spacingLeft=4;spacingRight=4;fontSize=12;verticalAlign=top;resizable=0;rotatable=0;part=1;html=1;whiteSpace=wrap;labelBackgroundColor=none;strokeWidth=2;" parent="EhKwJJ9LpBdOfNEoEJVP-77" vertex="1">
          <mxGeometry y="50" width="336.25" height="209.49" as="geometry" />
        </mxCell>
        <mxCell id="EhKwJJ9LpBdOfNEoEJVP-80" style="edgeStyle=orthogonalEdgeStyle;rounded=0;orthogonalLoop=1;jettySize=auto;html=1;entryX=1;entryY=0.5;entryDx=0;entryDy=0;endArrow=none;startFill=0;" parent="1" source="EhKwJJ9LpBdOfNEoEJVP-75" target="EhKwJJ9LpBdOfNEoEJVP-79" edge="1">
          <mxGeometry relative="1" as="geometry" />
        </mxCell>
        <mxCell id="EhKwJJ9LpBdOfNEoEJVP-81" style="edgeStyle=orthogonalEdgeStyle;rounded=0;orthogonalLoop=1;jettySize=auto;html=1;endArrow=none;startFill=0;" parent="1" source="EhKwJJ9LpBdOfNEoEJVP-75" edge="1">
          <mxGeometry relative="1" as="geometry">
            <mxPoint x="-1921.5" y="4286.1" as="targetPoint" />
          </mxGeometry>
        </mxCell>
        <mxCell id="EhKwJJ9LpBdOfNEoEJVP-82" style="edgeStyle=orthogonalEdgeStyle;rounded=0;orthogonalLoop=1;jettySize=auto;html=1;exitX=0.5;exitY=1;exitDx=0;exitDy=0;labelBackgroundColor=none;fontColor=default;strokeWidth=2;" parent="1" edge="1">
          <mxGeometry relative="1" as="geometry">
            <mxPoint x="-2600" y="2870" as="sourcePoint" />
            <mxPoint x="-2600" y="2870" as="targetPoint" />
          </mxGeometry>
        </mxCell>
        <mxCell id="EhKwJJ9LpBdOfNEoEJVP-83" style="edgeStyle=orthogonalEdgeStyle;rounded=0;orthogonalLoop=1;jettySize=auto;html=1;exitX=0.5;exitY=1;exitDx=0;exitDy=0;labelBackgroundColor=none;fontColor=default;strokeWidth=2;" parent="1" edge="1">
          <mxGeometry relative="1" as="geometry">
            <mxPoint x="-2601.25" y="3150" as="sourcePoint" />
            <mxPoint x="-2601.25" y="3150" as="targetPoint" />
          </mxGeometry>
        </mxCell>
        <mxCell id="EhKwJJ9LpBdOfNEoEJVP-84" value="&lt;div style=&quot;text-align: left;&quot;&gt;&lt;div&gt;&lt;br&gt;&lt;/div&gt;&lt;/div&gt;" style="rounded=0;whiteSpace=wrap;html=1;strokeColor=#000000;strokeWidth=3;" parent="1" vertex="1">
          <mxGeometry x="-2840" y="2830" width="1150" height="440" as="geometry" />
        </mxCell>
        <mxCell id="EhKwJJ9LpBdOfNEoEJVP-85" value="&lt;p style=&quot;margin:0px;margin-top:4px;text-align:center;&quot;&gt;&lt;font style=&quot;font-size: 14px;&quot;&gt;&amp;lt;&amp;lt;Entity&amp;gt;&amp;gt;&lt;/font&gt;&lt;/p&gt;&lt;p style=&quot;margin:0px;margin-top:4px;text-align:center;&quot;&gt;&lt;font style=&quot;font-size: 14px;&quot;&gt;StudyPlan&lt;/font&gt;&lt;/p&gt;&lt;hr size=&quot;1&quot; style=&quot;border-style:solid;&quot;&gt;&lt;p style=&quot;margin:0px;margin-left:4px;&quot;&gt;&lt;span style=&quot;font-size: 14.000001px;&quot;&gt;-studyPlans()&lt;/span&gt;&lt;/p&gt;&lt;hr size=&quot;1&quot; style=&quot;border-style:solid;&quot;&gt;&lt;p style=&quot;margin:0px;margin-left:4px;&quot;&gt;&lt;font style=&quot;font-size: 15px;&quot;&gt;+&lt;/font&gt;&lt;font style=&quot;font-size: 14px;&quot;&gt;getAllStudyPlans()&lt;/font&gt;&lt;/p&gt;&lt;p style=&quot;margin:0px;margin-left:4px;&quot;&gt;&lt;br&gt;&lt;/p&gt;" style="verticalAlign=top;align=left;overflow=fill;html=1;whiteSpace=wrap;" parent="1" vertex="1">
          <mxGeometry x="-1887.5" y="2879.9999999999995" width="157.5" height="136.94" as="geometry" />
        </mxCell>
        <mxCell id="EhKwJJ9LpBdOfNEoEJVP-86" value="&lt;div style=&quot;&quot;&gt;&lt;span style=&quot;font-weight: 400;&quot;&gt;&lt;font style=&quot;font-size: 14px;&quot;&gt;&amp;lt;&amp;lt;boundary&amp;gt;&amp;gt;&lt;/font&gt;&lt;/span&gt;&lt;/div&gt;&lt;div style=&quot;&quot;&gt;&lt;span style=&quot;font-size: medium; font-weight: 400;&quot;&gt;&amp;nbsp;HomePage&lt;/span&gt;&lt;/div&gt;" style="swimlane;childLayout=stackLayout;horizontal=1;startSize=50;horizontalStack=0;rounded=1;fontSize=14;fontStyle=1;strokeWidth=2;resizeParent=0;resizeLast=1;shadow=0;dashed=0;align=center;arcSize=4;whiteSpace=wrap;html=1;labelBackgroundColor=none;" parent="1" vertex="1">
          <mxGeometry x="-2790" y="2860" width="330" height="150.69" as="geometry" />
        </mxCell>
        <mxCell id="EhKwJJ9LpBdOfNEoEJVP-87" value="&lt;div&gt;&lt;div&gt;&lt;font style=&quot;font-size: 14px;&quot;&gt;&lt;font&gt;+&lt;/font&gt;selectViewStudyPlans()&lt;/font&gt;&lt;/div&gt;&lt;div&gt;&lt;br&gt;&lt;/div&gt;&lt;/div&gt;&lt;div&gt;&lt;br&gt;&lt;/div&gt;" style="align=left;strokeColor=none;fillColor=none;spacingLeft=4;spacingRight=4;fontSize=12;verticalAlign=top;resizable=0;rotatable=0;part=1;html=1;whiteSpace=wrap;labelBackgroundColor=none;strokeWidth=2;" parent="EhKwJJ9LpBdOfNEoEJVP-86" vertex="1">
          <mxGeometry y="50" width="330" height="100.69" as="geometry" />
        </mxCell>
        <mxCell id="EhKwJJ9LpBdOfNEoEJVP-88" style="edgeStyle=orthogonalEdgeStyle;rounded=0;orthogonalLoop=1;jettySize=auto;html=1;entryX=0.006;entryY=0.627;entryDx=0;entryDy=0;entryPerimeter=0;" parent="1" source="EhKwJJ9LpBdOfNEoEJVP-53" target="EhKwJJ9LpBdOfNEoEJVP-55" edge="1">
          <mxGeometry relative="1" as="geometry" />
        </mxCell>
        <mxCell id="EhKwJJ9LpBdOfNEoEJVP-89" value="&lt;div style=&quot;&quot;&gt;&lt;span style=&quot;font-weight: 400;&quot;&gt;&lt;font style=&quot;font-size: 14px;&quot;&gt;&amp;lt;&amp;lt;controller&amp;gt;&amp;gt;&lt;/font&gt;&lt;/span&gt;&lt;/div&gt;&lt;div style=&quot;&quot;&gt;&lt;span style=&quot;font-weight: 400; font-size: medium;&quot;&gt;StudyPlanVieweController&lt;/span&gt;&lt;br&gt;&lt;/div&gt;" style="swimlane;childLayout=stackLayout;horizontal=1;startSize=50;horizontalStack=0;rounded=1;fontSize=14;fontStyle=1;strokeWidth=2;resizeParent=0;resizeLast=1;shadow=0;dashed=0;align=center;arcSize=4;whiteSpace=wrap;html=1;labelBackgroundColor=none;" parent="1" vertex="1">
          <mxGeometry x="-2368.12" y="2870" width="305" height="145" as="geometry" />
        </mxCell>
        <mxCell id="EhKwJJ9LpBdOfNEoEJVP-90" value="&lt;div&gt;&lt;div&gt;&lt;span style=&quot;font-size: 15px;&quot;&gt;+&lt;/span&gt;&lt;font style=&quot;font-size: 14px;&quot;&gt;getAllStudyPlans&lt;/font&gt;&lt;font style=&quot;font-size: 15px;&quot;&gt;()&lt;/font&gt;&lt;/div&gt;&lt;/div&gt;&lt;div&gt;&lt;span style=&quot;font-size: 15px;&quot;&gt;+&lt;/span&gt;&lt;font style=&quot;font-size: 14px;&quot;&gt;handleEmptyStudyPlans()&lt;/font&gt;&lt;/div&gt;&lt;div&gt;&lt;font style=&quot;font-size: 14px;&quot;&gt;+handleError()&lt;/font&gt;&lt;/div&gt;" style="align=left;strokeColor=none;fillColor=none;spacingLeft=4;spacingRight=4;fontSize=12;verticalAlign=top;resizable=0;rotatable=0;part=1;html=1;whiteSpace=wrap;labelBackgroundColor=none;strokeWidth=2;" parent="EhKwJJ9LpBdOfNEoEJVP-89" vertex="1">
          <mxGeometry y="50" width="305" height="95" as="geometry" />
        </mxCell>
        <mxCell id="EhKwJJ9LpBdOfNEoEJVP-91" style="edgeStyle=orthogonalEdgeStyle;rounded=0;orthogonalLoop=1;jettySize=auto;html=1;exitX=0.5;exitY=1;exitDx=0;exitDy=0;labelBackgroundColor=none;fontColor=default;strokeWidth=2;" parent="EhKwJJ9LpBdOfNEoEJVP-89" edge="1">
          <mxGeometry relative="1" as="geometry">
            <mxPoint x="-312.5" y="1141.3999999999999" as="sourcePoint" />
            <mxPoint x="-312.5" y="1141.3999999999999" as="targetPoint" />
          </mxGeometry>
        </mxCell>
        <mxCell id="EhKwJJ9LpBdOfNEoEJVP-92" style="edgeStyle=orthogonalEdgeStyle;rounded=0;orthogonalLoop=1;jettySize=auto;html=1;exitX=0.5;exitY=1;exitDx=0;exitDy=0;labelBackgroundColor=none;fontColor=default;strokeWidth=2;" parent="1" edge="1">
          <mxGeometry relative="1" as="geometry">
            <mxPoint x="-2672.5" y="3300" as="sourcePoint" />
            <mxPoint x="-2672.5" y="3300" as="targetPoint" />
          </mxGeometry>
        </mxCell>
        <mxCell id="EhKwJJ9LpBdOfNEoEJVP-93" style="edgeStyle=orthogonalEdgeStyle;rounded=0;orthogonalLoop=1;jettySize=auto;html=1;exitX=0.5;exitY=1;exitDx=0;exitDy=0;labelBackgroundColor=none;fontColor=default;strokeWidth=2;" parent="1" edge="1">
          <mxGeometry relative="1" as="geometry">
            <mxPoint x="-2673.75" y="3580" as="sourcePoint" />
            <mxPoint x="-2673.75" y="3580" as="targetPoint" />
          </mxGeometry>
        </mxCell>
        <mxCell id="EhKwJJ9LpBdOfNEoEJVP-94" value="&lt;div style=&quot;text-align: start;&quot;&gt;&lt;span style=&quot;font-size: 12px; font-weight: 400;&quot;&gt;&amp;nbsp; &amp;nbsp; &amp;nbsp;&amp;lt;&amp;lt;controller&amp;gt;&amp;gt;&lt;/span&gt;&lt;/div&gt;&lt;div style=&quot;text-align: start;&quot;&gt;&lt;font style=&quot;font-weight: normal; font-size: 13px;&quot;&gt;StudyPlanController&lt;/font&gt;&lt;br&gt;&lt;/div&gt;" style="swimlane;childLayout=stackLayout;horizontal=1;startSize=50;horizontalStack=0;rounded=1;fontSize=14;fontStyle=1;strokeWidth=2;resizeParent=0;resizeLast=1;shadow=0;dashed=0;align=center;arcSize=4;whiteSpace=wrap;html=1;labelBackgroundColor=none;" parent="1" vertex="1">
          <mxGeometry x="-2392.5" y="3321.2999999999997" width="367.5" height="188.09" as="geometry" />
        </mxCell>
        <mxCell id="EhKwJJ9LpBdOfNEoEJVP-95" value="&lt;div&gt;&lt;div&gt;&lt;span style=&quot;font-size: 15px;&quot;&gt;+&lt;/span&gt;&lt;font style=&quot;font-size: 14px;&quot;&gt;getStudyPlan&lt;/font&gt;&lt;span style=&quot;font-size: 15px;&quot;&gt;()&lt;/span&gt;&lt;br&gt;&lt;/div&gt;&lt;/div&gt;&lt;div&gt;&lt;font style=&quot;font-size: 14px;&quot;&gt;+addTaskToPlan()&lt;/font&gt;&lt;/div&gt;&lt;div&gt;&lt;font style=&quot;font-size: 15px;&quot;&gt;+&lt;/font&gt;&lt;font style=&quot;font-size: 14px;&quot;&gt;updateTasksPlan&lt;/font&gt;&lt;font style=&quot;font-size: 15px;&quot;&gt;()&lt;/font&gt;&lt;/div&gt;&lt;div&gt;&lt;span style=&quot;font-size: 15px;&quot;&gt;+&lt;/span&gt;&lt;font style=&quot;font-size: 14px;&quot;&gt;deleteTaskFromPlan&lt;/font&gt;()&lt;/div&gt;&lt;div&gt;+&lt;font style=&quot;font-size: 14px;&quot;&gt;removeCheckedTask&lt;/font&gt;()&lt;/div&gt;&lt;div&gt;+&lt;font style=&quot;font-size: 14px;&quot;&gt;handleEmptyUpdateInput&lt;/font&gt;()&lt;/div&gt;&lt;div&gt;+&lt;font style=&quot;font-size: 14px;&quot;&gt;handleError&lt;/font&gt;&lt;span style=&quot;font-size: medium;&quot;&gt;()&lt;/span&gt;&lt;/div&gt;" style="align=left;strokeColor=none;fillColor=none;spacingLeft=4;spacingRight=4;fontSize=12;verticalAlign=top;resizable=0;rotatable=0;part=1;html=1;whiteSpace=wrap;labelBackgroundColor=none;strokeWidth=2;" parent="EhKwJJ9LpBdOfNEoEJVP-94" vertex="1">
          <mxGeometry y="50" width="367.5" height="138.09" as="geometry" />
        </mxCell>
        <mxCell id="EhKwJJ9LpBdOfNEoEJVP-96" style="edgeStyle=orthogonalEdgeStyle;rounded=0;orthogonalLoop=1;jettySize=auto;html=1;exitX=0.5;exitY=1;exitDx=0;exitDy=0;labelBackgroundColor=none;fontColor=default;strokeWidth=2;" parent="EhKwJJ9LpBdOfNEoEJVP-94" edge="1">
          <mxGeometry relative="1" as="geometry">
            <mxPoint x="-363.12" y="1540.3" as="sourcePoint" />
            <mxPoint x="-363.12" y="1540.3" as="targetPoint" />
          </mxGeometry>
        </mxCell>
        <mxCell id="EhKwJJ9LpBdOfNEoEJVP-97" value="&lt;p style=&quot;margin:0px;margin-top:4px;text-align:center;&quot;&gt;&lt;font style=&quot;font-size: 15px;&quot;&gt;&amp;lt;&amp;lt;Entity&amp;gt;&amp;gt;&lt;/font&gt;&lt;/p&gt;&lt;p style=&quot;margin:0px;margin-top:4px;text-align:center;&quot;&gt;&lt;font style=&quot;font-size: 15px;&quot;&gt;StudyPlan&lt;/font&gt;&lt;/p&gt;&lt;hr size=&quot;1&quot; style=&quot;border-style:solid;&quot;&gt;&lt;p style=&quot;margin:0px;margin-left:4px;&quot;&gt;&lt;font style=&quot;font-size: 14px;&quot;&gt;-studyPlanTitle&lt;br&gt;&lt;/font&gt;&lt;/p&gt;&lt;p style=&quot;margin:0px;margin-left:4px;&quot;&gt;&lt;font style=&quot;font-size: 14px;&quot;&gt;-taskTitle&lt;/font&gt;&lt;/p&gt;&lt;p style=&quot;margin:0px;margin-left:4px;&quot;&gt;&lt;font style=&quot;font-size: 14px;&quot;&gt;ـ taskDeadline&lt;/font&gt;&lt;/p&gt;&lt;p style=&quot;margin:0px;margin-left:4px;&quot;&gt;&lt;font style=&quot;font-size: 14px;&quot;&gt;-taskPriorities&lt;/font&gt;&lt;/p&gt;&lt;p style=&quot;margin:0px;margin-left:4px;&quot;&gt;&lt;span style=&quot;font-size: 14px;&quot;&gt;-lastUpdated&lt;/span&gt;&lt;/p&gt;&lt;hr size=&quot;1&quot; style=&quot;border-style:solid;&quot;&gt;&lt;p style=&quot;margin:0px;margin-left:4px;&quot;&gt;&lt;font style=&quot;font-size: 15px;&quot;&gt;+getStudyPlan()&lt;/font&gt;&lt;/p&gt;&lt;p style=&quot;margin:0px;margin-left:4px;&quot;&gt;&lt;font style=&quot;font-size: 15px;&quot;&gt;+&lt;/font&gt;&lt;span style=&quot;font-size: 15px;&quot;&gt;getTaskDetails()&lt;/span&gt;&lt;/p&gt;&lt;p style=&quot;margin: 0px 0px 0px 4px;&quot;&gt;&lt;font style=&quot;font-size: 15px;&quot;&gt;+updateTask()&lt;/font&gt;&lt;/p&gt;&lt;p style=&quot;margin:0px;margin-left:4px;&quot;&gt;&lt;font style=&quot;font-size: 15px;&quot;&gt;&lt;/font&gt;&lt;/p&gt;&lt;p style=&quot;margin: 0px 0px 0px 4px;&quot;&gt;&lt;font style=&quot;font-size: 15px;&quot;&gt;+saveTask()&lt;/font&gt;&lt;/p&gt;&lt;p style=&quot;margin: 0px 0px 0px 4px;&quot;&gt;&lt;font style=&quot;font-size: 15px;&quot;&gt;+&lt;/font&gt;&lt;span style=&quot;font-size: medium;&quot;&gt;removeTask&lt;/span&gt;&lt;/p&gt;&lt;p style=&quot;margin:0px;margin-left:4px;&quot;&gt;&lt;br&gt;&lt;/p&gt;" style="verticalAlign=top;align=left;overflow=fill;html=1;whiteSpace=wrap;" parent="1" vertex="1">
          <mxGeometry x="-1867.5" y="3310" width="185" height="240" as="geometry" />
        </mxCell>
        <mxCell id="EhKwJJ9LpBdOfNEoEJVP-98" value="&lt;div style=&quot;text-align: start;&quot;&gt;&lt;span style=&quot;font-weight: 400;&quot;&gt;&lt;font style=&quot;font-size: 13px;&quot;&gt;&amp;nbsp; &amp;nbsp;&amp;lt;&amp;lt;boundary&amp;gt;&amp;gt;&lt;/font&gt;&lt;/span&gt;&lt;/div&gt;&lt;div style=&quot;text-align: start;&quot;&gt;&lt;span style=&quot;font-weight: 400;&quot;&gt;&lt;font style=&quot;font-size: 15px;&quot;&gt;StudyPlansPage&lt;/font&gt;&lt;/span&gt;&lt;br&gt;&lt;/div&gt;" style="swimlane;childLayout=stackLayout;horizontal=1;startSize=50;horizontalStack=0;rounded=1;fontSize=14;fontStyle=1;strokeWidth=2;resizeParent=0;resizeLast=1;shadow=0;dashed=0;align=center;arcSize=4;whiteSpace=wrap;html=1;labelBackgroundColor=none;" parent="1" vertex="1">
          <mxGeometry x="-2867.5" y="3360" width="307.5" height="110" as="geometry" />
        </mxCell>
        <mxCell id="EhKwJJ9LpBdOfNEoEJVP-99" value="&lt;div&gt;&lt;font style=&quot;font-size: 14px;&quot;&gt;&lt;font&gt;+select&lt;/font&gt;StudyPlan()&lt;/font&gt;&lt;/div&gt;&lt;div&gt;&lt;br&gt;&lt;/div&gt;" style="align=left;strokeColor=none;fillColor=none;spacingLeft=4;spacingRight=4;fontSize=12;verticalAlign=top;resizable=0;rotatable=0;part=1;html=1;whiteSpace=wrap;labelBackgroundColor=none;strokeWidth=2;" parent="EhKwJJ9LpBdOfNEoEJVP-98" vertex="1">
          <mxGeometry y="50" width="307.5" height="60" as="geometry" />
        </mxCell>
        <mxCell id="EhKwJJ9LpBdOfNEoEJVP-100" style="edgeStyle=orthogonalEdgeStyle;rounded=0;orthogonalLoop=1;jettySize=auto;html=1;entryX=-0.01;entryY=0.175;entryDx=0;entryDy=0;entryPerimeter=0;" parent="1" source="EhKwJJ9LpBdOfNEoEJVP-12" target="EhKwJJ9LpBdOfNEoEJVP-17" edge="1">
          <mxGeometry relative="1" as="geometry" />
        </mxCell>
        <mxCell id="EhKwJJ9LpBdOfNEoEJVP-101" value="&lt;div style=&quot;text-align: start;&quot;&gt;&lt;span style=&quot;font-weight: 400;&quot;&gt;&lt;font style=&quot;font-size: 13px;&quot;&gt;&amp;nbsp; &amp;nbsp; &amp;nbsp;&amp;lt;&amp;lt;boundary&amp;gt;&amp;gt;&lt;/font&gt;&lt;/span&gt;&lt;/div&gt;&lt;div style=&quot;text-align: start;&quot;&gt;&lt;span style=&quot;font-weight: 400; font-size: medium;&quot;&gt;StudyPlansPage&lt;/span&gt;&lt;br&gt;&lt;/div&gt;" style="swimlane;childLayout=stackLayout;horizontal=1;startSize=50;horizontalStack=0;rounded=1;fontSize=14;fontStyle=1;strokeWidth=2;resizeParent=0;resizeLast=1;shadow=0;dashed=0;align=center;arcSize=4;whiteSpace=wrap;html=1;labelBackgroundColor=none;" parent="1" vertex="1">
          <mxGeometry x="-2370" y="3100" width="330" height="150.69" as="geometry" />
        </mxCell>
        <mxCell id="EhKwJJ9LpBdOfNEoEJVP-102" value="&lt;div&gt;&lt;div&gt;&lt;span style=&quot;font-size: 14.000001px;&quot;&gt;+&lt;/span&gt;&lt;span style=&quot;font-size: 14px;&quot;&gt;displayNoStudyPlansMessage()&lt;/span&gt;&lt;/div&gt;&lt;div&gt;&lt;span style=&quot;font-size: 14.000001px;&quot;&gt;+displayStudyPlanList()&lt;/span&gt;&lt;br&gt;&lt;/div&gt;&lt;/div&gt;&lt;div&gt;&lt;span style=&quot;font-size: 14px;&quot;&gt;+displayErrorMessage()&lt;/span&gt;&lt;/div&gt;&lt;div&gt;&lt;span style=&quot;font-size: 14px;&quot;&gt;&lt;br&gt;&lt;/span&gt;&lt;/div&gt;" style="align=left;strokeColor=none;fillColor=none;spacingLeft=4;spacingRight=4;fontSize=12;verticalAlign=top;resizable=0;rotatable=0;part=1;html=1;whiteSpace=wrap;labelBackgroundColor=none;strokeWidth=2;" parent="EhKwJJ9LpBdOfNEoEJVP-101" vertex="1">
          <mxGeometry y="50" width="330" height="100.69" as="geometry" />
        </mxCell>
        <mxCell id="EhKwJJ9LpBdOfNEoEJVP-103" style="edgeStyle=orthogonalEdgeStyle;rounded=0;orthogonalLoop=1;jettySize=auto;html=1;entryX=-0.009;entryY=0.421;entryDx=0;entryDy=0;entryPerimeter=0;" parent="1" source="EhKwJJ9LpBdOfNEoEJVP-87" target="EhKwJJ9LpBdOfNEoEJVP-90" edge="1">
          <mxGeometry relative="1" as="geometry" />
        </mxCell>
        <mxCell id="EhKwJJ9LpBdOfNEoEJVP-104" style="edgeStyle=orthogonalEdgeStyle;rounded=0;orthogonalLoop=1;jettySize=auto;html=1;entryX=0.016;entryY=0.635;entryDx=0;entryDy=0;entryPerimeter=0;" parent="1" source="EhKwJJ9LpBdOfNEoEJVP-90" target="EhKwJJ9LpBdOfNEoEJVP-85" edge="1">
          <mxGeometry relative="1" as="geometry" />
        </mxCell>
        <mxCell id="EhKwJJ9LpBdOfNEoEJVP-105" style="edgeStyle=orthogonalEdgeStyle;rounded=0;orthogonalLoop=1;jettySize=auto;html=1;entryX=0.467;entryY=0.033;entryDx=0;entryDy=0;entryPerimeter=0;" parent="1" source="EhKwJJ9LpBdOfNEoEJVP-90" target="EhKwJJ9LpBdOfNEoEJVP-101" edge="1">
          <mxGeometry relative="1" as="geometry" />
        </mxCell>
        <mxCell id="EhKwJJ9LpBdOfNEoEJVP-106" style="edgeStyle=orthogonalEdgeStyle;rounded=0;orthogonalLoop=1;jettySize=auto;html=1;entryX=-0.003;entryY=0.55;entryDx=0;entryDy=0;entryPerimeter=0;" parent="1" source="EhKwJJ9LpBdOfNEoEJVP-95" target="EhKwJJ9LpBdOfNEoEJVP-97" edge="1">
          <mxGeometry relative="1" as="geometry" />
        </mxCell>
        <mxCell id="EhKwJJ9LpBdOfNEoEJVP-107" style="edgeStyle=orthogonalEdgeStyle;rounded=0;orthogonalLoop=1;jettySize=auto;html=1;entryX=0;entryY=0.5;entryDx=0;entryDy=0;" parent="1" source="EhKwJJ9LpBdOfNEoEJVP-99" target="EhKwJJ9LpBdOfNEoEJVP-95" edge="1">
          <mxGeometry relative="1" as="geometry" />
        </mxCell>
        <mxCell id="EhKwJJ9LpBdOfNEoEJVP-108" value="&lt;div style=&quot;text-align: start;&quot;&gt;&lt;span style=&quot;font-weight: 400;&quot;&gt;&lt;font style=&quot;font-size: 13px;&quot;&gt;&amp;nbsp; &amp;nbsp;&amp;lt;&amp;lt;boundary&amp;gt;&amp;gt;&lt;/font&gt;&lt;/span&gt;&lt;/div&gt;&lt;div style=&quot;text-align: start;&quot;&gt;&lt;span style=&quot;font-weight: 400;&quot;&gt;&lt;font style=&quot;font-size: 15px;&quot;&gt;StudyPlanPage&lt;/font&gt;&lt;/span&gt;&lt;br&gt;&lt;/div&gt;" style="swimlane;childLayout=stackLayout;horizontal=1;startSize=50;horizontalStack=0;rounded=1;fontSize=14;fontStyle=1;strokeWidth=2;resizeParent=0;resizeLast=1;shadow=0;dashed=0;align=center;arcSize=4;whiteSpace=wrap;html=1;labelBackgroundColor=none;" parent="1" vertex="1">
          <mxGeometry x="-2362.5" y="3580" width="307.5" height="210.69" as="geometry" />
        </mxCell>
        <mxCell id="EhKwJJ9LpBdOfNEoEJVP-109" value="&lt;div&gt;&lt;div&gt;+&lt;font style=&quot;font-size: 14px;&quot;&gt;displaySelectedStudyPlan&lt;/font&gt;()&lt;br&gt;&lt;/div&gt;&lt;div&gt;&lt;font style=&quot;font-size: 14px;&quot;&gt;+selectAddTask()&lt;/font&gt;&lt;/div&gt;&lt;/div&gt;&lt;div&gt;&lt;font style=&quot;font-size: 14px;&quot;&gt;+selectUpdateTask()&lt;/font&gt;&lt;/div&gt;&lt;div&gt;&lt;font style=&quot;font-size: 14px;&quot;&gt;+selectDeleteTask()&lt;/font&gt;&lt;/div&gt;&lt;div&gt;&lt;font style=&quot;font-size: 14px;&quot;&gt;+checkTask()&lt;/font&gt;&lt;/div&gt;&lt;div&gt;&lt;font style=&quot;font-size: 14px;&quot;&gt;+displayTaskAsChecked()&lt;/font&gt;&lt;/div&gt;&lt;div&gt;&lt;font style=&quot;font-size: 14px;&quot;&gt;+displayErrorMessage()&lt;/font&gt;&lt;/div&gt;" style="align=left;strokeColor=none;fillColor=none;spacingLeft=4;spacingRight=4;fontSize=12;verticalAlign=top;resizable=0;rotatable=0;part=1;html=1;whiteSpace=wrap;labelBackgroundColor=none;strokeWidth=2;" parent="EhKwJJ9LpBdOfNEoEJVP-108" vertex="1">
          <mxGeometry y="50" width="307.5" height="160.69" as="geometry" />
        </mxCell>
        <mxCell id="EhKwJJ9LpBdOfNEoEJVP-110" style="edgeStyle=orthogonalEdgeStyle;rounded=0;orthogonalLoop=1;jettySize=auto;html=1;entryX=0.5;entryY=0;entryDx=0;entryDy=0;" parent="1" source="EhKwJJ9LpBdOfNEoEJVP-95" target="EhKwJJ9LpBdOfNEoEJVP-108" edge="1">
          <mxGeometry relative="1" as="geometry" />
        </mxCell>
      </root>
    </mxGraphModel>
  </diagram>
</mxfile>
